<svg width="1000" height="1000" viewBox="0 0 1000 1000" fill="none" xmlns="http://www.w3.org/2000/svg">
<path d="M493 86.9999C493 84.2385 495.239 81.9999 498 81.9999H517C519.762 81.9999 522 84.2385 522 86.9999V114C522 116.761 519.762 119 517 119H498C495.239 119 493 116.761 493 114V86.9999Z" fill="url(#paint0_linear_425_968)"/>
<path d="M483.671 738.189C491.378 733.187 493.658 726.813 493.466 718.173C492.89 692.315 493.379 666.434 493.058 640.566C492.979 634.146 494.734 629.316 499.302 624.744C553.315 570.689 607.175 516.481 661.132 462.37C664.185 459.307 666.892 455.574 672.241 454.397C679.57 470.777 684.357 487.785 686.87 505.47C687.496 509.876 688.992 514.46 688.34 518.694C685.253 538.74 695.295 552.788 706.632 568.059C743.693 617.98 763.522 673.981 759.828 737.029C757.737 772.726 750.084 806.965 732.336 838.263C734.047 842.378 737.855 843.065 740.884 844.646C751.991 850.443 762.727 856.824 772.124 865.155C795.622 885.986 796.793 915.856 774.831 938.191C755.451 957.901 730.569 966.655 704.279 971.723C655.331 981.16 605.7 982.206 556.056 982.705C543.57 982.83 531.08 982.85 518.599 983.195C511.943 983.38 508.489 981.1 509.263 973.922C510.074 966.401 509.35 960.001 498.982 961.2C495.293 961.627 493.701 958.996 493.517 955.61C493.356 952.644 493.389 949.666 493.387 946.693C493.354 883.651 493.329 820.609 493.302 757.567C493.301 754.913 493.302 752.259 493.302 749.885C490.513 748.29 489.51 750.318 488.401 751.405C473.962 765.559 459.623 779.817 445.172 793.96C441.984 797.079 440.609 800.574 440.621 805.066C440.713 837.777 440.701 870.488 440.55 903.197C440.529 907.783 442.195 910.739 445.639 913.786C454.953 922.026 455.462 934.487 447.378 942.116C440.002 949.078 426.65 948.74 419.876 941.42C412.246 933.175 413.264 920.936 423.039 913.2C427.164 909.936 427.944 906.607 427.934 901.812C427.864 868.217 428.119 834.622 428.174 801.026C428.184 795.321 430.235 790.945 434.371 786.921C450.782 770.959 466.936 754.733 483.671 738.189ZM433.881 922.865C429.563 923.451 427.563 925.955 428.304 930.217C428.742 932.734 430.512 934.479 433.16 934.682C436.179 934.914 438.394 933.264 439.25 930.51C440.409 926.787 438.833 924.199 433.881 922.865Z" fill="url(#paint1_linear_425_968)"/>
<path d="M493.912 464.005C493.435 455.388 493.057 447.365 493.231 439.354C493.366 433.145 490.621 430.907 484.652 430.986C470.977 431.169 457.294 431.253 443.624 430.938C436.14 430.765 433.162 433.209 433.332 441.234C433.829 464.713 432.968 488.227 433.768 511.688C434.143 522.672 428.706 528.535 420.76 533.781C416.958 531.268 418.196 527.673 418.186 524.643C418.088 494.613 418.088 464.583 418.162 434.553C418.196 420.702 422.883 416.068 437.114 415.963C452.871 415.847 468.634 415.818 484.386 416.135C490.83 416.264 493.419 413.998 493.395 407.386C493.231 363.382 493.283 319.378 493.36 275.374C493.367 271.215 492.173 267.879 489.065 265.106C486.183 262.534 483.815 259.22 480.61 257.204C465.176 247.497 461.963 233.549 462.629 216.095C463.877 183.437 462.962 150.697 462.953 117.991C462.952 115.613 463.016 113.234 463.014 110.856C463.009 106.277 464.772 103.586 469.848 103.607C474.731 103.627 475.869 106.556 475.922 110.551C476.003 116.496 476.054 122.443 476.052 128.389C476.039 159.608 476.802 190.858 475.616 222.033C475.086 235.966 481.96 243.062 491.998 249.915C493.955 246.076 493.175 242.479 493.179 239.031C493.226 197.406 493.326 155.779 493.049 114.155C492.996 106.294 493.551 100.619 503.663 101.599C509.949 102.209 509.863 97.0602 509.488 92.9274C508.693 84.1881 511.375 80.7253 520.982 81.7427C532.799 82.9941 544.64 84.0654 556.24 86.5299C561.701 87.6901 565.133 86.7035 568.459 82.2516C589.577 53.9822 616.825 33.4307 648.897 19.0586C661.929 13.2193 667.866 15.3314 672.952 28.9555C683.02 55.9276 684.213 84.0284 682.423 112.402C681.261 130.831 678.401 148.999 673.327 166.765C672.024 171.324 673.981 174.85 675.71 178.614C691.155 212.24 691.192 246.338 678.892 280.839C677.461 284.852 675.227 288.158 672.2 291.173C616.159 346.978 560.205 402.869 504.1 458.609C501.447 461.244 499.655 466.157 493.912 464.005Z" fill="url(#paint2_linear_425_968)"/>
<path d="M362.631 273.49C369.768 283.924 379.082 291.438 387.384 299.899C402.994 315.81 418.892 331.441 434.762 347.095C436.767 349.073 438.316 351.977 442.882 352.009C443.526 339.218 446.407 326.994 433.763 316.701C421.61 306.807 411.432 294.518 400.04 283.643C395.164 278.988 392.797 274.064 393.068 267.217C393.526 255.642 392.799 244.015 393.398 232.453C393.79 224.886 391.05 219.606 385.772 214.505C374.236 203.356 363.406 191.476 351.833 180.368C347.062 175.789 345.463 170.763 345.482 164.518C345.542 144.306 345.317 124.093 345.404 103.882C345.426 98.8314 344.227 95.1234 340.05 91.583C330.659 83.6238 330.06 71.4634 337.814 63.1665C345.108 55.3614 357.338 55.3465 364.889 63.1334C372.821 71.3121 372.217 82.9168 362.867 91.4368C359.671 94.3499 358.415 97.2834 358.437 101.443C358.542 121.655 358.597 141.869 358.343 162.079C358.273 167.586 360.086 171.743 363.882 175.536C375.866 187.511 387.615 199.721 399.656 211.637C403.515 215.455 405.335 219.557 405.223 225.045C404.967 237.507 405.489 249.99 405.073 262.444C404.855 268.966 407.02 273.662 411.659 278.101C424.756 290.636 437.452 303.588 450.451 316.227C454.262 319.933 456.68 323.846 456.617 329.42C456.361 352.305 456.357 375.193 456.232 398.079C456.206 402.731 456.019 407.415 449.505 407.301C446.223 407.243 443.689 405.996 443.363 402.252C443.234 400.774 442.947 399.23 443.218 397.809C446.777 379.14 438.55 366.361 424.967 354.003C401.689 332.823 380.256 309.625 357.727 287.602C352.393 282.388 349.986 277.002 350.274 269.558C350.675 259.164 351.892 248.993 342.311 240.283C335.311 233.921 338.379 220.788 345.848 214.841C353.604 208.666 364.191 209.225 370.959 216.166C377.793 223.176 379.567 236.266 371.731 241.837C359.595 250.465 362.501 261.63 362.631 273.49ZM362.212 226.428C359.66 223.198 356.709 222.124 353.323 225.115C351.115 227.065 350.822 229.727 351.827 232.324C352.937 235.191 355.489 236.02 358.275 235.49C362.721 234.644 363.53 231.511 362.212 226.428ZM350.393 70.6516C346.519 71.7714 343.871 73.9039 345.326 78.319C346.248 81.1194 348.668 82.4438 351.659 82.1469C354.62 81.853 356.699 80.2128 357.141 77.2126C357.743 73.1385 355.414 71.2297 350.393 70.6516Z" fill="url(#paint3_linear_425_968)"/>
<path d="M234.228 755.386C244.088 731.602 262.156 718.833 283.259 720.187C314.42 722.188 332.96 752.231 321.507 782.168C314.002 801.786 294.433 815.41 274.747 814.723C255.901 814.065 239.796 802.074 233.977 784.059C230.983 774.79 230.989 765.395 234.228 755.386ZM285.878 740.387C283.219 740.176 280.557 739.749 277.902 739.79C264.185 740.002 252.335 751.206 251.255 764.85C250.138 778.959 258.347 791.16 270.853 793.982C286.56 797.527 299.419 790.674 304.2 776.211C309.242 760.96 303.23 748.461 285.878 740.387Z" fill="url(#paint4_linear_425_968)"/>
<path d="M412.189 203.401C397.951 193.137 392.324 180.158 394.675 163.079C396.13 152.508 395.355 142.545 385.542 134.218C377.832 127.677 380.396 114.438 388.29 108.152C396.123 101.915 407.399 102.853 414.069 110.296C421.019 118.052 421.468 130.361 413.647 136.796C408.108 141.354 407.447 146.292 406.504 152.717C403.472 173.369 410.313 189.153 427.221 200.857C438.35 208.56 442.884 218.987 440.584 232.301C436.519 255.822 443.813 274.602 463.581 288.363C477.619 298.136 481.485 311.525 480.438 328.417C479.006 351.528 480.047 374.79 479.965 397.987C479.951 402.043 480.825 407.009 474.482 407.121C467.912 407.237 468.081 402.379 468.083 397.75C468.094 371.281 467.944 344.811 468.178 318.345C468.229 312.55 466.669 308.217 462.391 304.202C453.722 296.066 445.949 286.928 436.949 279.203C429.516 272.823 427.575 265.271 428.129 256.252C428.439 251.211 427.952 246.059 428.796 241.123C431.547 225.044 425.948 212.829 412.189 203.401ZM404.511 127.24C407.331 124.389 407.222 121.539 404.285 118.924C402.105 116.982 399.565 116.587 397.053 118.316C394.614 119.994 393.585 122.525 394.692 125.218C396.415 129.409 399.881 129.273 404.511 127.24Z" fill="url(#paint5_linear_425_968)"/>
<path d="M804.518 276.812C800.075 272.49 796.068 268.62 792.509 265.183C783.305 274.395 774.368 283.339 764.611 293.105C770.739 299.333 777.093 306.285 783.984 312.654C790.762 318.92 785.175 322.163 781.51 326.277C777.598 330.667 774.196 332.561 769.159 327.283C752.15 309.459 734.883 291.878 717.592 274.325C711.947 268.595 716.844 265.511 720.23 261.95C723.554 258.454 726.667 254.407 731.775 259.948C736.599 265.182 741.87 270.002 746.764 275.174C749.891 278.478 752.765 278.466 755.869 275.348C762.57 268.618 769.218 261.833 776.015 255.201C778.932 252.354 777.974 250.063 775.637 247.609C770.519 242.236 765.543 236.722 760.321 231.453C754.127 225.203 760.426 222.173 763.536 218.38C766.715 214.502 769.986 212.514 774.512 217.15C792.141 235.206 810.099 252.943 827.625 271.097C835.112 278.853 824.973 281.327 822.224 285.818C819.432 290.377 816.064 289.274 812.919 285.667C810.385 282.76 807.617 280.057 804.518 276.812Z" fill="url(#paint6_linear_425_968)"/>
<path d="M415.706 661.577C420.559 665.039 422.677 661.048 425.023 658.786C433.151 650.944 441.257 643.063 449.001 634.848C453.52 630.053 456.469 632.241 459.947 635.897C463.241 639.361 466.142 642.19 461.279 646.911C447.842 659.953 434.638 673.236 421.491 686.572C418.006 690.107 415.059 690.159 411.711 686.664C394.234 668.425 376.766 650.177 359.205 632.018C355.444 628.128 356.046 625.056 359.74 621.505C372.379 609.354 384.91 597.089 397.358 584.742C401.805 580.332 405.223 581.324 409.428 585.35C414.138 589.859 412.029 592.871 408.528 596.431C401.444 603.634 394.671 611.146 387.5 618.259C381.816 623.897 383.55 628.366 388.397 633.467C393.79 639.142 397.136 635.441 400.82 631.68C406.85 625.523 413.003 619.481 418.901 613.2C422.425 609.448 425.299 609.817 428.461 613.554C431.295 616.902 435.611 619.734 430.732 624.643C425.495 629.913 420.379 635.305 415.127 640.561C404.941 650.751 404.917 650.727 415.706 661.577Z" fill="url(#paint7_linear_425_968)"/>
<path d="M661.13 446.47C659.414 448.173 658.002 449.314 656.913 450.707C652.451 456.417 648.35 456.536 643.199 451.089C626.875 433.829 610.273 416.829 593.676 399.829C589.765 395.823 588.511 392.343 593.123 387.833C605.857 375.383 618.502 362.835 630.885 350.038C636.388 344.35 639.571 348.723 643.499 351.832C648.484 355.777 645.86 358.734 642.66 361.971C634.729 369.994 627.022 378.24 619.002 386.172C612.547 392.557 618.488 395.923 621.91 400.075C626.189 405.265 629.57 402.381 632.935 398.99C639.421 392.455 646.064 386.064 652.317 379.313C656.544 374.749 659.392 377.126 662.601 380.365C665.716 383.508 668.515 386.237 663.908 390.599C657.441 396.72 651.561 403.461 645.073 409.557C638.633 415.609 641.544 420.027 646.364 425.227C651.703 430.987 655.309 428.475 659.481 424.043C665.585 417.556 671.951 411.314 678.244 405.005C689.198 394.023 690.115 394.16 699.13 408.722C686.738 421.032 674.16 433.528 661.13 446.47Z" fill="url(#paint8_linear_425_968)"/>
<path d="M308.902 708.177C291.263 690.422 291.246 690.406 308.704 672.925C313.738 667.884 318.63 662.653 324.052 658.056C336.395 647.59 352.518 647.147 364.166 656.535C376.833 666.745 379.911 682.586 372.223 697.357C368.432 704.64 362.336 709.95 356.705 715.605C352.356 719.973 351.302 723.771 356.361 728.198C358.134 729.749 359.529 731.729 361.122 733.491C369.347 742.584 369.129 742.326 359.946 750.26C355.537 754.069 352.818 753.815 348.922 749.667C335.91 735.817 322.564 722.28 308.902 708.177ZM352.736 695.527C359.202 685.718 358.983 678.503 352.04 672.621C345.221 666.843 338.968 667.643 330.098 675.792C325.989 679.567 321.565 683.134 318.794 688.104C320.148 692.139 323.245 694.571 325.891 697.309C339.005 710.881 339.024 710.864 352.736 695.527Z" fill="url(#paint9_linear_425_968)"/>
<path d="M445.813 571.435C452.892 574.587 457.857 570.509 462.917 567.719C468.89 564.425 474.504 560.424 481.041 558.279C490.402 555.207 499.577 555.675 506.765 562.925C513.461 569.68 515.505 578.353 512.708 587.633C506.43 608.465 491.017 619.572 471.145 625.286C463.82 627.393 461.717 624.177 460.026 610.15C466.035 608.178 472.301 606.575 478.185 604.071C484.878 601.223 490.347 596.682 493.121 589.567C494.456 586.141 495.582 582.736 492.472 579.651C489.545 576.748 485.715 576.63 482.503 578.137C475.807 581.277 469.406 585.062 462.957 588.712C455.116 593.149 447.108 594.97 438.241 591.788C425.047 587.054 419.347 574.365 425.099 559.748C431.842 542.609 446.043 532.925 462.038 525.588C467.629 523.023 469.379 527.553 470.717 531.596C472.149 535.924 475.128 540.908 467.979 543.243C460.813 545.583 454.055 548.898 448.918 554.331C444.638 558.859 439.036 563.911 445.813 571.435Z" fill="url(#paint10_linear_425_968)"/>
<path d="M576.408 513.762C583.654 519.258 583.688 523.638 577.11 529.632C564.811 540.838 553.414 553.03 541.461 564.625C538.989 567.023 537.072 571.971 532.119 568.873C527.762 566.148 524.344 563.134 524.893 556.802C526.045 543.498 526.283 530.116 526.967 516.769C527.216 511.921 526.326 507.223 524.747 502.754C521.893 494.677 514.788 492.452 507.64 497.229C502.493 500.668 499.367 505.572 497.677 511.543C494.223 523.75 493.756 524.008 479.635 523.603C477.015 508.672 482.647 496.604 492.655 486.073C501.668 476.588 512.541 471.995 525.679 475.331C536.474 478.071 543.79 488.721 544.1 501.995C544.357 512.956 544.153 523.927 544.153 536.039C552.135 528.495 559.307 521.751 566.437 514.962C569.269 512.266 571.899 508.85 576.408 513.762Z" fill="url(#paint11_linear_425_968)"/>
<path d="M702.441 289.164C707.602 289.225 713.644 284.756 715.24 293.155C717.122 303.056 715.18 305.883 705.388 307.741C689.642 310.728 679.47 324.236 681.819 339.037C684.317 354.777 699.113 365.343 715.23 362.188C727.756 359.737 734.221 350.817 736.895 338.918C737.786 334.954 738.515 331.786 743.535 331.002C752.836 329.548 755.607 331.92 754.389 341.348C751.37 364.726 731.76 382.365 708.158 382.932C687.066 383.439 666.115 365.877 662.795 344.908C659.206 322.237 673.587 298.113 694.856 291.179C697.11 290.444 699.427 289.899 702.441 289.164Z" fill="url(#paint12_linear_425_968)"/>
<path d="M585.354 449.569C595.285 459.42 604.516 469.102 614.358 478.117C620.343 483.598 621.26 487.844 614.021 492.636C611.599 494.239 609.575 496.444 607.155 498.562C590.447 481.984 574.087 465.752 557.626 449.419C550.259 452.649 546.189 458.699 541.115 463.472C537.577 466.8 534.724 467.273 531.501 463.31C528.608 459.753 523.701 456.741 528.96 451.477C544.274 436.149 559.554 420.788 574.919 405.513C580.032 400.43 583.323 405.064 586.915 408.022C590.864 411.274 590.574 414.422 586.852 417.556C581.182 422.328 575.489 427.071 570.074 431.601C574.659 440.245 580.436 444.125 585.354 449.569Z" fill="url(#paint13_linear_425_968)"/>
<path d="M244.238 839.696C249.077 834.832 253.658 830.583 257.817 825.956C261.613 821.732 264.841 821.459 268.885 825.67C272.62 829.559 276 832.719 270.59 838.049C257.914 850.539 245.528 863.326 233.073 876.04C229.821 879.359 227.07 878.815 224.058 875.633C206.725 857.321 189.444 838.957 171.871 820.877C165.483 814.305 171.251 811.25 174.76 807.131C178.461 802.786 181.915 801.382 186.473 806.192C198.102 818.464 209.946 830.532 221.687 842.699C231.348 852.71 231.337 852.721 241.303 842.688C242.139 841.846 242.965 840.994 244.238 839.696Z" fill="url(#paint14_linear_425_968)"/>
<path d="M385.31 907.415C384.443 918.965 379.124 925.608 370.067 927.239C361.309 928.815 353.367 924.828 349.384 916.854C345.496 909.07 347.144 900.514 355.112 893.761C359.473 890.066 359.72 885.899 359.712 881.097C359.657 846.643 359.857 812.186 359.452 777.736C359.35 769.076 362.969 763.909 369.963 760.058C373.88 763.048 372.431 766.918 372.449 770.223C372.64 806.755 372.751 843.289 372.681 879.822C372.67 886.032 373.246 891.293 379.095 895.206C382.802 897.684 384.681 902.054 385.31 907.415ZM369.337 913.729C372.964 911.422 374.064 908.412 371.266 904.87C369.499 902.632 366.921 901.734 364.135 903.038C361.469 904.285 360.011 906.555 360.546 909.49C361.323 913.763 364.017 915.403 369.337 913.729Z" fill="url(#paint15_linear_425_968)"/>
<path d="M462.916 887.462C462.929 872.904 462.85 859.237 463.008 845.574C463.059 841.147 461.9 837.954 458.335 834.801C449.521 827.005 449.286 814.009 457.141 806.307C464.331 799.255 476.559 799.421 483.669 806.667C491.398 814.543 490.723 827.292 481.28 834.833C476.579 838.587 475.902 842.765 475.921 848C476.034 880.084 476.016 912.168 476.039 944.253C476.041 946.629 476.088 949.008 476.002 951.382C475.83 956.125 476.486 961.335 469.051 961.126C462.099 960.93 462.938 956.023 462.93 951.632C462.891 930.539 462.915 909.447 462.916 887.462ZM471.98 814.456C467.787 813.178 465.087 814.775 464.136 818.928C463.554 821.467 464.864 823.41 467.075 824.766C469.404 826.195 471.638 825.977 473.456 824.093C476.418 821.023 476.321 817.903 471.98 814.456Z" fill="url(#paint16_linear_425_968)"/>
<path d="M305.075 609.43C293.164 618.982 281.246 618.119 274.703 607.817C270.132 600.621 270.954 590.851 276.648 584.677C282.519 578.312 292.138 576.051 299.31 581.337C306.51 586.645 310.49 584.374 315.675 578.865C330.741 562.858 346.345 547.359 361.493 531.428C365.906 526.788 370.597 524.374 377.126 524.727C385.423 525.176 393.76 524.933 402.08 524.926C406.463 524.923 408.547 526.901 408.611 531.401C408.676 535.979 406.514 537.888 402.157 537.873C395.323 537.848 388.463 538.23 381.662 537.752C374.837 537.273 370.031 539.663 365.338 544.668C350.3 560.701 335.059 576.574 319.237 591.825C313.828 597.039 307.186 600.823 305.075 609.43ZM295.238 601.036C297.848 597.146 296.21 594.321 292.681 592.449C290.247 591.157 287.537 591.265 285.493 593.563C283.798 595.469 283.219 597.806 284.615 600.01C287.091 603.92 290.476 604.415 295.238 601.036Z" fill="url(#paint17_linear_425_968)"/>
<path d="M437.992 756.855C428.281 766.508 419.325 776.058 409.638 784.798C403.372 790.452 400.192 796.548 401.203 805.028C401.691 809.116 401.217 813.328 401.08 817.48C400.969 820.851 399.571 823.185 395.808 823.318C392.208 823.446 388.611 822.509 388.632 818.454C388.708 804.184 384.453 789.958 398.583 777.633C420.231 758.751 439.561 737.222 460.065 717.009C464.601 712.536 466.951 707.859 466.612 701.33C466.134 692.152 466.975 682.894 466.318 673.738C465.681 664.85 470.241 660.174 476.925 656.467C480.352 658.515 479.584 661.45 479.593 663.97C479.647 678.219 479.475 692.47 479.578 706.719C479.614 711.757 478.196 715.91 474.598 719.537C462.475 731.758 450.481 744.108 437.992 756.855Z" fill="url(#paint18_linear_425_968)"/>
<path d="M297.125 569.134C285.314 562.79 281.452 554.273 285.249 544.121C288.571 535.241 297.781 530.871 308.858 533.931C313.662 535.259 316.688 534.231 319.855 530.922C327.855 522.562 336.135 514.469 344.064 506.044C348.204 501.646 352.784 499.534 358.961 499.696C372.603 500.054 386.26 499.876 399.911 499.875C404.789 499.875 408.827 500.463 408.527 507.003C408.233 513.404 403.732 512.78 399.641 512.803C387.177 512.871 374.711 512.932 362.25 512.742C357.159 512.664 353.224 514.137 349.715 518.021C343.952 524.401 337.665 530.304 331.663 536.471C326.159 542.127 320.632 547.04 320.385 556.539C320.14 565.944 309.288 571.129 297.125 569.134ZM300.57 556.974C304.689 557.279 307.54 555.85 307.696 551.313C307.786 548.72 306.386 546.877 303.901 545.993C301.401 545.103 299.085 545.69 297.621 547.774C295.267 551.127 295.291 554.328 300.57 556.974Z" fill="url(#paint19_linear_425_968)"/>
<path d="M350.285 816.884C351.081 824.319 348.702 830.076 343.399 833.975C338.157 837.829 337.143 842.632 337.185 848.648C337.372 875.065 337.254 901.484 337.186 927.902C337.177 931.394 337.807 935.025 335.817 938.497C328.04 939.472 325.203 936.032 325.259 928.44C325.457 901.43 325.229 874.417 325.36 847.406C325.386 842.09 324.585 837.887 319.92 834.268C313.545 829.323 311.1 822.357 314.064 814.419C316.809 807.068 326.612 800.264 333.292 800.612C341.805 801.056 347.314 806.159 350.285 816.884ZM327.403 824.098C331.044 826.735 334.082 825.793 336.471 822.353C338.322 819.689 337.321 817.225 335.224 815.23C333.131 813.239 330.566 812.423 327.978 814.169C324.375 816.599 323.915 819.731 327.403 824.098Z" fill="url(#paint20_linear_425_968)"/>
<path d="M408.905 906.515C409.151 915.711 408.665 923.554 401.204 929.731C396.07 933.981 398.372 940.838 398.006 946.639C397.766 950.447 398.5 954.858 392.631 954.918C386.939 954.977 385.952 951.306 386.002 946.603C386.114 936.053 384.526 925.522 394.427 917.227C399.737 912.777 397.193 900.632 391.449 895.015C381.582 885.364 381.713 870.911 391.729 864.264C400.225 858.625 410.9 860.203 417.308 868.045C423.374 875.467 423.085 886.147 415.862 893.037C412.019 896.703 408.949 900.254 408.905 906.515ZM403.076 874.046C399.163 873.856 396.696 875.866 396.533 879.588C396.407 882.457 398.558 884.419 401.448 885.029C404.345 885.641 406.913 884.712 408.144 882.005C409.924 878.09 407.281 876.046 403.076 874.046Z" fill="url(#paint21_linear_425_968)"/>
<path d="M313.073 494.645C325.077 477.245 340.978 473.16 360.734 475.811C373.523 477.527 386.796 475.584 399.854 475.367C404.814 475.284 409.843 475.448 409.583 482.497C409.328 489.438 404.016 488.221 399.756 488.239C381.935 488.313 364.105 488.554 346.295 488.095C339.076 487.909 333.763 490.283 329.098 495.461C325.327 499.646 320.983 503.312 317.194 507.481C307.27 518.403 295.305 514.381 283.15 513.421C283.656 505.266 286.893 501.219 294.331 501.837C301.552 502.437 307.909 501.139 313.073 494.645Z" fill="url(#paint22_linear_425_968)"/>
<path d="M399.247 392.984C392.459 386.25 387.321 379.46 376.253 379.522C366.165 379.579 359.519 368.052 361.279 358.076C363.104 347.734 372.264 341.22 382.8 342.77C393.126 344.29 401.538 354.405 398.922 364.524C396.882 372.417 400.013 376.787 404.878 381.534C410.605 387.121 416.089 392.958 421.649 398.716C424.197 401.356 425.314 404.026 422.088 407.114C419.169 409.907 416.331 409.988 413.524 407.261C408.847 402.719 404.295 398.05 399.247 392.984ZM381.362 355.411C376.847 354.445 374.602 357.179 373.705 360.844C373.002 363.715 374.907 366.028 377.568 367.101C380.335 368.217 382.925 367.318 384.597 364.878C387.101 361.224 386.055 358.212 381.362 355.411Z" fill="url(#paint23_linear_425_968)"/>
<path d="M352.228 420.399C345.498 410.814 345.172 402.512 350.767 395.465C355.903 388.997 365.532 386.644 373.315 389.955C381.314 393.358 385.703 402.154 384.325 412.025C383.082 420.931 387.312 426.006 396.36 426.395C399.318 426.522 402.282 426.492 405.242 426.589C408.979 426.712 410.307 428.893 410.348 432.397C410.389 435.874 409.271 438.281 405.415 438.226C395.071 438.078 383.769 441.314 376.683 429.729C374.677 426.448 371.174 425.514 367.325 425.904C361.722 426.47 356.768 424.978 352.228 420.399ZM369.226 412.068C372.56 409.111 372.558 405.899 369.602 402.807C367.466 400.572 364.825 400.606 362.299 402.288C359.859 403.912 358.307 406.281 359.546 409.106C361.151 412.765 363.969 414.676 369.226 412.068Z" fill="url(#paint24_linear_425_968)"/>
<path d="M289.403 866.426C292.924 858.802 291.274 851.311 291.2 844.038C291.12 836.272 295.171 832.436 303.306 827.793C303.306 839.36 303.357 848.943 303.282 858.524C303.25 862.504 303.874 865.622 307.496 868.481C317.564 876.429 318.627 889.705 310.45 897.83C302.839 905.394 290.613 905.19 283.449 897.378C275.734 888.965 277.531 875.713 287.452 867.923C287.916 867.558 288.431 867.258 289.403 866.426ZM302.177 888.128C304.73 884.754 303.73 881.906 300.509 879.892C297.795 878.193 294.743 878.218 292.349 880.626C290.208 882.779 290.07 885.619 291.851 887.926C294.444 891.288 297.818 891.299 302.177 888.128Z" fill="url(#paint25_linear_425_968)"/>
<path d="M361.821 446.785C365.272 450.574 368.948 451.74 373.419 451.643C383.202 451.432 392.994 451.643 402.781 451.583C407.406 451.555 410.062 453.265 410.042 458.312C410.023 463.353 406.563 464.113 402.862 464.18C391.299 464.389 379.732 464.392 368.166 464.441C363.74 464.459 360.201 462.482 357.166 459.394C347.811 449.874 338.498 440.313 329.042 430.895C325.557 427.424 324.513 424.092 328.149 420.158C332.512 415.436 335.125 419.913 337.574 422.289C345.657 430.135 353.442 438.289 361.821 446.785Z" fill="url(#paint26_linear_425_968)"/>
<path d="M258.386 636.739C268.611 624.199 279.903 623.737 290.142 635.312C292.889 638.417 295.83 639.05 299.495 639.259C303.81 639.506 308.345 638.155 313.11 640.939C309.601 646.703 306.323 652.115 298.672 652.081C295.104 652.065 292.768 653.619 290.382 656.295C282.75 664.859 273.938 666.729 265.812 662.078C257.427 657.279 254.54 648.094 258.386 636.739ZM278.428 650.258C281.272 647.138 281.492 643.991 278.12 641.202C276.189 639.604 273.79 639.438 271.582 640.784C269.301 642.173 268.715 644.449 269.288 646.886C270.334 651.33 273.412 652.074 278.428 650.258Z" fill="url(#paint27_linear_425_968)"/>
<path d="M451.689 169.953C442.533 182.068 432.042 184.143 422.415 176.331C414.7 170.071 413.697 158.196 420.183 149.906C425.54 143.058 434.639 140.845 442.595 144.453C451.693 148.58 454.817 156.827 451.689 169.953ZM437.676 167.007C440.496 164.836 442.302 162.319 439.805 158.849C437.858 156.143 435.019 155.584 431.973 156.508C428.952 157.424 427.825 159.832 428.515 162.701C429.505 166.81 432.444 168.239 437.676 167.007Z" fill="url(#paint28_linear_425_968)"/>
<path d="M347.762 597.239C349.526 600.384 351.948 602.186 354.805 602.953L306.48 649.374C304.688 651.095 301.84 651.038 300.118 649.246C298.396 647.454 298.454 644.605 300.246 642.883L347.762 597.239Z" fill="url(#paint29_linear_425_968)"/>
<path d="M496.755 454.118C498.547 452.397 501.396 452.454 503.118 454.246C504.84 456.038 504.782 458.887 502.99 460.608L370.687 587.696C370.035 585.491 368.898 583.194 367.235 580.907C366.728 580.568 366.224 580.261 365.726 579.982L496.755 454.118Z" fill="url(#paint30_linear_425_968)"/>
<path fill-rule="evenodd" clip-rule="evenodd" d="M349.825 582.394C354.729 577.281 360.541 576.427 367.235 580.907C374.667 591.128 371.647 601.54 361.346 603.155C355.611 604.054 350.688 602.559 347.697 597.125C344.725 591.725 345.799 586.591 349.825 582.394ZM362.213 586.26C359.309 584.319 356.788 584.689 354.66 586.903C352.913 588.721 352.446 590.944 353.736 593.283C355.034 595.637 357.17 596.284 359.659 595.894C364.128 595.195 365.438 590.686 362.213 586.26Z" fill="url(#paint31_linear_425_968)"/>
<path d="M468.753 983.332C417.754 981.794 368.224 977.118 320.923 958.593C287.576 945.533 261.275 924.551 243.325 893.262C239.967 887.408 240 883.734 245.059 878.714C292.576 831.554 339.782 784.081 387.188 736.809C391.531 732.479 393.63 728.889 391.282 722.135C386.29 707.769 400.377 692.944 415.671 696.643C423.048 698.427 427.044 696.117 431.803 691.324C504.138 618.47 576.607 545.748 649.103 473.054C655.759 466.38 662.816 460.108 669.313 454C673.054 455.043 673.583 457.598 674.345 459.724C683.129 484.205 689.606 509.213 688.716 535.448C688.45 543.271 691.131 548.803 695.812 554.68C725.692 592.191 748.212 633.518 756.677 681.191C765.879 733.018 759.377 783.076 735.861 830.449C732.069 838.087 732.011 842.201 740.836 845.835C750.99 850.017 760.152 856.405 768.627 863.499C799.138 889.038 797.983 923.254 765.892 946.857C743.946 962.999 718.698 970.466 692.216 974.211C650.668 980.088 608.906 983.417 566.91 983.376C534.488 983.344 502.067 983.348 468.753 983.332ZM632.874 956.4C655.363 954.378 677.944 953.066 700.079 948.195C720.249 943.757 740.06 938.21 755.982 924.114C771.437 910.431 771.199 896.136 755.451 882.746C744.251 873.224 731.399 866.323 717.813 860.81C696.307 852.085 695.986 851.924 707.978 832.695C733.89 791.144 740.324 745.386 735.428 697.983C731.091 655.988 715.091 617.234 688.648 584.766C671.506 563.719 661.909 543.044 664.14 515.889C665.013 505.265 661.977 493.885 656.065 483.391C653.885 485.262 652.468 486.324 651.229 487.563C605.551 533.222 559.926 578.934 514.164 624.508C509.935 628.719 508.688 633.369 509.02 639.002C511.351 678.541 508.691 718.095 509.406 757.664C510.54 820.444 509.845 883.257 509.986 946.056C509.996 950.461 509.339 954.976 511.55 960.44C551.264 961.217 591.251 958.894 632.874 956.4ZM466.318 685.897C466.318 682.172 466.318 678.447 466.318 673.37C454.631 684.836 444.273 694.985 433.933 705.154C431.735 707.315 432.202 709.823 432.647 712.61C434.74 725.745 426.026 738.361 412.89 737.499C402.896 736.843 398.349 741.86 392.872 747.559C387.717 752.922 382.696 758.443 377.212 763.452C372.168 768.059 370.545 773.361 370.608 780.103C370.914 812.536 370.931 844.974 370.775 877.409C370.737 885.338 371.263 891.87 378.328 897.838C386.454 904.703 384.993 916.844 377.127 923.948C369.644 930.706 358.372 930.42 351.35 923.294C343.992 915.826 343.318 903.51 351.484 897.073C358.185 891.791 359.067 885.51 359.087 878.293C359.168 848.237 359.196 818.182 359.176 788.126C359.175 786.558 360.045 784.486 357.274 783.385C351.091 789.375 344.051 794.738 339.024 802.268C340.141 803.63 340.846 804.556 341.618 805.422C352.299 817.398 351.796 826.531 339.293 837.081C335.707 840.106 335.657 843.74 335.638 847.508C335.492 875.48 335.577 903.453 335.346 931.424C335.299 937.091 337.45 940.483 342.834 941.887C353.465 944.659 364.205 947.07 374.707 950.263C383.144 952.829 385.221 949.632 384.78 941.764C384.404 935.058 383.646 928.159 388.967 922.342C397.977 912.494 397.506 904.251 387.954 894.287C380.597 886.614 380.359 873.916 387.44 866.866C394.841 859.496 407.476 859.872 414.682 867.675C421.712 875.289 421.475 888.164 413.025 894.735C407.759 898.831 406.552 903.255 406.707 909.252C406.84 914.447 408.509 920.537 403.541 924.338C395.694 930.34 396.036 938.417 396.213 946.893C396.324 952.201 398.864 954.638 403.605 955.052C419.887 956.474 436.202 957.535 452.47 959.091C459.958 959.807 461.531 956.253 461.489 949.686C461.267 915.168 461.275 880.648 461.339 846.129C461.347 841.66 460.124 838.569 456.499 835.465C447.226 827.524 446.76 814.856 454.74 807.053C461.97 799.984 473.972 800.152 481.367 807.425C488.833 814.768 488.296 827.492 479.378 835.124C475.201 838.699 474.072 842.495 474.083 847.509C474.155 881.432 474.214 915.357 473.992 949.279C473.948 956.111 475.458 959.742 483.329 959.72C491.572 959.696 491.322 954.847 491.318 949.146C491.268 884.868 491.306 820.591 491.255 756.314C491.253 753.79 492.206 750.924 489.684 748.72C487.069 749.037 485.682 751.104 484.034 752.737C470.927 765.72 457.964 778.854 444.678 791.653C440.244 795.925 438.543 800.553 438.579 806.652C438.762 837.598 438.693 868.548 438.511 899.495C438.471 906.242 439.125 911.619 445.349 916.47C453.386 922.733 452.837 935.995 445.783 942.776C438.671 949.613 425.659 949.643 418.985 942.837C411.727 935.437 411.504 922.002 419.727 915.718C425.14 911.582 425.914 906.944 425.91 901.112C425.885 869.291 426.154 837.47 425.901 805.652C425.838 797.642 428.034 791.502 433.923 785.886C451.578 769.051 468.74 751.701 486.284 734.748C489.78 731.369 491.385 727.836 491.355 723.005C491.216 700.688 491.323 678.369 491.261 656.05C491.256 654.167 492.086 651.783 489.254 650.588C481.375 655.376 477.2 661.698 477.933 671.685C478.758 682.931 477.817 694.296 478.182 705.591C478.381 711.754 476.342 716.248 471.983 720.535C452.465 739.732 433.702 759.727 413.632 778.318C403.283 787.904 396.639 797.69 399.067 812.177C399.403 814.178 398.995 816.335 398.748 818.398C398.354 821.684 396.929 823.954 393.125 824.003C388.965 824.056 387.086 821.733 386.896 818.004C386.624 812.66 386.821 807.294 386.597 801.947C386.228 793.14 388.986 786.288 395.778 779.941C414.248 762.678 431.301 743.865 450.167 727.073C462.577 716.027 469.256 704.123 466.318 685.897ZM323.614 892.558C323.603 879.763 322.771 866.899 323.827 854.192C324.757 843.012 321.073 835.464 311.387 830.443C298.541 839.153 296.837 860.92 308.199 871.177C315.742 877.987 316.016 890.92 308.778 898.513C301.663 905.977 289.587 905.993 282.412 898.549C274.946 890.804 274.598 877.61 283.037 871.618C290.412 866.382 290.117 860.386 288.928 852.833C284.353 854.742 282.013 858.301 279.143 861.156C259.968 880.23 259.932 880.312 277.068 901.467C289.078 916.295 304.37 926.444 321.968 933.314C322.761 931.93 323.292 931.434 323.298 930.931C323.437 918.736 323.52 906.54 323.614 892.558ZM419.206 712.213C415.942 708.411 412.029 706.994 407.53 709.742C403.525 712.19 402.189 716.123 403.826 720.435C405.563 725.006 409.587 726.215 414 725.119C420.265 723.563 421.221 719.003 419.206 712.213ZM289.141 887.905C291.037 891.483 293.665 893.606 297.754 891.405C300.887 889.719 302.724 886.964 301.683 883.266C300.779 880.055 298.187 878.121 294.994 878.433C290.336 878.887 288.531 882.131 289.141 887.905ZM460.943 820.943C462.109 825.787 465.167 827.879 469.996 826.641C473.169 825.828 474.875 823.264 474.747 820.088C474.615 816.827 472.39 814.739 469.286 814.043C464.648 813.005 462.157 815.477 460.943 820.943ZM326.349 814.515C321.301 818.847 321.322 823.024 327.163 826.412C329.538 827.79 332.395 827.41 334.58 825.389C336.418 823.689 337.467 821.418 336.598 819.008C335.09 814.824 331.89 813.186 326.349 814.515ZM396.522 875.577C393.967 878.296 393.429 881.379 395.539 884.466C397.397 887.185 400.248 888.189 403.367 886.895C406.443 885.619 408.056 882.998 407.226 879.72C405.946 874.667 402.382 873.392 396.522 875.577ZM427.487 924.494C424.38 927.843 423.992 931.256 427.647 934.384C430.186 936.556 433.102 936.304 435.792 934.557C438.22 932.979 439.595 930.666 438.317 927.811C436.381 923.489 433.247 921.441 427.487 924.494ZM359.072 906.583C357.701 910.671 357.734 914.4 362.578 915.986C365.633 916.986 368.421 916.063 370.375 913.265C372.226 910.613 371.539 908.031 369.702 905.916C366.691 902.449 363.258 901.926 359.072 906.583Z" fill="url(#paint32_linear_425_968)"/>
<defs>
<linearGradient id="paint0_linear_425_968" x1="515.879" y1="454" x2="515.879" y2="983.376" gradientUnits="userSpaceOnUse">
<stop stop-color="#1D968B"/>
<stop offset="1" stop-color="#124E49"/>
</linearGradient>
<linearGradient id="paint1_linear_425_968" x1="515.879" y1="454" x2="515.879" y2="983.376" gradientUnits="userSpaceOnUse">
<stop stop-color="#1D968B"/>
<stop offset="1" stop-color="#124E49"/>
</linearGradient>
<linearGradient id="paint2_linear_425_968" x1="515.879" y1="454" x2="515.879" y2="983.376" gradientUnits="userSpaceOnUse">
<stop stop-color="#1D968B"/>
<stop offset="1" stop-color="#124E49"/>
</linearGradient>
<linearGradient id="paint3_linear_425_968" x1="515.879" y1="454" x2="515.879" y2="983.376" gradientUnits="userSpaceOnUse">
<stop stop-color="#1D968B"/>
<stop offset="1" stop-color="#124E49"/>
</linearGradient>
<linearGradient id="paint4_linear_425_968" x1="515.879" y1="454" x2="515.879" y2="983.376" gradientUnits="userSpaceOnUse">
<stop stop-color="#1D968B"/>
<stop offset="1" stop-color="#124E49"/>
</linearGradient>
<linearGradient id="paint5_linear_425_968" x1="515.879" y1="454" x2="515.879" y2="983.376" gradientUnits="userSpaceOnUse">
<stop stop-color="#1D968B"/>
<stop offset="1" stop-color="#124E49"/>
</linearGradient>
<linearGradient id="paint6_linear_425_968" x1="515.879" y1="454" x2="515.879" y2="983.376" gradientUnits="userSpaceOnUse">
<stop stop-color="#1D968B"/>
<stop offset="1" stop-color="#124E49"/>
</linearGradient>
<linearGradient id="paint7_linear_425_968" x1="515.879" y1="454" x2="515.879" y2="983.376" gradientUnits="userSpaceOnUse">
<stop stop-color="#1D968B"/>
<stop offset="1" stop-color="#124E49"/>
</linearGradient>
<linearGradient id="paint8_linear_425_968" x1="515.879" y1="454" x2="515.879" y2="983.376" gradientUnits="userSpaceOnUse">
<stop stop-color="#1D968B"/>
<stop offset="1" stop-color="#124E49"/>
</linearGradient>
<linearGradient id="paint9_linear_425_968" x1="515.879" y1="454" x2="515.879" y2="983.376" gradientUnits="userSpaceOnUse">
<stop stop-color="#1D968B"/>
<stop offset="1" stop-color="#124E49"/>
</linearGradient>
<linearGradient id="paint10_linear_425_968" x1="515.879" y1="454" x2="515.879" y2="983.376" gradientUnits="userSpaceOnUse">
<stop stop-color="#1D968B"/>
<stop offset="1" stop-color="#124E49"/>
</linearGradient>
<linearGradient id="paint11_linear_425_968" x1="515.879" y1="454" x2="515.879" y2="983.376" gradientUnits="userSpaceOnUse">
<stop stop-color="#1D968B"/>
<stop offset="1" stop-color="#124E49"/>
</linearGradient>
<linearGradient id="paint12_linear_425_968" x1="515.879" y1="454" x2="515.879" y2="983.376" gradientUnits="userSpaceOnUse">
<stop stop-color="#1D968B"/>
<stop offset="1" stop-color="#124E49"/>
</linearGradient>
<linearGradient id="paint13_linear_425_968" x1="515.879" y1="454" x2="515.879" y2="983.376" gradientUnits="userSpaceOnUse">
<stop stop-color="#1D968B"/>
<stop offset="1" stop-color="#124E49"/>
</linearGradient>
<linearGradient id="paint14_linear_425_968" x1="515.879" y1="454" x2="515.879" y2="983.376" gradientUnits="userSpaceOnUse">
<stop stop-color="#1D968B"/>
<stop offset="1" stop-color="#124E49"/>
</linearGradient>
<linearGradient id="paint15_linear_425_968" x1="515.879" y1="454" x2="515.879" y2="983.376" gradientUnits="userSpaceOnUse">
<stop stop-color="#1D968B"/>
<stop offset="1" stop-color="#124E49"/>
</linearGradient>
<linearGradient id="paint16_linear_425_968" x1="515.879" y1="454" x2="515.879" y2="983.376" gradientUnits="userSpaceOnUse">
<stop stop-color="#1D968B"/>
<stop offset="1" stop-color="#124E49"/>
</linearGradient>
<linearGradient id="paint17_linear_425_968" x1="515.879" y1="454" x2="515.879" y2="983.376" gradientUnits="userSpaceOnUse">
<stop stop-color="#1D968B"/>
<stop offset="1" stop-color="#124E49"/>
</linearGradient>
<linearGradient id="paint18_linear_425_968" x1="515.879" y1="454" x2="515.879" y2="983.376" gradientUnits="userSpaceOnUse">
<stop stop-color="#1D968B"/>
<stop offset="1" stop-color="#124E49"/>
</linearGradient>
<linearGradient id="paint19_linear_425_968" x1="515.879" y1="454" x2="515.879" y2="983.376" gradientUnits="userSpaceOnUse">
<stop stop-color="#1D968B"/>
<stop offset="1" stop-color="#124E49"/>
</linearGradient>
<linearGradient id="paint20_linear_425_968" x1="515.879" y1="454" x2="515.879" y2="983.376" gradientUnits="userSpaceOnUse">
<stop stop-color="#1D968B"/>
<stop offset="1" stop-color="#124E49"/>
</linearGradient>
<linearGradient id="paint21_linear_425_968" x1="515.879" y1="454" x2="515.879" y2="983.376" gradientUnits="userSpaceOnUse">
<stop stop-color="#1D968B"/>
<stop offset="1" stop-color="#124E49"/>
</linearGradient>
<linearGradient id="paint22_linear_425_968" x1="515.879" y1="454" x2="515.879" y2="983.376" gradientUnits="userSpaceOnUse">
<stop stop-color="#1D968B"/>
<stop offset="1" stop-color="#124E49"/>
</linearGradient>
<linearGradient id="paint23_linear_425_968" x1="515.879" y1="454" x2="515.879" y2="983.376" gradientUnits="userSpaceOnUse">
<stop stop-color="#1D968B"/>
<stop offset="1" stop-color="#124E49"/>
</linearGradient>
<linearGradient id="paint24_linear_425_968" x1="515.879" y1="454" x2="515.879" y2="983.376" gradientUnits="userSpaceOnUse">
<stop stop-color="#1D968B"/>
<stop offset="1" stop-color="#124E49"/>
</linearGradient>
<linearGradient id="paint25_linear_425_968" x1="515.879" y1="454" x2="515.879" y2="983.376" gradientUnits="userSpaceOnUse">
<stop stop-color="#1D968B"/>
<stop offset="1" stop-color="#124E49"/>
</linearGradient>
<linearGradient id="paint26_linear_425_968" x1="515.879" y1="454" x2="515.879" y2="983.376" gradientUnits="userSpaceOnUse">
<stop stop-color="#1D968B"/>
<stop offset="1" stop-color="#124E49"/>
</linearGradient>
<linearGradient id="paint27_linear_425_968" x1="515.879" y1="454" x2="515.879" y2="983.376" gradientUnits="userSpaceOnUse">
<stop stop-color="#1D968B"/>
<stop offset="1" stop-color="#124E49"/>
</linearGradient>
<linearGradient id="paint28_linear_425_968" x1="515.879" y1="454" x2="515.879" y2="983.376" gradientUnits="userSpaceOnUse">
<stop stop-color="#1D968B"/>
<stop offset="1" stop-color="#124E49"/>
</linearGradient>
<linearGradient id="paint29_linear_425_968" x1="515.879" y1="454" x2="515.879" y2="983.376" gradientUnits="userSpaceOnUse">
<stop stop-color="#1D968B"/>
<stop offset="1" stop-color="#124E49"/>
</linearGradient>
<linearGradient id="paint30_linear_425_968" x1="515.879" y1="454" x2="515.879" y2="983.376" gradientUnits="userSpaceOnUse">
<stop stop-color="#1D968B"/>
<stop offset="1" stop-color="#124E49"/>
</linearGradient>
<linearGradient id="paint31_linear_425_968" x1="515.879" y1="454" x2="515.879" y2="983.376" gradientUnits="userSpaceOnUse">
<stop stop-color="#1D968B"/>
<stop offset="1" stop-color="#124E49"/>
</linearGradient>
<linearGradient id="paint32_linear_425_968" x1="515.879" y1="454" x2="515.879" y2="983.376" gradientUnits="userSpaceOnUse">
<stop stop-color="#1D968B"/>
<stop offset="1" stop-color="#124E49"/>
</linearGradient>
</defs>
</svg>
