<svg width="1200" height="1200" viewBox="0 0 1200 1200" fill="none" xmlns="http://www.w3.org/2000/svg">
<rect width="1200" height="1200" rx="53" fill="#0F2027"/>
<path d="M603.328 183.931C599.461 184.864 597.461 186.864 594.261 192.864C591.861 197.397 591.461 200.597 591.461 212.331C591.461 228.464 593.594 239.264 602.128 266.064C605.461 276.331 607.994 286.997 607.994 290.331C607.994 293.531 605.861 304.731 603.194 315.264C597.328 339.264 595.994 358.331 599.194 375.131C600.394 381.397 600.928 388.464 600.528 390.597C600.128 392.864 594.261 401.531 587.594 410.064C580.794 418.597 573.461 428.064 571.328 431.264C566.661 437.797 557.461 443.397 537.994 451.664C496.928 468.997 470.661 486.997 439.328 519.131C422.794 536.064 411.594 549.931 401.061 566.464C378.794 601.131 364.128 635.664 353.861 676.997C345.861 709.397 343.728 727.397 343.061 767.931C342.128 815.264 344.261 839.797 352.128 874.597L352.656 876.91C354.084 883.169 352.453 889.735 348.261 894.597V894.597C326.794 919.531 313.194 948.331 315.194 964.731C318.394 991.931 361.861 1012.06 423.328 1014.6C455.728 1015.93 556.828 1019 556.828 1007.66C556.828 997.397 553.528 988.931 524.328 980.664C502.861 974.664 410.261 970.864 404.394 965.264C399.461 960.597 398.528 953.797 402.128 948.597C404.928 944.597 408.128 944.864 419.461 950.331C439.728 960.197 431.194 959.664 587.328 959.664C721.594 959.664 727.594 959.531 733.994 957.131C743.594 953.531 747.994 950.064 750.794 943.797C757.994 927.797 749.194 908.864 732.128 903.797C728.128 902.597 721.061 901.664 716.528 901.664V901.664C712.297 901.664 709.225 897.642 710.338 893.56L711.328 889.931C713.061 883.531 717.328 866.464 720.794 851.931C725.861 830.864 727.461 825.931 728.794 827.264C732.128 830.731 746.661 860.064 752.394 874.997C755.728 883.397 762.394 902.864 767.461 918.064C781.328 960.731 781.194 960.597 827.594 961.397C854.128 961.797 859.461 961.664 865.328 959.664C878.394 955.264 884.394 947.397 884.394 934.731C884.261 919.131 873.461 908.597 856.261 907.397C845.194 906.464 842.394 904.197 838.794 893.131C835.594 883.531 828.794 853.264 826.528 838.997C824.394 824.997 825.861 778.464 829.194 750.331C833.328 717.531 842.794 680.331 855.328 648.597C871.194 608.464 879.194 577.264 881.194 547.397C883.194 515.664 879.861 489.264 870.261 460.331C864.928 444.597 864.661 442.864 864.794 428.331C864.794 412.064 865.994 406.331 873.994 381.664C880.394 362.197 881.728 352.197 879.994 337.931C878.128 322.597 875.594 312.064 869.728 294.464C863.328 274.998 863.328 267.131 869.994 248.997C882.661 214.731 884.794 194.331 876.661 186.197C869.461 178.997 858.661 183.131 837.328 201.264C821.461 214.731 814.528 219.664 803.994 224.997V224.997C799.212 227.432 793.818 228.406 788.485 227.796L777.994 226.597C743.061 222.597 745.728 222.597 690.661 226.464V226.464C683.342 226.895 676.106 224.724 670.233 220.336L656.661 210.197C628.661 189.264 613.061 181.531 603.328 183.931Z" fill="#37949A"/>
<path fill-rule="evenodd" clip-rule="evenodd" d="M698.594 279.706C681.796 287.511 679.138 307.717 693.258 320.282V320.282C696.794 323.427 698.815 327.934 698.813 332.666L698.789 382.887L698.767 430.32C698.764 436.887 696.257 443.206 691.758 447.988V447.988C687.909 452.087 661.437 479.661 632.937 509.271L587.339 556.648C583.366 560.776 577.884 563.108 572.155 563.108V563.108C567.092 563.108 563.189 562.517 563.189 561.751C563.189 561.003 560.736 558.545 557.735 556.286C539.591 542.622 515.774 564.077 526.742 584.206C534.722 598.848 553.59 598.848 563.522 584.203V584.203C566.096 580.408 570.383 578.135 574.968 578.135H577.639V578.135C584.028 578.135 590.141 575.534 594.571 570.93L649.743 513.59C683.898 478.088 712.395 448.121 713.065 446.995C713.768 445.817 714.293 419.34 714.306 384.66L714.324 330.244C714.326 326.535 716.02 323.031 718.926 320.726V320.726C738.961 304.843 721.274 269.162 698.594 279.706ZM711.823 292.725C719.141 298.142 715.231 311.756 706.356 311.756C697.218 311.756 693.066 300.859 699.614 294.051C704.321 289.158 706.662 288.906 711.823 292.725ZM786.386 307.693C771.922 315.635 771.307 338.219 785.32 346.821V346.821C787.71 348.29 789.178 350.885 789.205 353.691L789.528 387.499C789.73 408.576 789.599 434.594 789.239 445.32V445.32C788.815 457.874 783.761 469.827 775.052 478.879L723.855 532.089L673.936 583.973C664.436 593.847 659.129 607.017 659.129 620.719V635.917V666.182C659.129 670.191 657.442 674.016 654.48 676.718V676.718C641.446 688.611 642.97 707.877 657.444 714.245C680.44 724.362 697.76 695.42 679.434 677.498V677.498C675.694 673.839 673.586 668.828 673.586 663.596V638.215V626.147C673.586 612.365 678.955 599.126 688.553 589.236L709.324 567.833C793.202 481.403 802.408 471.684 803.676 468.219C804.5 465.963 805.008 442.522 805.008 406.698V353.539C805.008 350.574 806.414 347.785 808.797 346.021V346.021C830.454 329.99 809.877 294.795 786.386 307.693ZM801.112 317.929C810.909 323.192 804.729 338.624 793.949 335.813C786.06 333.753 784.536 321.957 791.645 317.943C796.096 315.432 796.463 315.428 801.112 317.929ZM654.244 357.767C645.857 359.526 641.88 372.759 647.956 378.694C651.22 381.88 651.243 382.065 651.243 405.936V408.621C651.243 422.322 645.937 435.49 636.439 445.364L616.774 465.806L597.944 485.38C587.952 495.767 574.161 501.637 559.748 501.637H554.919C537.094 501.637 526.53 502.175 524.663 503.183C521.799 504.725 508.133 518.335 459.396 568.176L448.694 579.119C439.098 588.933 433.683 602.088 433.59 615.814L433.365 648.895L433.134 682.856C433.045 696.019 427.858 708.635 418.662 718.053V718.053C407.334 729.656 403.778 732.556 401.716 731.874C388.598 727.544 374.625 749.67 381.499 763.889C393.325 788.355 429.89 770.055 419.527 744.858V744.858C418.352 742.005 419.011 738.724 421.197 736.545L432.891 724.89V724.89C442.693 715.115 448.242 701.867 448.331 688.024L448.542 655.155L448.754 622.103C448.843 608.357 454.268 595.184 463.885 585.363L489.285 559.422L514.14 534.038C524.079 523.887 537.676 518.152 551.882 518.117L558.563 518.101L564.977 518.085C579.342 518.048 593.077 512.182 603.036 501.83L625.919 478.046L649.579 453.453C659.078 443.579 664.385 430.41 664.385 416.708V411.171C664.385 384.499 664.412 384.233 667.779 379.096C674.936 368.175 666.676 355.162 654.244 357.767ZM744.788 359.131C730.452 366.475 729.742 388.629 743.574 397.12V397.12C745.847 398.516 747.227 400.997 747.215 403.664L747.12 424.677L747.102 428.651C747.04 442.34 741.684 455.474 732.156 465.303L682.368 516.66L632.341 568.266C622.955 577.949 617.613 590.845 617.402 604.329L617.323 609.424L617.268 612.922C617.07 625.473 606.876 635.564 594.323 635.634V635.634C581.899 635.704 561.086 635.917 548.076 636.11C516.961 636.568 515.283 636.32 512.167 630.829C503.695 615.911 480.144 620.226 475.155 637.61C468.651 660.275 500.173 675.204 512.672 655.382V655.382C514.037 653.216 516.418 651.903 518.979 651.903H569.154H618.069C621.533 651.903 624.88 650.645 627.487 648.363V648.363V648.363C630.057 646.117 631.531 642.87 631.531 639.456V617.467V611.653C631.531 597.839 636.924 584.571 646.562 574.675L652.33 568.753C663.769 557.009 692.747 527.214 716.725 502.543L745.329 473.116C754.945 463.223 760.325 449.971 760.325 436.174V428.394V405.417C760.325 401.392 762.019 397.553 764.992 394.84V394.84C783.516 377.935 766.566 347.979 744.788 359.131ZM759.491 370.595C763.77 374.095 764.013 379.39 760.096 383.726C754.299 390.14 744.553 386.485 744.553 377.896C744.553 373.102 749.401 367.765 753.754 367.765C755.003 367.765 757.586 369.038 759.491 370.595ZM814.348 508.33C809.352 513.184 808.723 521.084 812.895 526.599C815.28 529.75 815.522 532.138 815.522 552.383V553.354C815.522 567.049 810.221 580.212 800.731 590.084L785.622 605.801L770.557 621.472C761.043 631.369 755.74 644.572 755.765 658.3L755.827 691.871C755.914 738.99 756.251 748.208 758.189 756.402C759.43 761.662 763.37 780.413 766.94 798.066C770.513 815.723 774.288 834.166 775.331 839.048C776.377 843.934 778.554 854.929 780.169 863.482C782.662 876.687 783.917 880.296 788.459 887.367C797.3 901.128 796.382 889.329 783.425 822.658C780.872 809.509 777.568 791.988 776.087 783.725C774.604 775.461 772.817 765.732 772.114 762.106C771.411 758.465 770.839 729.982 770.839 698.515V662.99C770.839 649.218 776.2 635.987 785.786 626.099L798.582 612.9C833.717 576.656 829.979 583.668 829.979 554.023C829.979 532.859 830.299 528.82 832.119 526.928C843.36 515.244 825.969 497.049 814.348 508.33ZM766.6 563.871C762.014 566.459 760.325 569.819 760.325 576.362C760.325 581.332 759.141 582.818 736.838 605.811C708.755 634.767 711.844 623.01 712.133 699.844C712.378 765.302 712.271 764.445 720.1 763.645C727.401 762.9 727.468 762.274 727.384 696.396L727.334 657.764C727.316 644.051 732.615 630.865 742.116 620.976L750.043 612.725C768.689 593.323 773.446 589.064 776.468 589.064C786.662 589.064 790.232 574.796 782.14 566.385C777.184 561.234 772.592 560.493 766.6 563.871ZM551.945 567.511C558.257 576.876 547.837 588.13 539.416 581.041C535.493 577.744 535.173 569.169 538.864 566.364C542.787 563.381 549.563 563.976 551.945 567.511ZM501.323 637.743C504.674 642.167 504.765 645.213 501.67 649.189C496.701 655.564 486.964 651.406 486.964 642.908C486.964 634.092 496.082 630.812 501.323 637.743ZM586.814 685.873V685.873C583.863 688.401 580.107 689.796 576.221 689.807L549.479 689.881L539.186 689.908C524.825 689.947 511.094 695.811 501.136 706.16L490.998 716.696L479.73 728.407C470.441 738.061 465.153 750.875 464.929 764.271L464.87 767.841L464.812 771.276C464.585 784.753 459.233 797.637 449.843 807.306L441.409 815.992C406.275 852.173 397.594 862.566 397.594 868.448C397.594 881.244 403.384 877.152 444.589 835.23L463.891 815.587C473.635 805.672 479.093 792.326 479.089 778.425L479.088 774.867L479.086 771.415C479.081 757.451 484.586 744.049 494.406 734.121L501.058 727.397L507.445 720.94C517.421 710.855 531.024 705.19 545.209 705.212L553.957 705.226C578.282 705.264 585.576 705.691 588.16 707.226C592.853 710.013 601.729 709.825 604.292 706.88C616.509 692.85 600.763 673.92 586.814 685.873ZM672.987 688.038C676.927 692.136 677.065 695.483 673.489 700.211C669.865 705.002 664.045 705.044 659.826 700.309C651.65 691.14 664.472 679.187 672.987 688.038ZM542.323 732.615C517.321 738.109 521.564 776.21 547.177 776.21C552.813 776.21 561.449 770.677 565.265 764.627V764.627C566.616 762.485 568.971 761.186 571.503 761.186H611.718H636.735C649.033 761.186 660.788 766.249 669.236 775.185V775.185V775.185C677.743 784.184 682.525 796.071 682.62 808.454L682.694 818.031L682.746 824.633C682.857 838.86 677.243 852.534 667.168 862.579L665.438 864.304C640.78 888.889 645.924 886.85 608.531 886.846L582.73 886.843C579.148 886.843 575.807 885.038 573.844 882.041V882.041C562.166 864.22 533.225 875.103 536.381 896.131C539.335 915.806 559.094 922.422 572.132 908.102V908.102C575.736 904.143 580.842 901.887 586.195 901.887H613.245H633.26C643.148 901.887 652.63 897.959 659.621 890.966V890.966C665.623 884.961 671.961 878.772 673.704 877.215C675.444 875.656 681.452 869.732 687.054 864.045V864.045C693.582 857.422 697.236 848.494 697.226 839.195L697.208 822.13C697.168 779.276 696.431 777.563 666.757 751.457V751.457C662.778 747.958 657.659 746.032 652.36 746.044L613.918 746.124L572.346 746.208C569.152 746.215 566.153 744.671 564.302 742.068V742.068C558.748 734.262 550.66 730.783 542.323 732.615ZM407.57 748.201C410.49 752.835 409.128 760.154 404.905 762.504C395.946 767.488 387.424 755.01 393.974 746.498C396.43 743.306 405.174 744.4 407.57 748.201ZM553.257 747.827C560.184 758.105 547.056 770.135 539.628 760.319C538.13 758.336 536.906 755.266 536.906 753.486C536.906 745.61 548.954 741.442 553.257 747.827ZM616.414 795.943C614.248 796.986 610.436 800.042 607.943 802.735V802.735C605.056 805.856 600.997 807.631 596.745 807.632L561.288 807.638L541.692 807.643C527.295 807.646 513.519 813.506 503.532 823.876L473.449 855.11C448.307 881.213 426.811 903.986 425.681 905.717C420.896 913.064 428.059 919.743 435.39 914.77C437.372 913.424 458.074 892.641 481.396 868.585C504.718 844.528 524.444 824.427 525.238 823.92C526.029 823.409 543.652 822.906 564.4 822.794L595 822.632C599.493 822.609 603.741 824.68 606.489 828.235V828.235C619.483 845.042 642.711 838.094 644.346 816.908C645.54 801.465 629.677 789.561 616.414 795.943ZM629.801 809.232C635.185 814.492 631.598 825.389 624.486 825.389C616.963 825.389 613.464 815.356 618.985 809.617C622.962 805.48 625.855 805.379 629.801 809.232ZM563.189 888.228C566.607 891.781 566.523 896.149 562.96 900.09C557.355 906.294 548.732 902.503 548.732 893.837C548.732 886.241 557.87 882.695 563.189 888.228Z" fill="#09434B"/>
</svg>
