<svg width="1200" height="1200" viewBox="0 0 1200 1200" fill="none" xmlns="http://www.w3.org/2000/svg">
<rect width="1200" height="1200" rx="53" fill="#0F2027"/>
<path d="M532.333 114.573C528.467 115.507 526.467 117.507 523.267 123.507C520.867 128.04 520.467 131.24 520.467 142.973C520.467 159.107 522.6 169.907 531.133 196.707C534.467 206.973 537 217.64 537 220.973C537 224.173 534.867 235.373 532.2 245.907C526.333 269.907 525 288.973 528.2 305.773C529.4 312.04 529.933 319.107 529.533 321.24C529.133 323.507 523.267 332.173 516.6 340.707C509.8 349.24 502.467 358.707 500.333 361.907C495.667 368.44 486.467 374.04 467 382.307C425.933 399.64 399.667 417.64 368.333 449.773C351.8 466.707 340.6 480.573 330.067 497.107C307.8 531.773 293.133 566.307 282.867 607.64C274.867 640.04 272.733 658.04 272.067 698.573C271.133 745.907 273.267 770.44 281.133 805.24L281.661 807.553C283.09 813.812 281.459 820.377 277.267 825.24V825.24C255.8 850.173 242.2 878.973 244.2 895.373C247.4 922.573 290.867 942.707 352.333 945.24C384.733 946.573 485.833 949.64 485.833 938.307C485.833 928.04 482.533 919.573 453.333 911.307C431.867 905.307 339.267 901.507 333.4 895.907C328.467 891.24 327.533 884.44 331.133 879.24C333.933 875.24 337.133 875.507 348.467 880.973C368.733 890.84 360.2 890.307 516.333 890.307C650.6 890.307 656.6 890.173 663 887.773C672.6 884.173 677 880.707 679.8 874.44C687 858.44 678.2 839.507 661.133 834.44C657.133 833.24 650.067 832.307 645.533 832.307V832.307C641.303 832.307 638.23 828.284 639.344 824.203L640.333 820.573C642.067 814.173 646.333 797.107 649.8 782.573C654.867 761.507 656.467 756.573 657.8 757.907C661.133 761.373 675.667 790.707 681.4 805.64C684.733 814.04 691.4 833.507 696.467 848.707C710.333 891.373 710.2 891.24 756.6 892.04C783.133 892.44 788.467 892.307 794.333 890.307C807.4 885.907 813.4 878.04 813.4 865.373C813.267 849.773 802.467 839.24 785.267 838.04C774.2 837.107 771.4 834.84 767.8 823.773C764.6 814.173 757.8 783.907 755.533 769.64C753.4 755.64 754.867 709.107 758.2 680.973C762.333 648.173 771.8 610.973 784.333 579.24C800.2 539.107 808.2 507.907 810.2 478.04C812.2 446.307 808.867 419.907 799.267 390.973C793.933 375.24 793.667 373.507 793.8 358.973C793.8 342.707 795 336.973 803 312.307C809.4 292.84 810.733 282.84 809 268.573C807.133 253.24 804.6 242.707 798.733 225.107C792.333 205.64 792.333 197.773 799 179.64C811.667 145.373 813.8 124.973 805.667 116.84C798.467 109.64 787.667 113.773 766.333 131.907C750.467 145.373 743.533 150.307 733 155.64V155.64C728.217 158.075 722.823 159.048 717.491 158.439L707 157.24C672.067 153.24 674.733 153.24 619.667 157.107V157.107C612.348 157.537 605.112 155.367 599.238 150.979L585.667 140.84C557.667 119.907 542.067 112.173 532.333 114.573Z" fill="#37949A"/>
<path fill-rule="evenodd" clip-rule="evenodd" d="M627.6 210.348C610.801 218.154 608.143 238.36 622.264 250.925V250.925C625.799 254.07 627.821 258.577 627.818 263.309L627.795 313.529L627.773 360.963C627.77 367.53 625.263 373.848 620.763 378.631V378.631C616.914 382.729 590.443 410.304 561.943 439.913L516.345 487.291C512.372 491.418 506.89 493.751 501.161 493.751V493.751C496.097 493.751 492.195 493.16 492.195 492.394C492.195 491.646 489.742 489.187 486.741 486.928C468.596 473.265 444.779 494.72 455.747 514.849C463.728 529.491 482.596 529.491 492.528 514.845V514.845C495.101 511.05 499.388 508.778 503.973 508.778H506.645V508.778C513.034 508.778 519.147 506.176 523.577 501.572L578.748 444.232C612.904 408.73 641.401 378.764 642.07 377.638C642.774 376.459 643.298 349.983 643.312 315.302L643.33 260.886C643.331 257.178 645.026 253.673 647.931 251.369V251.369C667.967 235.485 650.28 199.805 627.6 210.348ZM640.829 223.368C648.147 228.785 644.237 242.399 635.362 242.399C626.224 242.399 622.072 231.502 628.619 224.693C633.326 219.801 635.668 219.549 640.829 223.368ZM715.392 238.335C700.928 246.277 700.312 268.861 714.325 277.464V277.464C716.716 278.933 718.184 281.528 718.21 284.334L718.534 318.142C718.736 339.219 718.605 365.237 718.245 375.963V375.963C717.82 388.517 712.767 400.47 704.058 409.522L652.86 462.732L602.942 514.615C593.442 524.489 588.135 537.659 588.135 551.362V566.56V596.824C588.135 600.834 586.447 604.658 583.485 607.36V607.36C570.451 619.254 571.976 638.519 586.449 644.887C609.445 655.004 626.765 626.063 608.439 608.14V608.14C604.7 604.481 602.592 599.47 602.592 594.238V568.858V556.789C602.592 543.008 607.96 529.768 617.558 519.878L638.329 498.475C722.208 412.045 731.413 402.327 732.682 398.861C733.506 396.606 734.014 373.165 734.014 337.341V284.181C734.014 281.217 735.419 278.427 737.802 276.663V276.663C759.459 260.633 738.882 225.438 715.392 238.335ZM730.118 248.571C739.915 253.834 733.735 269.267 722.955 266.455C715.065 264.395 713.541 252.6 720.65 248.585C725.102 246.074 725.468 246.071 730.118 248.571ZM583.25 288.41C574.862 290.169 570.885 303.402 576.962 309.336C580.225 312.522 580.249 312.708 580.249 336.579V339.263C580.249 352.964 574.943 366.133 565.444 376.007L545.78 396.448L526.95 416.023C516.958 426.41 503.167 432.279 488.754 432.279H483.925C466.1 432.279 455.535 432.818 453.668 433.825C450.805 435.367 437.139 448.978 388.401 498.818L377.7 509.762C368.103 519.576 362.689 532.731 362.595 546.456L362.371 579.538L362.14 613.499C362.05 626.661 356.863 639.277 347.668 648.696V648.696C336.34 660.299 332.784 663.198 330.721 662.516C317.603 658.187 303.631 680.313 310.504 694.532C322.33 718.997 358.895 700.697 348.533 675.501V675.501C347.357 672.647 348.016 669.367 350.202 667.188L361.896 655.533V655.533C371.699 645.758 377.248 632.509 377.337 618.667L377.548 585.797L377.76 552.746C377.848 539 383.273 525.827 392.89 516.005L418.291 490.065L443.146 464.68C453.084 454.53 466.682 448.794 480.887 448.76L487.568 448.744L493.983 448.727C508.348 448.691 522.082 442.825 532.042 432.473L554.925 408.688L578.584 384.096C588.084 374.222 593.39 361.052 593.39 347.35V341.814C593.39 315.141 593.417 314.876 596.785 309.738C603.941 298.817 595.681 285.805 583.25 288.41ZM673.794 289.774C659.458 297.118 658.748 319.271 672.579 327.762V327.762C674.852 329.159 676.232 331.639 676.22 334.307L676.125 355.319L676.107 359.294C676.045 372.983 670.69 386.117 661.161 395.945L611.373 447.303L561.347 498.909C551.961 508.591 546.618 521.488 546.408 534.971L546.328 540.066L546.273 543.564C546.076 556.116 535.882 566.207 523.329 566.277V566.277C510.904 566.347 490.092 566.56 477.081 566.752C445.967 567.21 444.288 566.962 441.173 561.472C432.701 546.553 409.15 550.869 404.16 568.253C397.657 590.917 429.178 605.846 441.677 586.025V586.025C443.043 583.859 445.424 582.545 447.984 582.545H498.16H547.074C550.539 582.545 553.885 581.288 556.492 579.006V579.006V579.006C559.062 576.759 560.536 573.512 560.536 570.099V548.109V542.296C560.536 528.482 565.93 515.214 575.567 505.318L581.335 499.395C592.775 487.652 621.752 457.857 645.731 433.185L674.335 403.759C683.951 393.866 689.331 380.613 689.331 366.817V359.037V336.06C689.331 332.035 691.024 328.196 693.997 325.482V325.482C712.522 308.577 695.572 278.622 673.794 289.774ZM688.496 301.237C692.776 304.738 693.018 310.032 689.102 314.369C683.305 320.782 673.558 317.128 673.558 308.539C673.558 303.745 678.406 298.408 682.76 298.408C684.008 298.408 686.592 299.681 688.496 301.237ZM743.354 438.973C738.357 443.827 737.728 451.727 741.9 457.241C744.286 460.392 744.528 462.781 744.528 483.025V483.997C744.528 497.691 739.227 510.854 729.736 520.727L714.628 536.443L699.562 552.115C690.048 562.012 684.746 575.214 684.771 588.943L684.832 622.513C684.92 669.633 685.256 678.851 687.194 687.045C688.436 692.304 692.376 711.056 695.945 728.709C699.518 746.365 703.293 764.809 704.336 769.691C705.383 774.576 707.559 785.571 709.174 794.125C711.667 807.33 712.922 810.939 717.464 818.01C726.306 831.771 725.388 819.972 712.431 753.3C709.877 740.151 706.573 722.631 705.093 714.367C703.609 706.104 701.823 696.375 701.12 692.748C700.417 689.108 699.845 660.624 699.845 629.158V593.633C699.845 579.861 705.205 566.629 714.792 556.741L727.588 543.542C762.723 507.299 758.985 514.31 758.985 484.666C758.985 463.501 759.304 459.462 761.125 457.57C772.365 445.887 754.974 427.691 743.354 438.973ZM695.605 494.513C691.02 497.101 689.331 500.462 689.331 507.005C689.331 511.974 688.146 513.46 665.844 536.454C637.761 565.409 640.849 553.652 641.138 630.486C641.384 695.945 641.276 695.088 649.105 694.287C656.406 693.542 656.474 692.916 656.389 627.038L656.34 588.407C656.322 574.694 661.62 561.507 671.121 551.619L679.049 543.367C697.695 523.966 702.452 519.706 705.473 519.706C715.668 519.706 719.237 505.438 711.146 497.028C706.19 491.876 701.598 491.135 695.605 494.513ZM480.951 498.154C487.262 507.519 476.843 518.772 468.421 511.684C464.498 508.386 464.179 499.811 467.87 497.007C471.792 494.024 478.569 494.618 480.951 498.154ZM430.329 568.386C433.68 572.809 433.771 575.855 430.676 579.831C425.706 586.207 415.97 582.049 415.97 573.551C415.97 564.735 425.087 561.454 430.329 568.386ZM515.82 616.516V616.516C512.868 619.044 509.113 620.438 505.227 620.449L478.484 620.523L468.192 620.551C453.83 620.589 440.099 626.454 430.142 636.803L420.004 647.339L408.736 659.049C399.447 668.703 394.158 681.518 393.935 694.913L393.875 698.484L393.818 701.919C393.591 715.395 388.238 728.279 378.849 737.949L370.415 746.635C335.28 782.815 326.6 793.209 326.6 799.091C326.6 811.887 332.39 807.795 373.594 765.872L392.897 746.229C402.64 736.314 408.098 722.968 408.094 709.067L408.093 705.509L408.092 702.057C408.087 688.093 413.592 674.691 423.412 664.764L430.063 658.04L436.451 651.582C446.427 641.497 460.029 635.832 474.215 635.855L482.962 635.868C507.287 635.907 514.581 636.334 517.165 637.869C521.859 640.656 530.734 640.467 533.298 637.523C545.514 623.492 529.769 604.563 515.82 616.516ZM601.993 618.68C605.933 622.779 606.071 626.126 602.494 630.854C598.871 635.645 593.05 635.687 588.831 630.952C580.656 621.782 593.478 609.829 601.993 618.68ZM471.328 663.258C446.327 668.752 450.57 706.852 476.183 706.852C481.819 706.852 490.455 701.32 494.27 695.27V695.27C495.621 693.128 497.976 691.829 500.509 691.829H540.723H565.741C578.038 691.829 589.793 696.892 598.242 705.827V705.827V705.827C606.748 714.827 611.53 726.714 611.626 739.097L611.7 748.674L611.751 755.275C611.862 769.502 606.249 783.177 596.173 793.222L594.443 794.947C569.785 819.531 574.93 817.492 537.537 817.489L511.736 817.486C508.154 817.486 504.813 815.68 502.85 812.684V812.684C491.172 794.863 462.231 805.746 465.387 826.774C468.341 846.448 488.1 853.065 501.137 838.744V838.744C504.742 834.786 509.847 832.53 515.201 832.53H542.251H562.266C572.154 832.53 581.636 828.601 588.626 821.608V821.608C594.628 815.604 600.967 809.414 602.71 807.858C604.449 806.298 610.458 800.374 616.06 794.688V794.688C622.587 788.065 626.242 779.136 626.232 769.837L626.214 752.772C626.173 709.919 625.437 708.205 595.762 682.1V682.1C591.784 678.6 586.664 676.675 581.366 676.686L542.924 676.767L501.352 676.851C498.157 676.857 495.159 675.314 493.308 672.71V672.71C487.753 664.905 479.665 661.425 471.328 663.258ZM336.575 678.844C339.496 683.478 338.133 690.797 333.911 693.147C324.951 698.13 316.429 685.653 322.98 677.141C325.436 673.948 334.18 675.043 336.575 678.844ZM482.263 678.47C489.19 688.748 476.062 700.778 468.633 690.961C467.136 688.979 465.911 685.908 465.911 684.128C465.911 676.253 477.96 672.084 482.263 678.47ZM545.42 726.586C543.253 727.628 539.441 730.685 536.948 733.377V733.377C534.061 736.499 530.002 738.274 525.751 738.274L490.294 738.28L470.698 738.285C456.301 738.289 442.525 744.149 432.538 754.519L402.455 785.753C377.312 811.855 355.817 834.628 354.686 836.359C349.902 843.706 357.065 850.386 364.396 845.413C366.378 844.067 387.079 823.284 410.401 799.227C433.724 775.171 453.45 755.07 454.244 754.563C455.034 754.052 472.657 753.548 493.406 753.437L524.005 753.275C528.499 753.251 532.747 755.323 535.495 758.878V758.878C548.488 775.685 571.716 768.736 573.352 747.551C574.546 732.108 558.683 720.204 545.42 726.586ZM558.807 739.875C564.19 745.135 560.604 756.031 553.491 756.031C545.968 756.031 542.469 745.998 547.99 740.26C551.967 736.123 554.861 736.021 558.807 739.875ZM492.195 818.87C495.613 822.423 495.529 826.791 491.966 830.732C486.361 836.936 477.737 833.145 477.737 824.48C477.737 816.884 486.875 813.338 492.195 818.87Z" fill="#09434B"/>
<path d="M81.4065 931.034C76.387 931.198 73.6536 934.432 73.5238 939.452C73.2079 951.663 73 977.351 73 1006.57V1068.7C73 1075.12 78.3189 1080.26 84.7333 1080.04V1080.04V1080.04C91.2035 1079.82 96.3333 1074.51 96.3333 1068.03V1060.97C96.2 1050.71 96.0667 1017.24 95.9333 986.573L95.7165 941.373C95.689 935.621 91.0185 930.973 85.2667 930.973V930.973C83.9332 930.973 82.6286 930.994 81.4065 931.034Z" fill="#37949A"/>
<path d="M1035.27 931.773C1034.73 932.307 1034.33 965.907 1034.33 1006.57V1068.31C1034.33 1074.93 1039.71 1080.31 1046.33 1080.31V1080.31V1080.31C1052.96 1080.31 1058.33 1074.93 1058.33 1068.31V1048.31C1058.33 1022.31 1058.73 1015.24 1060.33 1011.24C1064.6 1001.11 1072.33 995.907 1083.13 996.04C1092.73 996.173 1097.93 999.107 1101.4 1006.71C1104.07 1012.44 1104.33 1015.77 1104.73 1046.57L1105.09 1069.11C1105.19 1075.32 1110.25 1080.31 1116.47 1080.31V1080.31V1080.31C1122.66 1080.31 1127.69 1075.3 1127.73 1069.11L1127.8 1055.24C1128.2 1004.71 1127.53 998.84 1119.27 988.173C1106.33 971.373 1079.67 968.973 1064.2 983.24V983.24C1061.97 985.318 1058.33 983.737 1058.33 980.688V960.573C1058.33 934.973 1058.07 932.44 1056.07 931.907C1052.2 930.84 1036.33 930.84 1035.27 931.773Z" fill="#37949A"/>
<path d="M640.067 940.974C635.4 942.041 628.467 944.441 624.733 946.574C616.6 950.841 602.333 964.574 602.333 968.041C602.467 969.374 606.467 973.107 611.933 976.841C621.4 983.374 621.4 983.374 623.533 980.707C624.733 979.107 627.4 975.641 629.533 972.974C634.733 966.174 642.333 962.974 653 962.974C663 962.974 668.867 965.774 673 972.574C676.2 977.774 676.467 987.641 673.8 994.041C669.4 1004.71 646.467 1026.84 616.733 1049.37L609.469 1054.9C605.948 1057.58 603.739 1061.63 603.4 1066.04V1066.04C603.133 1069.91 603.133 1074.97 603.4 1077.24V1077.24C603.704 1079.75 605.836 1081.64 608.365 1081.64H653.8H692.726C698.776 1081.64 703.618 1076.62 703.4 1070.57V1070.57V1070.57C703.175 1064.43 698.204 1059.53 692.062 1059.4L672.867 1058.97L667.845 1058.86C658.999 1058.67 655.073 1047.65 661.8 1041.91V1041.91C682.2 1024.31 693.8 1011.37 698.6 1000.84C703.267 990.707 703 974.307 697.933 964.041C692.333 952.574 681.133 944.841 664.733 940.974C654.733 938.574 650.867 938.574 640.067 940.974Z" fill="#37949A"/>
<path d="M742.743 947.048C737.724 947.219 734.648 950.376 734.459 955.395C734.378 957.515 734.333 959.932 734.333 962.44V968.562C734.333 972.829 730.994 976.349 726.733 976.573V976.573V976.573C722.399 976.797 719 980.377 719 984.717V986.973V989.229C719 993.569 722.399 997.149 726.733 997.373V997.373V997.373C730.994 997.597 734.333 1001.12 734.333 1005.38V1024.84C734.333 1039.77 735 1055.24 735.667 1059.11C737.4 1068.04 742.733 1075.91 749.667 1079.51C756.067 1082.84 771.133 1083.91 779.4 1081.77V1081.77C782.715 1080.83 785 1077.8 785 1074.35V1070.97V1070.31C785 1065.52 781.12 1061.64 776.333 1061.64V1061.64C766.333 1061.64 761.933 1059.91 759.8 1055.37C758.867 1053.37 758.333 1042.04 758.333 1024.97V1010.85C758.333 1003.56 764.12 997.596 771.4 997.373V997.373L774.338 997.282C779.908 997.11 784.333 992.545 784.333 986.973V986.973V986.973C784.333 981.401 779.908 976.836 774.338 976.664L771.4 976.573V976.573C764.12 976.35 758.333 970.384 758.333 963.1V961.64V958.04C758.333 951.928 753.379 946.973 747.267 946.973V946.973C745.69 946.973 744.157 946.999 742.743 947.048Z" fill="#37949A"/>
<path d="M293.4 975.507C286.333 977.773 277.133 983.107 273.8 986.84C270.067 990.973 269 990.307 269 983.64V983.64C269 980.326 266.314 977.64 263 977.64H258.067V977.64C251.955 977.64 247 982.595 247 988.707V1048.71C247 1087.64 247.533 1120.44 248.067 1121.24C249.4 1123.37 268.467 1123.64 269.667 1121.64C270.067 1120.97 270.467 1108.57 270.333 1094.17V1075.2C270.333 1072.3 273.71 1070.72 275.933 1072.57V1072.57C284.067 1079.24 289.133 1081.51 297.933 1082.71C334.867 1087.51 364.067 1057.11 358.333 1019.77C354.333 993.64 335 975.507 309.533 974.173C302.733 973.907 297 974.307 293.4 975.507ZM315 998.84C325.133 1003.37 334.333 1017.64 334.333 1028.97C334.333 1035.37 329.933 1046.04 325.267 1051.24C318.733 1058.44 311.667 1061.64 301.667 1061.64C282.6 1061.64 271.667 1049.51 271.667 1028.44C271.667 1013.77 279.133 1002.04 291 997.907C297.4 995.64 309.133 996.04 315 998.84Z" fill="#37949A"/>
<path d="M420.6 975.107C393.533 979.107 376.867 999.773 376.867 1029.37C376.867 1053.11 386.733 1069.11 407.267 1078.71C414.467 1082.04 416.2 1082.31 432.333 1082.31C448.333 1082.31 450.2 1082.04 457.4 1078.71C465 1075.11 477 1066.31 477 1064.31C477 1063.77 473.533 1060.71 469.4 1057.64C462.067 1052.04 461.8 1051.91 458.467 1054.04C448.333 1060.57 441.533 1062.97 433.533 1062.97C416.067 1062.97 406.2 1055.77 403 1040.57V1040.57C402.52 1038.38 404.19 1036.31 406.434 1036.31H442.067H478.274C480.469 1036.31 482.348 1034.73 482.733 1032.57V1032.57C483.933 1026.44 481.267 1009.77 477.8 1002.31C471.4 988.173 457.933 978.04 441.8 975.107C433 973.507 431.667 973.507 420.6 975.107ZM444.467 997.773C451 1000.84 455.8 1007.64 456.2 1014.04V1014.04C456.273 1016.38 454.411 1018.34 452.065 1018.37L429.4 1018.71C399.533 1019.11 400.6 1019.51 404.867 1010.31C407.8 1004.04 413.4 998.573 419 996.573C425.933 994.173 438.2 994.707 444.467 997.773Z" fill="#37949A"/>
<path d="M524.067 976.174C504.2 982.974 494.6 1001.64 502.2 1018.57C506.6 1028.17 518.333 1034.44 543.4 1040.31C565.8 1045.51 562.067 1062.97 538.6 1062.97C528.6 1062.97 520.067 1060.04 513.267 1054.17V1054.17C510.252 1051.67 505.778 1052.1 503.292 1055.13L501.667 1057.11L497.962 1061.7C496.572 1063.42 496.674 1065.9 498.2 1067.51V1067.51C502.867 1072.44 514.733 1078.84 523.667 1081.11C536.733 1084.44 554.2 1083.24 564.067 1078.57C583.267 1069.11 589.267 1047.64 577.133 1032.31C571.8 1025.51 565 1022.31 545.667 1017.11C533.133 1013.77 527.8 1011.77 526.067 1009.64C522.733 1005.51 523 1003.37 527.4 998.974C534.733 991.774 550.867 992.707 561.933 1001.11C564.2 1002.84 566.467 1004.31 566.867 1004.31C568.333 1004.31 578.467 988.04 577.933 986.574C577 984.04 564.333 977.64 556.467 975.507C547 972.974 532.467 973.24 524.067 976.174Z" fill="#37949A"/>
<path d="M839.8 975.107C820.6 978.84 804.2 995.64 799.8 1016.04C790.6 1059.51 825.933 1092.71 870.2 1082.31C880.467 1079.77 889.933 1074.97 895.667 1068.97V1068.97C897.915 1066.65 897.761 1062.92 895.329 1060.8L892.333 1058.17C886.067 1052.84 884.333 1052.04 882.6 1053.37C871.933 1060.71 868.067 1062.17 858.2 1062.71C839.267 1063.77 828.6 1056.71 825.8 1041.37V1041.37C825.313 1038.73 827.332 1036.29 830.019 1036.27L863.933 1036.04L891 1035.76C897.626 1035.7 902.94 1030.27 902.867 1023.64V1023.64C902.733 1014.84 901.933 1009.64 899.8 1004.17C891.533 982.44 865.8 970.04 839.8 975.107ZM864.067 996.84C869.533 999.107 873.667 1003.64 876.333 1010.17C880.067 1018.97 880.2 1018.97 850.867 1018.97H829.074C826.819 1018.97 825.118 1016.92 825.533 1014.71V1014.71C826.867 1007.91 832.2 1000.97 838.6 997.774C845.267 994.44 857.4 994.04 864.067 996.84Z" fill="#37949A"/>
<path d="M962.6 975.639C934.467 981.773 916.467 1008.71 921 1037.91C927.667 1081.24 979.8 1097.64 1016.07 1068.04V1068.04C1018.06 1066.4 1018.2 1063.4 1016.35 1061.59L1011.93 1057.24L1009.56 1054.91C1006.48 1051.88 1001.65 1051.57 998.2 1054.17V1054.17C984.067 1065.11 965.267 1063.51 953.133 1050.31C947 1043.64 945.667 1040.04 945.8 1029.64C945.8 1018.57 948.467 1011.51 954.733 1005.11C961 998.973 967.933 996.306 978.067 996.306C986.333 996.306 990.467 997.773 997.133 1003.11L998.826 1004.45C1000.89 1006.1 1003.81 1006.15 1005.93 1004.57V1004.57C1008.07 1003.11 1011.93 999.506 1014.73 996.573L1015.44 995.848C1017.79 993.435 1017.59 989.53 1015 987.373V987.373C1007.8 981.373 997.133 976.573 987.533 975.106C976.867 973.239 973.133 973.373 962.6 975.639Z" fill="#37949A"/>
<path d="M155 976.707C128.6 985.507 112.6 1008.31 114.733 1034.04C116.6 1055.51 131.533 1073.91 153 1080.97C162.333 1084.04 179.133 1084.17 189.133 1081.24C199.267 1078.17 211.8 1069.64 217.667 1061.64C225.533 1050.97 228.067 1041.91 227.4 1026.84C227 1015.77 226.333 1012.97 222.6 1005.37C217 994.04 205.4 982.974 194.733 978.974C185.133 975.24 163.133 974.04 155 976.707ZM185.933 1000.17C196.2 1005.37 202.333 1016.57 202.333 1029.91C202.2 1048.84 189.4 1061.64 170.6 1061.64C165 1061.64 161.133 1060.71 156.867 1058.57C133.533 1046.17 135 1007.24 159.267 998.174C166.067 995.64 178.867 996.574 185.933 1000.17Z" fill="#37949A"/>
</svg>
