<svg width="1200" height="1200" viewBox="0 0 1200 1200" fill="none" xmlns="http://www.w3.org/2000/svg">
<g clip-path="url(#clip0_423_798)">
<rect width="1200" height="1200" rx="53" fill="white"/>
<rect x="593" y="182" width="29" height="37" rx="5" fill="black"/>
<path d="M583.67 838.189C591.377 833.187 593.658 826.813 593.465 818.174C592.889 792.315 593.379 766.434 593.058 740.566C592.978 734.146 594.734 729.316 599.302 724.744C653.315 670.689 707.174 616.481 761.131 562.37C764.185 559.307 766.891 555.574 772.24 554.397C779.57 570.777 784.357 587.785 786.87 605.47C787.495 609.876 788.991 614.46 788.339 618.694C785.253 638.74 795.294 652.788 806.632 668.059C843.693 717.981 863.521 773.981 859.828 837.029C857.737 872.726 850.084 906.965 832.335 938.263C834.047 942.378 837.855 943.065 840.884 944.646C851.991 950.443 862.726 956.824 872.123 965.155C895.621 985.986 896.793 1015.86 874.831 1038.19C855.451 1057.9 830.569 1066.65 804.279 1071.72C755.331 1081.16 705.7 1082.21 656.056 1082.7C643.569 1082.83 631.079 1082.85 618.599 1083.2C611.942 1083.38 608.488 1081.1 609.263 1073.92C610.074 1066.4 609.35 1060 598.982 1061.2C595.292 1061.63 593.701 1059 593.517 1055.61C593.356 1052.64 593.388 1049.67 593.387 1046.69C593.354 983.651 593.328 920.609 593.302 857.567C593.301 854.913 593.302 852.259 593.302 849.885C590.513 848.29 589.51 850.318 588.401 851.405C573.961 865.559 559.623 879.817 545.172 893.96C541.984 897.079 540.609 900.574 540.621 905.066C540.713 937.777 540.701 970.488 540.549 1003.2C540.528 1007.78 542.194 1010.74 545.639 1013.79C554.953 1022.03 555.462 1034.49 547.378 1042.12C540.001 1049.08 526.65 1048.74 519.876 1041.42C512.245 1033.17 513.263 1020.94 523.039 1013.2C527.164 1009.94 527.944 1006.61 527.934 1001.81C527.864 968.217 528.118 934.622 528.174 901.026C528.183 895.321 530.234 890.945 534.371 886.921C550.781 870.959 566.936 854.733 583.67 838.189ZM533.881 1022.87C529.562 1023.45 527.562 1025.96 528.304 1030.22C528.742 1032.73 530.512 1034.48 533.159 1034.68C536.179 1034.91 538.393 1033.26 539.25 1030.51C540.408 1026.79 538.833 1024.2 533.881 1022.87Z" fill="black"/>
<path d="M593.912 564.005C593.436 555.388 593.057 547.365 593.231 539.354C593.366 533.145 590.621 530.907 584.652 530.986C570.977 531.169 557.294 531.253 543.624 530.938C536.14 530.765 533.162 533.209 533.332 541.234C533.829 564.713 532.968 588.227 533.768 611.688C534.143 622.672 528.706 628.535 520.76 633.781C516.958 631.268 518.196 627.673 518.186 624.643C518.088 594.613 518.088 564.583 518.162 534.553C518.196 520.702 522.883 516.068 537.114 515.963C552.871 515.847 568.634 515.818 584.386 516.135C590.83 516.264 593.419 513.998 593.395 507.386C593.231 463.382 593.283 419.378 593.36 375.374C593.367 371.215 592.173 367.879 589.065 365.106C586.183 362.534 583.815 359.22 580.611 357.204C565.176 347.497 561.963 333.549 562.629 316.095C563.877 283.437 562.962 250.697 562.953 217.991C562.952 215.613 563.016 213.234 563.014 210.856C563.009 206.277 564.772 203.586 569.849 203.607C574.731 203.627 575.869 206.556 575.923 210.551C576.003 216.496 576.054 222.443 576.052 228.389C576.039 259.608 576.802 290.858 575.616 322.033C575.086 335.966 581.96 343.062 591.998 349.915C593.955 346.076 593.175 342.479 593.179 339.031C593.226 297.406 593.326 255.779 593.049 214.155C592.996 206.294 593.551 200.619 603.663 201.599C609.949 202.209 609.863 197.06 609.488 192.927C608.693 184.188 611.375 180.725 620.982 181.743C632.8 182.994 644.641 184.065 656.24 186.53C661.701 187.69 665.133 186.704 668.459 182.252C689.577 153.982 716.825 133.431 748.898 119.059C761.929 113.219 767.866 115.331 772.952 128.955C783.02 155.928 784.213 184.028 782.423 212.402C781.261 230.831 778.401 248.999 773.327 266.765C772.024 271.324 773.981 274.85 775.71 278.614C791.155 312.24 791.192 346.338 778.892 380.839C777.461 384.852 775.227 388.158 772.2 391.173C716.159 446.978 660.205 502.869 604.1 558.609C601.447 561.244 599.655 566.157 593.912 564.005Z" fill="black"/>
<path d="M462.631 373.489C469.768 383.924 479.082 391.438 487.383 399.899C502.994 415.81 518.891 431.441 534.761 447.095C536.766 449.072 538.315 451.977 542.882 452.009C543.525 439.217 546.407 426.994 533.763 416.701C521.609 406.807 511.431 394.518 500.04 383.643C495.164 378.988 492.797 374.064 493.068 367.217C493.526 355.642 492.798 344.015 493.397 332.453C493.789 324.886 491.049 319.605 485.771 314.505C474.235 303.356 463.405 291.476 451.832 280.368C447.061 275.789 445.462 270.763 445.481 264.518C445.542 244.306 445.316 224.093 445.403 203.882C445.425 198.831 444.227 195.123 440.049 191.583C430.658 183.624 430.06 171.463 437.813 163.166C445.107 155.361 457.337 155.346 464.889 163.133C472.821 171.312 472.216 182.917 462.867 191.437C459.67 194.35 458.414 197.283 458.436 201.443C458.541 221.655 458.597 241.869 458.342 262.078C458.272 267.586 460.086 271.743 463.882 275.536C475.865 287.511 487.614 299.721 499.655 311.636C503.515 315.455 505.335 319.557 505.222 325.044C504.966 337.507 505.489 349.99 505.073 362.444C504.855 368.966 507.02 373.662 511.658 378.101C524.755 390.636 537.452 403.588 550.45 416.227C554.261 419.933 556.679 423.846 556.617 429.419C556.36 452.305 556.356 475.192 556.231 498.079C556.205 502.731 556.019 507.414 549.504 507.301C546.222 507.243 543.689 505.996 543.362 502.252C543.234 500.774 542.946 499.23 543.217 497.809C546.777 479.14 538.549 466.361 524.967 454.003C501.688 432.823 480.255 409.625 457.727 387.602C452.393 382.388 449.986 377.002 450.273 369.558C450.674 359.164 451.892 348.993 442.31 340.283C435.31 333.921 438.378 320.788 445.847 314.841C453.604 308.666 464.191 309.224 470.958 316.166C477.792 323.176 479.566 336.266 471.731 341.836C459.595 350.465 462.5 361.63 462.631 373.489ZM462.212 326.428C459.659 323.198 456.708 322.124 453.322 325.115C451.114 327.065 450.821 329.727 451.826 332.324C452.937 335.191 455.488 336.02 458.275 335.49C462.721 334.644 463.529 331.511 462.212 326.428ZM450.392 170.651C446.518 171.771 443.871 173.904 445.325 178.319C446.247 181.119 448.667 182.444 451.659 182.147C454.619 181.853 456.698 180.213 457.141 177.212C457.742 173.138 455.413 171.23 450.392 170.651Z" fill="black"/>
<path d="M334.228 855.386C344.088 831.602 362.156 818.833 383.259 820.188C414.42 822.188 432.959 852.231 421.507 882.168C414.002 901.786 394.432 915.41 374.747 914.723C355.901 914.066 339.796 902.074 333.977 884.06C330.983 874.79 330.988 865.395 334.228 855.386ZM385.878 840.387C383.219 840.176 380.557 839.749 377.902 839.79C364.185 840.002 352.335 851.206 351.255 864.851C350.138 878.959 358.346 891.16 370.853 893.982C386.56 897.527 399.419 890.674 404.2 876.211C409.242 860.96 403.23 848.461 385.878 840.387Z" fill="black"/>
<path d="M512.189 303.401C497.951 293.138 492.324 280.158 494.675 263.08C496.13 252.508 495.355 242.545 485.541 234.218C477.832 227.677 480.395 214.438 488.29 208.152C496.123 201.915 507.399 202.853 514.069 210.296C521.019 218.052 521.468 230.361 513.647 236.797C508.108 241.354 507.447 246.292 506.503 252.717C503.472 273.369 510.313 289.154 527.22 300.857C538.349 308.56 542.884 318.987 540.583 332.301C536.519 355.823 543.813 374.602 563.581 388.363C577.619 398.136 581.485 411.525 580.438 428.417C579.006 451.528 580.047 474.79 579.965 497.987C579.951 502.043 580.825 507.009 574.481 507.121C567.912 507.237 568.081 502.379 568.083 497.75C568.094 471.281 567.944 444.811 568.177 418.345C568.228 412.55 566.669 408.217 562.39 404.202C553.721 396.066 545.949 386.928 536.949 379.203C529.516 372.823 527.574 365.271 528.129 356.252C528.438 351.211 527.951 346.059 528.796 341.123C531.547 325.044 525.948 312.829 512.189 303.401ZM504.511 227.24C507.33 224.389 507.222 221.54 504.285 218.924C502.104 216.982 499.565 216.587 497.052 218.316C494.614 219.994 493.585 222.525 494.692 225.218C496.414 229.409 499.88 229.273 504.511 227.24Z" fill="black"/>
<path d="M904.517 376.812C900.075 372.491 896.067 368.62 892.508 365.183C883.304 374.395 874.367 383.339 864.611 393.105C870.739 399.333 877.092 406.285 883.983 412.655C890.761 418.92 885.175 422.163 881.51 426.277C877.598 430.667 874.196 432.561 869.159 427.283C852.149 409.459 834.883 391.878 817.591 374.325C811.946 368.595 816.843 365.511 820.23 361.95C823.554 358.454 826.667 354.407 831.774 359.948C836.599 365.182 841.869 370.002 846.764 375.174C849.891 378.478 852.764 378.466 855.869 375.348C862.57 368.618 869.218 361.833 876.015 355.201C878.932 352.354 877.973 350.063 875.637 347.609C870.518 342.236 865.543 336.722 860.32 331.453C854.126 325.203 860.426 322.173 863.535 318.38C866.715 314.502 869.985 312.514 874.512 317.15C892.141 335.206 910.098 352.943 927.624 371.097C935.112 378.853 924.972 381.327 922.223 385.818C919.431 390.377 916.063 389.274 912.918 385.667C910.384 382.76 907.617 380.057 904.517 376.812Z" fill="black"/>
<path d="M515.706 761.577C520.558 765.039 522.677 761.049 525.022 758.786C533.15 750.944 541.256 743.063 549 734.848C553.519 730.054 556.469 732.241 559.946 735.897C563.24 739.361 566.142 742.19 561.278 746.911C547.842 759.953 534.637 773.236 521.491 786.572C518.005 790.108 515.059 790.159 511.71 786.664C494.233 768.425 476.765 750.177 459.205 732.018C455.443 728.129 456.046 725.056 459.739 721.505C472.378 709.354 484.909 697.089 497.357 684.743C501.804 680.332 505.223 681.324 509.428 685.351C514.137 689.86 512.029 692.871 508.528 696.431C501.443 703.634 494.67 711.146 487.499 718.26C481.816 723.898 483.549 728.366 488.396 733.467C493.789 739.143 497.136 735.441 500.819 731.68C506.85 725.523 513.003 719.481 518.901 713.2C522.424 709.448 525.298 709.817 528.46 713.554C531.294 716.902 535.611 719.734 530.732 724.643C525.494 729.913 520.378 735.305 515.126 740.561C504.941 750.751 504.917 750.727 515.706 761.577Z" fill="black"/>
<path d="M761.129 546.47C759.413 548.173 758.001 549.313 756.912 550.707C752.45 556.417 748.35 556.536 743.198 551.089C726.874 533.829 710.273 516.829 693.676 499.829C689.764 495.822 688.51 492.343 693.123 487.832C705.856 475.383 718.502 462.835 730.884 450.038C736.387 444.35 739.57 448.723 743.499 451.832C748.483 455.777 745.859 458.734 742.659 461.971C734.728 469.993 727.021 478.24 719.001 486.172C712.546 492.556 718.487 495.923 721.91 500.075C726.188 505.265 729.569 502.38 732.934 498.99C739.421 492.455 746.063 486.064 752.316 479.313C756.544 474.749 759.391 477.126 762.601 480.365C765.715 483.508 768.515 486.237 763.907 490.599C757.441 496.719 751.56 503.461 745.073 509.557C738.632 515.609 741.543 520.027 746.363 525.227C751.702 530.987 755.309 528.475 759.48 524.043C765.584 517.556 771.95 511.314 778.243 505.005C789.198 494.023 790.115 494.16 799.129 508.722C786.737 521.032 774.159 533.528 761.129 546.47Z" fill="black"/>
<path d="M408.901 808.177C391.262 790.422 391.245 790.406 408.703 772.925C413.737 767.884 418.63 762.652 424.051 758.056C436.395 747.59 452.517 747.147 464.165 756.535C476.832 766.745 479.911 782.586 472.222 797.357C468.431 804.64 462.335 809.95 456.704 815.605C452.355 819.973 451.301 823.771 456.36 828.197C458.133 829.749 459.528 831.729 461.121 833.491C469.346 842.583 469.128 842.326 459.945 850.26C455.536 854.069 452.817 853.814 448.921 849.667C435.909 835.816 422.563 822.28 408.901 808.177ZM452.736 795.526C459.201 785.717 458.982 778.503 452.039 772.621C445.221 766.843 438.967 767.643 430.098 775.792C425.989 779.567 421.564 783.134 418.793 788.104C420.148 792.138 423.244 794.57 425.89 797.308C439.005 810.881 439.023 810.863 452.736 795.526Z" fill="black"/>
<path d="M545.813 671.435C552.892 674.587 557.856 670.51 562.917 667.719C568.89 664.425 574.504 660.424 581.041 658.279C590.402 655.207 599.576 655.675 606.764 662.926C613.461 669.68 615.505 678.353 612.708 687.634C606.429 708.465 591.016 719.572 571.144 725.287C563.82 727.393 561.716 724.177 560.025 710.15C566.034 708.178 572.301 706.575 578.184 704.071C584.878 701.223 590.347 696.683 593.12 689.568C594.456 686.142 595.581 682.737 592.472 679.652C589.545 676.748 585.715 676.63 582.502 678.137C575.806 681.277 569.406 685.063 562.957 688.712C555.116 693.149 547.108 694.971 538.241 691.789C525.047 687.054 519.346 674.366 525.098 659.748C531.842 642.609 546.043 632.925 562.038 625.588C567.629 623.023 569.379 627.553 570.717 631.597C572.148 635.924 575.128 640.909 567.978 643.243C560.813 645.583 554.055 648.898 548.918 654.332C544.638 658.859 539.035 663.911 545.813 671.435Z" fill="black"/>
<path d="M676.407 613.761C683.653 619.258 683.688 623.638 677.11 629.632C664.811 640.838 653.414 653.03 641.461 664.624C638.989 667.023 637.072 671.971 632.119 668.873C627.761 666.148 624.344 663.134 624.893 656.802C626.045 643.498 626.283 630.115 626.967 616.769C627.216 611.921 626.326 607.223 624.747 602.754C621.893 594.677 614.788 592.452 607.64 597.229C602.493 600.668 599.367 605.572 597.677 611.543C594.223 623.749 593.756 624.008 579.634 623.603C577.014 608.672 582.647 596.604 592.655 586.073C601.668 576.588 612.54 571.995 625.679 575.33C636.474 578.071 643.79 588.721 644.1 601.995C644.357 612.956 644.153 623.927 644.153 636.039C652.135 628.495 659.307 621.751 666.437 614.962C669.269 612.266 671.899 608.85 676.407 613.761Z" fill="black"/>
<path d="M802.441 389.164C807.602 389.225 813.644 384.756 815.24 393.155C817.122 403.056 815.18 405.883 805.387 407.741C789.642 410.728 779.47 424.236 781.819 439.037C784.317 454.777 799.112 465.343 815.23 462.188C827.756 459.737 834.221 450.817 836.895 438.918C837.786 434.954 838.515 431.786 843.535 431.002C852.836 429.548 855.607 431.92 854.389 441.348C851.37 464.726 831.76 482.365 808.158 482.932C787.066 483.439 766.115 465.877 762.795 444.908C759.206 422.237 773.587 398.113 794.856 391.179C797.11 390.444 799.427 389.899 802.441 389.164Z" fill="black"/>
<path d="M685.353 549.57C695.284 559.42 704.515 569.102 714.358 578.117C720.342 583.599 721.259 587.844 714.02 592.636C711.598 594.239 709.574 596.444 707.155 598.562C690.447 581.984 674.086 565.752 657.626 549.419C650.259 552.649 646.189 558.699 641.115 563.472C637.577 566.8 634.723 567.273 631.5 563.31C628.607 559.753 623.701 556.741 628.96 551.477C644.273 536.149 659.553 520.788 674.919 505.513C680.031 500.431 683.322 505.064 686.914 508.022C690.863 511.275 690.574 514.423 686.851 517.556C681.182 522.328 675.488 527.071 670.074 531.602C674.659 540.245 680.436 544.125 685.353 549.57Z" fill="black"/>
<path d="M344.238 939.696C349.077 934.832 353.658 930.583 357.817 925.956C361.613 921.732 364.841 921.459 368.885 925.669C372.62 929.558 376 932.718 370.59 938.049C357.914 950.539 345.528 963.326 333.073 976.04C329.821 979.359 327.07 978.815 324.058 975.633C306.725 957.321 289.444 938.957 271.871 920.877C265.483 914.305 271.251 911.25 274.76 907.131C278.461 902.786 281.915 901.382 286.473 906.192C298.102 918.464 309.946 930.532 321.687 942.699C331.348 952.71 331.337 952.721 341.303 942.688C342.139 941.846 342.965 940.994 344.238 939.696Z" fill="black"/>
<path d="M485.309 1007.41C484.442 1018.97 479.123 1025.61 470.066 1027.24C461.308 1028.82 453.366 1024.83 449.383 1016.85C445.495 1009.07 447.143 1000.51 455.112 993.761C459.472 990.066 459.719 985.899 459.711 981.097C459.656 946.642 459.857 912.186 459.451 877.736C459.349 869.076 462.968 863.909 469.962 860.058C473.879 863.048 472.431 866.918 472.448 870.223C472.639 906.755 472.751 943.289 472.681 979.822C472.669 986.032 473.245 991.293 479.095 995.206C482.801 997.684 484.68 1002.05 485.309 1007.41ZM469.337 1013.73C472.963 1011.42 474.064 1008.41 471.266 1004.87C469.498 1002.63 466.921 1001.73 464.134 1003.04C461.468 1004.29 460.011 1006.56 460.545 1009.49C461.322 1013.76 464.016 1015.4 469.337 1013.73Z" fill="black"/>
<path d="M562.915 987.462C562.928 972.904 562.85 959.238 563.008 945.574C563.059 941.148 561.899 937.955 558.334 934.801C549.521 927.006 549.286 914.01 557.141 906.307C564.331 899.256 576.558 899.422 583.668 906.667C591.398 914.543 590.723 927.292 581.28 934.833C576.579 938.587 575.902 942.765 575.921 948C576.034 980.084 576.015 1012.17 576.039 1044.25C576.04 1046.63 576.087 1049.01 576.002 1051.38C575.83 1056.13 576.486 1061.33 569.051 1061.13C562.099 1060.93 562.938 1056.02 562.93 1051.63C562.89 1030.54 562.914 1009.45 562.915 987.462ZM571.98 914.456C567.787 913.179 565.087 914.775 564.135 918.928C563.554 921.467 564.864 923.41 567.075 924.767C569.404 926.196 571.637 925.977 573.456 924.093C576.418 921.024 576.32 917.903 571.98 914.456Z" fill="black"/>
<path d="M405.075 709.43C393.164 718.982 381.245 718.119 374.702 707.817C370.132 700.621 370.953 690.851 376.647 684.677C382.518 678.312 392.137 676.051 399.309 681.337C406.509 686.645 410.489 684.375 415.674 678.866C430.74 662.859 446.344 647.359 461.493 631.429C465.906 626.788 470.597 624.374 477.125 624.727C485.423 625.176 493.759 624.933 502.079 624.927C506.463 624.923 508.546 626.901 508.61 631.401C508.675 635.979 506.514 637.889 502.157 637.873C495.323 637.848 488.463 638.23 481.662 637.752C474.836 637.273 470.031 639.664 465.337 644.668C450.299 660.701 435.058 676.574 419.237 691.825C413.827 697.039 407.185 700.823 405.075 709.43ZM395.237 701.036C397.847 697.146 396.21 694.322 392.68 692.449C390.246 691.158 387.537 691.265 385.493 693.563C383.797 695.469 383.218 697.806 384.614 700.01C387.091 703.92 390.476 704.415 395.237 701.036Z" fill="black"/>
<path d="M537.992 856.855C528.281 866.508 519.325 876.058 509.638 884.798C503.371 890.452 500.192 896.549 501.203 905.028C501.691 909.117 501.217 913.328 501.08 917.48C500.969 920.851 499.571 923.185 495.808 923.319C492.208 923.446 488.61 922.51 488.632 918.454C488.707 904.184 484.453 889.959 498.583 877.634C520.231 858.751 539.561 837.222 560.064 817.009C564.601 812.537 566.951 807.859 566.611 801.33C566.134 792.152 566.975 782.894 566.318 773.738C565.681 764.85 570.24 760.174 576.925 756.467C580.351 758.515 579.583 761.451 579.593 763.97C579.647 778.219 579.474 792.47 579.578 806.719C579.614 811.757 578.195 815.91 574.598 819.537C562.475 831.759 550.481 844.108 537.992 856.855Z" fill="black"/>
<path d="M397.125 669.133C385.314 662.789 381.452 654.273 385.25 644.121C388.571 635.24 397.781 630.871 408.858 633.931C413.662 635.259 416.688 634.231 419.855 630.922C427.855 622.562 436.135 614.469 444.064 606.044C448.204 601.646 452.784 599.534 458.961 599.696C472.603 600.054 486.26 599.876 499.911 599.875C504.789 599.874 508.828 600.463 508.527 607.002C508.233 613.404 503.732 612.78 499.641 612.803C487.177 612.871 474.711 612.932 462.25 612.742C457.159 612.664 453.224 614.137 449.715 618.021C443.952 624.401 437.665 630.304 431.663 636.471C426.159 642.127 420.632 647.04 420.385 656.539C420.14 665.944 409.289 671.129 397.125 669.133ZM400.57 656.974C404.689 657.279 407.54 655.85 407.696 651.313C407.786 648.72 406.386 646.877 403.901 645.993C401.401 645.102 399.085 645.69 397.621 647.774C395.267 651.127 395.291 654.328 400.57 656.974Z" fill="black"/>
<path d="M450.285 916.884C451.081 924.319 448.702 930.077 443.399 933.976C438.157 937.83 437.143 942.632 437.185 948.649C437.371 975.065 437.254 1001.48 437.185 1027.9C437.176 1031.39 437.807 1035.03 435.817 1038.5C428.04 1039.47 425.203 1036.03 425.259 1028.44C425.457 1001.43 425.229 974.417 425.36 947.406C425.386 942.09 424.585 937.887 419.92 934.268C413.545 929.323 411.1 922.358 414.064 914.42C416.809 907.069 426.612 900.264 433.292 900.612C441.805 901.056 447.314 906.159 450.285 916.884ZM427.403 924.098C431.044 926.735 434.081 925.793 436.471 922.353C438.322 919.689 437.321 917.225 435.224 915.231C433.131 913.239 430.566 912.423 427.978 914.169C424.375 916.6 423.915 919.732 427.403 924.098Z" fill="black"/>
<path d="M508.904 1006.52C509.151 1015.71 508.665 1023.55 501.204 1029.73C496.07 1033.98 498.371 1040.84 498.006 1046.64C497.766 1050.45 498.5 1054.86 492.63 1054.92C486.939 1054.98 485.951 1051.31 486.001 1046.6C486.114 1036.05 484.525 1025.52 494.426 1017.23C499.737 1012.78 497.193 1000.63 491.449 995.015C481.581 985.364 481.713 970.911 491.729 964.264C500.225 958.625 510.899 960.203 517.308 968.045C523.374 975.466 523.084 986.147 515.862 993.036C512.018 996.703 508.948 1000.25 508.904 1006.52ZM503.075 974.045C499.162 973.856 496.695 975.866 496.532 979.588C496.407 982.457 498.558 984.419 501.448 985.029C504.344 985.64 506.913 984.712 508.144 982.004C509.923 978.09 507.28 976.046 503.075 974.045Z" fill="black"/>
<path d="M413.073 594.644C425.076 577.245 440.978 573.159 460.734 575.811C473.522 577.527 486.796 575.583 499.853 575.366C504.813 575.284 509.842 575.448 509.583 582.497C509.327 589.438 504.016 588.221 499.756 588.239C481.934 588.313 464.105 588.553 446.294 588.095C439.076 587.909 433.763 590.283 429.097 595.461C425.327 599.645 420.983 603.312 417.194 607.481C407.27 618.403 395.304 614.381 383.149 613.421C383.655 605.266 386.893 601.218 394.331 601.837C401.551 602.437 407.909 601.139 413.073 594.644Z" fill="black"/>
<path d="M499.247 492.984C492.459 486.25 487.32 479.46 476.252 479.522C466.164 479.579 459.518 468.052 461.278 458.076C463.103 447.735 472.263 441.22 482.8 442.77C493.125 444.29 501.537 454.406 498.922 464.525C496.882 472.417 500.012 476.788 504.878 481.534C510.605 487.121 516.089 492.959 521.648 498.716C524.197 501.356 525.313 504.026 522.087 507.114C519.168 509.908 516.33 509.988 513.523 507.262C508.847 502.72 504.294 498.05 499.247 492.984ZM481.362 455.411C476.846 454.445 474.601 457.179 473.704 460.844C473.002 463.715 474.906 466.029 477.568 467.102C480.334 468.217 482.925 467.318 484.597 464.878C487.101 461.225 486.055 458.212 481.362 455.411Z" fill="black"/>
<path d="M452.227 520.399C445.497 510.814 445.171 502.511 450.766 495.465C455.902 488.997 465.531 486.644 473.314 489.955C481.314 493.358 485.702 502.154 484.324 512.025C483.081 520.931 487.311 526.006 496.359 526.395C499.317 526.522 502.282 526.492 505.241 526.589C508.978 526.712 510.306 528.893 510.347 532.397C510.388 535.874 509.27 538.281 505.415 538.226C495.071 538.078 483.768 541.314 476.682 529.729C474.676 526.448 471.174 525.514 467.324 525.904C461.721 526.47 456.767 524.978 452.227 520.399ZM469.225 512.068C472.559 509.111 472.557 505.899 469.601 502.807C467.465 500.572 464.824 500.606 462.298 502.288C459.858 503.912 458.307 506.281 459.546 509.106C461.15 512.765 463.968 514.676 469.225 512.068Z" fill="black"/>
<path d="M389.402 966.426C392.923 958.801 391.274 951.311 391.199 944.037C391.119 936.271 395.17 932.436 403.305 927.793C403.305 939.36 403.356 948.942 403.281 958.524C403.249 962.504 403.873 965.622 407.495 968.48C417.564 976.428 418.626 989.705 410.449 997.83C402.838 1005.39 390.613 1005.19 383.448 997.377C375.733 988.965 377.531 975.712 387.451 967.923C387.916 967.558 388.431 967.257 389.402 966.426ZM402.177 988.127C404.73 984.753 403.729 981.906 400.508 979.891C397.794 978.193 394.742 978.218 392.348 980.625C390.207 982.778 390.069 985.618 391.85 987.926C394.444 991.287 397.817 991.299 402.177 988.127Z" fill="black"/>
<path d="M461.821 546.785C465.272 550.574 468.948 551.739 473.419 551.643C483.202 551.432 492.993 551.643 502.781 551.583C507.406 551.555 510.061 553.265 510.042 558.312C510.022 563.353 506.562 564.113 502.862 564.18C491.298 564.389 479.731 564.392 468.166 564.44C463.739 564.459 460.2 562.482 457.165 559.393C447.811 549.874 438.497 540.312 429.041 530.895C425.557 527.424 424.513 524.092 428.148 520.158C432.511 515.436 435.125 519.912 437.573 522.289C445.657 530.135 453.441 538.289 461.821 546.785Z" fill="black"/>
<path d="M358.386 736.739C368.611 724.199 379.903 723.737 390.142 735.313C392.888 738.418 395.829 739.05 399.495 739.259C403.81 739.506 408.345 738.155 413.11 740.939C409.601 746.703 406.323 752.115 398.672 752.081C395.103 752.065 392.767 753.619 390.382 756.295C382.75 764.859 373.937 766.729 365.811 762.079C357.427 757.28 354.54 748.095 358.386 736.739ZM378.427 750.259C381.271 747.138 381.492 743.991 378.12 741.202C376.189 739.604 373.79 739.438 371.581 740.784C369.301 742.173 368.714 744.449 369.288 746.886C370.333 751.33 373.412 752.074 378.427 750.259Z" fill="black"/>
<path d="M551.689 269.954C542.533 282.069 532.042 284.144 522.415 276.332C514.699 270.071 513.697 258.197 520.183 249.906C525.54 243.059 534.639 240.845 542.595 244.454C551.693 248.58 554.817 256.827 551.689 269.954ZM537.676 267.007C540.496 264.836 542.302 262.319 539.805 258.85C537.858 256.143 535.019 255.585 531.973 256.508C528.952 257.424 527.824 259.832 528.515 262.701C529.505 266.811 532.444 268.239 537.676 267.007Z" fill="black"/>
<path d="M447.761 697.239C449.526 700.384 451.947 702.186 454.804 702.953L406.479 749.374C404.687 751.095 401.839 751.038 400.117 749.246C398.395 747.454 398.453 744.605 400.245 742.883L447.761 697.239ZM596.754 554.118C598.546 552.396 601.395 552.454 603.117 554.246C604.839 556.038 604.781 558.887 602.989 560.608L470.687 687.696C470.035 685.491 468.897 683.194 467.234 680.907C466.727 680.568 466.223 680.261 465.726 679.982L596.754 554.118Z" fill="black"/>
<path d="M449.824 682.394C454.729 677.281 460.54 676.427 467.234 680.907C474.666 691.129 471.646 701.54 461.345 703.155C455.609 704.054 450.686 702.559 447.695 697.124C444.724 691.724 445.798 686.59 449.824 682.394ZM462.213 686.259C459.309 684.318 456.787 684.688 454.659 686.902C452.913 688.72 452.446 690.944 453.735 693.282C455.033 695.636 457.169 696.284 459.657 695.895C464.127 695.195 465.437 690.686 462.213 686.259Z" fill="black"/>
<path d="M568.753 1083.33C517.754 1081.79 468.223 1077.12 420.923 1058.59C387.576 1045.53 361.274 1024.55 343.324 993.262C339.966 987.408 340 983.734 345.058 978.714C392.575 931.554 439.781 884.081 487.188 836.809C491.53 832.479 493.629 828.889 491.282 822.135C486.289 807.769 500.377 792.944 515.671 796.643C523.047 798.427 527.043 796.117 531.802 791.324C604.138 718.47 676.606 645.748 749.103 573.054C755.758 566.38 762.815 560.108 769.312 554C773.054 555.043 773.582 557.598 774.345 559.724C783.129 584.205 789.605 609.213 788.715 635.448C788.45 643.271 791.13 648.803 795.812 654.68C825.691 692.191 848.212 733.518 856.676 781.191C865.879 833.018 859.376 883.076 835.86 930.449C832.069 938.087 832.011 942.201 840.836 945.835C850.989 950.017 860.152 956.405 868.626 963.499C899.137 989.038 897.983 1023.25 865.891 1046.86C843.946 1063 818.698 1070.47 792.215 1074.21C750.667 1080.09 708.905 1083.42 666.909 1083.38C634.488 1083.34 602.066 1083.35 568.753 1083.33ZM732.873 1056.4C755.362 1054.38 777.943 1053.07 800.078 1048.2C820.248 1043.76 840.059 1038.21 855.981 1024.11C871.437 1010.43 871.199 996.136 855.45 982.746C844.251 973.224 831.399 966.323 817.812 960.811C796.307 952.086 795.986 951.924 807.977 932.695C833.889 891.144 840.324 845.386 835.428 797.983C831.09 755.988 815.09 717.234 788.647 684.766C771.506 663.719 761.909 643.044 764.14 615.889C765.013 605.265 761.976 593.885 756.065 583.391C753.884 585.262 752.468 586.324 751.228 587.563C705.55 633.222 659.926 678.934 614.163 724.508C609.934 728.719 608.687 733.369 609.019 739.002C611.351 778.541 608.69 818.095 609.405 857.664C610.54 920.444 609.844 983.257 609.986 1046.06C609.996 1050.46 609.339 1054.98 611.549 1060.44C651.263 1061.22 691.251 1058.89 732.873 1056.4ZM566.318 785.897C566.318 782.172 566.318 778.447 566.318 773.37C554.631 784.836 544.272 794.985 533.932 805.154C531.734 807.316 532.202 809.823 532.646 812.61C534.739 825.745 526.026 838.361 512.889 837.499C502.895 836.843 498.349 841.86 492.871 847.559C487.716 852.922 482.696 858.443 477.212 863.452C472.168 868.059 470.544 873.361 470.608 880.103C470.913 912.536 470.93 944.974 470.775 977.409C470.737 985.338 471.262 991.87 478.327 997.838C486.453 1004.7 484.993 1016.84 477.126 1023.95C469.643 1030.71 458.371 1030.42 451.349 1023.29C443.991 1015.83 443.317 1003.51 451.484 997.073C458.185 991.791 459.067 985.51 459.086 978.293C459.167 948.238 459.196 918.182 459.175 888.126C459.174 886.558 460.044 884.486 457.273 883.385C451.091 889.375 444.051 894.738 439.023 902.268C440.14 903.63 440.845 904.556 441.618 905.422C452.298 917.398 451.796 926.531 439.293 937.081C435.707 940.106 435.657 943.74 435.637 947.508C435.492 975.48 435.576 1003.45 435.346 1031.42C435.299 1037.09 437.45 1040.48 442.834 1041.89C453.465 1044.66 464.204 1047.07 474.706 1050.26C483.143 1052.83 485.221 1049.63 484.78 1041.76C484.404 1035.06 483.645 1028.16 488.967 1022.34C497.976 1012.49 497.506 1004.25 487.953 994.287C480.597 986.614 480.359 973.916 487.439 966.866C494.841 959.496 507.476 959.872 514.681 967.676C521.711 975.289 521.475 988.164 513.025 994.735C507.758 998.831 506.552 1003.25 506.706 1009.25C506.84 1014.45 508.509 1020.54 503.54 1024.34C495.693 1030.34 496.035 1038.42 496.213 1046.89C496.324 1052.2 498.864 1054.64 503.605 1055.05C519.887 1056.47 536.201 1057.54 552.469 1059.09C559.957 1059.81 561.53 1056.25 561.488 1049.69C561.266 1015.17 561.275 980.648 561.338 946.129C561.347 941.66 560.124 938.569 556.499 935.465C547.226 927.524 546.76 914.856 554.74 907.053C561.969 899.984 573.971 900.152 581.366 907.425C588.832 914.768 588.296 927.492 579.378 935.124C575.2 938.699 574.072 942.495 574.083 947.509C574.155 981.432 574.214 1015.36 573.992 1049.28C573.947 1056.11 575.458 1059.74 583.329 1059.72C591.571 1059.7 591.322 1054.85 591.317 1049.15C591.267 984.869 591.306 920.591 591.255 856.314C591.253 853.79 592.205 850.924 589.683 848.72C587.068 849.038 585.681 851.104 584.034 852.737C570.926 865.721 557.963 878.854 544.678 891.653C540.243 895.925 538.543 900.554 538.579 906.652C538.761 937.598 538.693 968.548 538.51 999.495C538.471 1006.24 539.125 1011.62 545.349 1016.47C553.385 1022.73 552.836 1035.99 545.782 1042.78C538.671 1049.61 525.659 1049.64 518.984 1042.84C511.727 1035.44 511.504 1022 519.726 1015.72C525.139 1011.58 525.914 1006.94 525.909 1001.11C525.884 969.291 526.154 937.47 525.901 905.652C525.837 897.642 528.033 891.502 533.923 885.886C551.577 869.051 568.739 851.701 586.283 834.748C589.78 831.369 591.384 827.836 591.354 823.005C591.215 800.688 591.323 778.369 591.26 756.05C591.255 754.167 592.086 751.783 589.253 750.588C581.375 755.376 577.2 761.698 577.932 771.685C578.758 782.931 577.816 794.296 578.182 805.591C578.381 811.754 576.341 816.248 571.982 820.535C552.465 839.732 533.701 859.727 513.632 878.318C503.282 887.904 496.638 897.69 499.067 912.177C499.403 914.179 498.995 916.335 498.748 918.398C498.354 921.684 496.929 923.954 493.125 924.003C488.965 924.056 487.086 921.733 486.896 918.004C486.624 912.66 486.821 907.294 486.597 901.947C486.228 893.14 488.986 886.288 495.777 879.941C514.247 862.678 531.301 843.866 550.167 827.073C562.577 816.027 569.256 804.123 566.318 785.897ZM423.614 992.558C423.603 979.763 422.771 966.899 423.827 954.192C424.756 943.012 421.073 935.464 411.387 930.443C398.541 939.153 396.837 960.92 408.199 971.177C415.742 977.987 416.015 990.92 408.777 998.513C401.663 1005.98 389.587 1005.99 382.411 998.549C374.945 990.804 374.598 977.61 383.036 971.618C390.412 966.382 390.117 960.386 388.927 952.833C384.353 954.742 382.013 958.301 379.142 961.156C359.968 980.23 359.932 980.312 377.067 1001.47C389.078 1016.29 404.37 1026.44 421.967 1033.31C422.761 1031.93 423.292 1031.43 423.297 1030.93C423.437 1018.74 423.52 1006.54 423.614 992.558ZM519.205 812.213C515.942 808.411 512.028 806.994 507.53 809.742C503.524 812.19 502.189 816.123 503.826 820.435C505.562 825.007 509.586 826.215 514 825.119C520.265 823.563 521.221 819.003 519.205 812.213ZM389.141 987.905C391.036 991.483 393.664 993.606 397.753 991.405C400.887 989.719 402.724 986.964 401.683 983.266C400.779 980.055 398.187 978.121 394.994 978.433C390.336 978.887 388.531 982.131 389.141 987.905ZM560.943 920.943C562.108 925.787 565.167 927.879 569.995 926.641C573.169 925.828 574.875 923.264 574.746 920.089C574.614 916.827 572.39 914.739 569.285 914.043C564.647 913.005 562.157 915.477 560.943 920.943ZM426.348 914.515C421.3 918.847 421.322 923.024 427.162 926.412C429.538 927.79 432.394 927.41 434.579 925.389C436.418 923.689 437.466 921.418 436.597 919.008C435.089 914.824 431.889 913.186 426.348 914.515ZM496.522 975.577C493.967 978.296 493.428 981.379 495.539 984.467C497.396 987.185 500.248 988.189 503.366 986.895C506.442 985.619 508.056 982.998 507.225 979.72C505.946 974.667 502.382 973.392 496.522 975.577ZM527.487 1024.49C524.379 1027.84 523.992 1031.26 527.646 1034.38C530.185 1036.56 533.101 1036.3 535.791 1034.56C538.22 1032.98 539.595 1030.67 538.316 1027.81C536.381 1023.49 533.247 1021.44 527.487 1024.49ZM459.071 1006.58C457.7 1010.67 457.734 1014.4 462.578 1015.99C465.632 1016.99 468.421 1016.06 470.374 1013.27C472.226 1010.61 471.538 1008.03 469.702 1005.92C466.691 1002.45 463.258 1001.93 459.071 1006.58Z" fill="black"/>
</g>
<defs>
<clipPath id="clip0_423_798">
<rect width="1200" height="1200" fill="white"/>
</clipPath>
</defs>
</svg>
