<svg width="723" height="1013" viewBox="0 0 723 1013" fill="none" xmlns="http://www.w3.org/2000/svg">
<g clip-path="url(#clip0_505_174)">
<path d="M408.736 51.5938C409.611 50.6757 412.303 50.8718 412.903 51.8965C413.198 52.398 414.724 52.8076 416.3 52.8076C417.873 52.8077 420.552 53.4204 422.257 54.1699C423.959 54.9195 426.22 55.5332 427.283 55.5332C428.345 55.5338 434.786 58.4499 441.596 62.0176L453.979 68.5029L460.171 66.4854C476.162 61.2818 475.133 61.4866 477.406 63.0566C478.552 63.8499 479.717 65.6976 479.996 67.1641C481.16 73.2944 492.764 72.4984 498.266 65.9102L500.853 62.8105L506.646 63.5498C513.457 64.4166 515.401 65.927 516.699 71.3623C517.211 73.5101 518.222 75.7837 518.941 76.416C519.663 77.0457 520.253 78.1246 520.253 78.8115C520.253 79.5012 520.66 80.0654 521.156 80.0654C521.738 80.065 521.826 78.8575 521.407 76.6582C519.573 67.0224 524.477 63.7409 529.718 71.1006C533.034 75.7617 536.245 78.7539 539.843 80.542C541.635 81.4333 544.305 83.1209 545.771 84.293C547.238 85.4651 549.634 86.4248 551.09 86.4248C554.592 86.4248 559.215 90.8328 567.125 101.706C574.945 112.456 575.286 112.952 579.751 120.042C581.797 123.291 585.736 129.493 588.507 133.821C591.277 138.152 593.545 141.941 593.546 142.244C593.546 142.547 594.519 144.422 595.711 146.409C596.901 148.396 597.959 151.09 598.062 152.393C598.163 153.696 599.033 155.435 599.992 156.258C600.952 157.078 602.688 159.591 603.852 161.84C605.013 164.089 607.238 168.178 608.79 170.926C612.585 177.642 615.102 183.437 615.102 185.457C615.102 186.374 616.02 191.348 617.143 196.513C618.438 202.477 619.489 207.43 620.349 211.667C618.635 210.231 616.617 208.971 614.246 208.2C610.351 206.934 606.61 207.34 603.482 208.631C600.688 209.784 598.613 211.543 597.333 212.739C596.103 213.889 594.776 215.348 594.159 215.996C593.857 216.314 593.507 216.658 593.006 217.147C592.553 217.59 591.933 218.192 591.33 218.818C590.197 219.994 588.4 221.972 587.116 224.606C585.681 227.552 584.899 231.294 585.912 235.433C586.45 237.629 587.407 239.57 588.568 241.276C586.888 241.49 585.421 241.828 584.697 241.981C583.987 242.132 583.537 242.221 583.162 242.277C582.8 242.332 582.702 242.325 582.774 242.326L581.395 242.31L580.054 242.637C577.335 243.3 574.683 243.924 572.085 244.715L570.975 245.064C567.968 246.045 565.072 247.273 562.302 248.721C561.913 248.638 561.592 248.51 561.391 248.339C559.231 246.499 551.884 246.392 548.707 248.153C544.651 250.405 538.42 251.237 534.397 250.067C531.542 249.236 530.859 249.348 529.286 250.904C526.979 253.188 524.022 253.207 522.871 250.944C521.045 247.344 516.246 247.892 513.468 252.016C512.423 253.572 511.624 253.7 506.466 253.155C502.335 252.719 500.128 252.877 498.871 253.706C497.472 254.627 496.623 254.641 494.817 253.774C493.56 253.172 492.179 252.907 491.744 253.19C491.309 253.474 488.798 253.283 486.162 252.771C481.55 251.871 481.139 251.962 475.254 255.121L469.139 258.405L464.807 256.476C461.915 255.189 460.138 254.84 459.465 255.426C458.911 255.911 457.059 256.495 455.352 256.727C453.642 256.958 450.594 257.986 448.579 259.011C446.43 260.106 443.186 260.878 440.739 260.878C437.943 260.878 436.409 261.3 436.096 262.156C435.839 262.862 434.59 263.835 433.32 264.323C431.266 265.111 429.417 265.675 422.158 267.728C421.082 268.03 419.129 269.491 417.815 270.969C415.518 273.561 415.092 273.675 406.408 274.035C401.444 274.24 396.307 274.742 394.99 275.15C391.759 276.151 374.283 274.915 371.789 273.509C369.687 272.323 354.957 272.149 337.026 273.095C331.809 273.367 323.112 273.803 317.695 274.06C312.281 274.316 306.461 274.902 304.762 275.365C296.748 277.543 289.383 278.217 282.272 277.418C277.86 276.922 274.094 276.927 272.803 277.426C271.414 277.965 269.39 277.884 267.047 277.191C262.396 275.82 261.149 276.325 261.149 279.585C261.149 282.03 260.73 282.379 255.562 284.2C252.491 285.285 249.134 287.024 248.104 288.07C244.84 291.382 225.25 297.877 221.582 296.866C217.218 295.664 202.054 300.898 200.925 303.997C199.965 306.633 196.91 305.619 195.562 302.22C193.687 297.493 191.752 299.059 185.971 309.976C178.355 324.36 177.025 329.634 176.635 346.981C176.371 358.785 175.973 363.259 175.083 364.35C171.606 368.629 170.745 375.103 170.885 395.967L171.019 416.116L168.442 421.584C167.027 424.591 165.869 427.715 165.869 428.524C165.869 429.337 165.447 430.828 164.933 431.842C164.418 432.857 163.429 441.928 162.733 451.999C161.613 468.261 161.137 471.412 158.496 480.132C156.861 485.532 155.519 491.052 155.517 492.398C155.509 497.528 153.618 502.096 150.25 505.136C141.478 513.054 148.334 514.357 174.923 509.824C177.769 509.339 187.274 507.699 196.048 506.178C209.621 503.823 230.255 502.086 241.316 502.369C263.374 502.936 264.974 503.095 267.367 504.938C268.852 506.082 272.402 507.194 276.67 507.854C304.045 512.07 312.561 514.134 327.973 520.272C352.728 530.134 352.114 529.963 352.114 527.101C352.115 524.819 356.641 524.593 361.292 526.643C363.379 527.561 365.814 527.829 368.81 527.472C370.981 527.21 374.883 527.444 378.913 528.042C378.646 533.576 378.318 539.077 377.837 544.63C377.638 546.921 377.727 549.111 378.094 551.188C371.857 553.234 369.815 557.627 369.707 566.179C369.562 577.578 364.893 596.823 361.518 599.932C360.62 600.758 359.153 603.211 358.261 605.384C354.994 613.327 347.013 625.577 339.52 634.155C335.293 638.991 330.926 644.38 329.816 646.127C328.707 647.877 326.451 650.33 324.804 651.578C323.156 652.829 320.114 655.16 318.042 656.758C301.562 669.479 262.967 677.026 241.316 671.763C238.944 671.188 235.064 670.337 232.694 669.874C187.972 661.132 162.589 627.542 153.3 564.808C152.485 559.31 151.264 554.198 150.586 553.448C148.189 550.807 150.768 609.138 153.435 617.896C154.11 620.109 154.66 623.252 154.66 624.882C154.66 626.932 155.478 628.772 157.312 630.852C161.08 635.128 163.818 641.272 164.41 646.783C164.692 649.395 165.691 652.666 166.635 654.054C168.329 656.548 169.641 661.515 172.344 675.658C173.107 679.654 174.449 684.765 175.326 687.014C176.203 689.262 177.419 693.515 178.029 696.462C178.64 699.411 180.031 703.202 181.117 704.893C184.472 710.101 185.848 713.462 185.274 715.035C184.509 717.137 190.901 730.488 192.709 730.567C195.352 730.682 196.455 733.331 196.193 738.933C195.994 743.169 196.297 744.758 197.657 746.582C199.235 748.694 199.274 749.141 198.144 751.992C197.466 753.704 196.91 755.274 196.91 755.484C196.913 755.697 199.831 759.076 203.399 762.999C206.969 766.921 210.686 771.771 211.664 773.777C212.639 775.781 214.764 779.815 216.383 782.742C218.331 786.261 219.329 789.233 219.329 791.512C219.329 794.483 219.743 795.216 222.319 796.818C224.192 797.982 225.512 799.629 225.851 801.224C227.811 810.44 233.701 817.854 239.056 817.854C239.914 817.854 241.322 818.672 242.178 819.672C245.587 823.641 247.496 821.46 250.354 810.336C251.11 807.397 252.194 805.536 253.723 804.562C254.962 803.769 256.876 801.125 257.978 798.686C259.077 796.243 262.279 791.822 265.091 788.859C267.9 785.896 270.203 783.096 270.203 782.633C270.204 779.37 274.417 773.772 277.443 773.017C280.547 772.245 285.668 766.617 285.754 763.883C285.798 762.433 291.758 757.886 293.615 757.886C294.552 757.886 296.334 756.065 298.002 753.404C300.809 748.928 301.236 748.681 308.572 747.269C309.522 747.088 312.698 745.722 315.631 744.234C319.4 742.326 322.256 741.53 325.36 741.53C330.57 741.53 334.525 739.928 337.391 736.651C338.862 734.97 340.353 734.264 342.422 734.264C345.803 734.264 345.873 732.62 342.562 730.919C330.673 724.808 330.437 724.723 329.573 726.348C329.121 727.204 328.378 727.901 327.926 727.901C326.262 727.901 314.949 717.391 314.478 715.409C313.176 709.947 316.728 706.64 321.738 708.651C323.032 709.172 327.245 709.856 331.1 710.17C340.878 710.971 346.212 712.65 352.392 716.881C370.801 729.477 393.13 733.004 409.455 725.896C431.031 716.497 432.837 715.837 438.181 715.385C444.808 714.823 446.102 715.924 446.102 722.134C446.101 727.416 441.383 731.5 435.239 731.532C429.932 731.56 431.425 740.546 437.749 746.636C445.302 753.906 444.806 753.625 447.532 752.143C451.495 749.989 463.461 750.722 466.061 753.279C467.625 754.819 468.725 755.149 470.875 754.724C472.918 754.323 474.302 754.669 476.048 756.023C477.362 757.04 480.353 758.245 482.699 758.703C485.723 759.292 487.432 760.216 488.578 761.873C491.788 766.518 500.443 772.645 503.022 772.104C504.412 771.809 506.047 772.136 506.999 772.894C507.886 773.602 509.389 774.205 510.338 774.232C514.79 774.361 520.781 784.612 519.997 790.765C519.47 794.903 525.593 806.733 530.856 811.748C532.548 813.356 535.544 818.048 537.518 822.172C541.273 830.024 542.967 831.603 542.512 826.83C542.116 822.695 544.488 821.318 547.267 824.068C550.06 826.832 551.711 825.153 552.422 818.811C553.063 813.108 553.457 812.402 555.994 812.402C557.831 812.402 561.642 806.364 561.642 803.45C561.642 803.014 562.805 801.114 564.228 799.229C566.664 796.001 566.814 795.325 566.814 787.744C566.814 779.965 567.921 777.343 569.833 780.603C572.04 784.364 573.059 781.292 572.475 772.621C571.929 764.48 572.027 763.533 573.656 761.348C574.637 760.037 575.438 758.14 575.438 757.131C575.438 756.125 576.373 754.132 577.514 752.701C579.997 749.591 580.318 748.279 579.443 744.782C578.939 742.765 579.203 741.528 580.548 739.611C581.745 737.905 582.501 734.983 582.892 730.548C583.373 725.105 583.889 723.499 585.979 720.991C587.361 719.334 588.872 716.527 589.338 714.755C589.832 712.866 591.149 710.898 592.512 710.007C593.792 709.17 596.432 706.823 598.383 704.792C600.331 702.761 603.089 700.196 604.512 699.092C606.211 697.772 607.478 695.654 608.205 692.915C608.813 690.623 609.98 687.845 610.795 686.744C611.612 685.643 612.46 682.5 612.683 679.747C612.959 676.329 613.813 673.63 615.389 671.215C616.653 669.272 617.688 666.955 617.688 666.066C617.688 665.178 618.474 662.514 619.437 660.148C620.399 657.785 621.613 652.946 622.13 649.397C622.647 645.851 623.961 639.677 625.048 635.679C626.134 631.68 627.267 626.364 627.567 623.867C627.867 621.367 628.654 616.461 629.313 612.964C631.173 603.137 633.084 588.369 633.661 579.344C634.579 565.033 638.644 551.09 642.658 548.474C643.152 548.152 643.556 547.302 643.556 546.582C643.556 544.372 642.172 545.092 637.715 549.619C631.134 556.3 630.464 558.075 623.77 586.613C611.609 638.453 589.288 664.807 547.854 676.25C536.166 679.477 507.976 679.398 497.404 676.11C495.981 675.669 492.151 674.611 488.892 673.761C474.502 670.007 448.689 654.302 448.688 649.3C448.688 648.64 447.506 646.939 446.065 645.524C444.622 644.107 442.392 641.206 441.106 639.08C439.823 636.951 438.096 634.983 437.271 634.705C430.478 632.413 423.803 622.434 417.259 604.787C415.96 601.287 413.384 595.012 411.529 590.842C407.776 582.389 407.316 577.975 409.512 571.51C410.184 569.528 410.66 567.684 410.941 565.978C412.046 564.898 412.883 563.855 413.357 563.264C413.788 562.727 413.972 562.49 414.218 562.195C414.401 561.975 414.462 561.915 414.438 561.939C428.09 548.695 439.754 536.139 453.109 523.97C457.087 520.346 462.235 514.561 461.946 506.628C461.791 502.373 460.127 498.857 457.937 495.99C460.595 495.881 462.733 495.432 465.932 494.503C477.016 491.284 492.582 485.486 495.048 483.662C497.451 481.882 499.166 481.2 509.045 478.106C512.128 477.139 516.203 475.558 518.099 474.588C519.995 473.62 523.743 472.603 526.428 472.325C529.113 472.05 532.315 471.129 533.541 470.281C535.605 468.858 535.937 468.852 537.9 470.207C539.318 471.186 541.933 471.674 545.761 471.674C554.895 471.674 569.945 477.3 574.974 482.597C580.056 487.947 578.481 488.881 568.711 486.306C552.21 481.961 537.393 485.047 508.83 498.785C501.955 502.091 501.533 503.277 507.104 503.653C509.971 503.847 511.199 504.324 511.199 505.237C511.197 506.715 499.367 510.552 494.386 510.688C492.728 510.735 490.798 511.155 490.1 511.618C487.707 513.213 491.595 513.758 500.283 513.041C523.82 511.103 573.628 512.52 580.612 515.325C581.797 515.802 585.29 516.617 588.373 517.141C597.421 518.67 601.57 519.562 604.322 520.567C608.645 522.146 616.674 523.454 628.677 524.536C636.928 525.283 640.822 526.035 642.718 527.248C645.555 529.066 645.723 529.396 646.582 534.796C647.446 540.239 648.572 537.099 649.622 526.308C651.021 511.924 653.471 507.281 657.506 511.356C660.222 514.099 661.756 513.769 663.455 510.075C665.297 506.068 669.959 500.837 672.646 499.755C675.74 498.509 673.308 496.206 668.898 496.206C667.367 496.206 665.504 495.961 664.757 495.658C663.885 495.304 662.268 496.297 660.253 498.42C656.334 502.549 655.336 503.092 650.193 503.877C645.403 504.61 644.417 506.24 644.417 513.434C644.417 518.149 643.703 518.923 639.342 518.923C632.102 518.923 628.49 505.602 630.492 486.284C631.576 475.814 631.126 471.014 628.066 460.318C627.068 456.818 625.914 451.502 625.508 448.504C625.102 445.506 624.127 441.213 623.343 438.964C620.699 431.386 619.419 415.213 619.954 396.157C620.228 386.47 620.433 377.521 620.412 376.27C620.391 375.021 620.412 371.136 620.459 367.64C620.507 363.933 620.54 360.517 620.558 357.359C632.701 349.94 642.172 338.513 647.068 324.782C648.922 329.742 651.73 336.105 653.052 337.874C656.746 342.824 654.847 347.973 650.509 344.771C647.441 342.508 648.406 346.278 654.169 359.06C660.561 373.245 661.267 389.7 655.178 382.61C650.848 377.568 652.969 390.706 657.896 399.439C659.174 401.705 658.82 429.241 657.47 432.604C656.316 435.477 654.854 454.517 655.397 459.62C655.666 462.161 655.222 465.085 654.086 468.25C646.807 488.506 646.825 504.495 654.112 492.42C654.917 491.084 657.1 489.092 658.962 487.988C660.827 486.884 662.85 485 663.458 483.801C668.412 474.051 678.753 485.829 681.288 504.108L682.649 513.924L678.564 529.371C676.317 537.867 673.003 549.521 671.2 555.267C669.397 561.013 667.041 568.577 665.965 572.077C661.022 588.141 654.58 632.585 652.2 667.025C650.871 686.278 645.803 695.061 635.679 695.663C628.966 696.061 626.408 701.666 623.656 721.997C621.941 734.669 620.621 740.159 619.222 740.445C618.177 740.658 617.729 742.125 617.427 746.353C617.204 749.449 616.568 753.822 616.015 756.07C615.461 758.319 614.625 762.408 614.154 765.155C613.684 767.903 612.928 770.862 612.476 771.729C612.023 772.596 611.646 774.846 611.641 776.727C611.62 781.99 609.556 787.365 607.427 787.706C605.13 788.074 605.114 789.835 607.383 791.999C610.076 794.567 609.395 799.136 606.263 799.515C604.959 799.673 603.893 800.068 603.893 800.39C603.893 800.714 604.959 801.876 606.263 802.977L608.635 804.975L606.694 807.157C605.626 808.357 604.755 810.415 604.755 811.731C604.755 813.435 604.082 814.462 602.413 815.305C600.934 816.054 599.765 817.636 599.229 819.599C598.753 821.351 596.438 824.723 593.919 827.337C590.368 831.019 589.322 832.794 588.808 835.999C586.971 847.458 583.197 853.66 579.376 851.507C576.225 849.73 575.791 850.82 577.438 856.334C579.226 862.306 579.252 863.852 577.581 864.528C576.575 864.934 576.401 865.899 576.825 868.704C577.213 871.255 576.865 873.924 575.659 877.585C574.712 880.466 573.243 885.07 572.395 887.817C571.546 890.565 569.653 894.289 568.188 896.091C566.722 897.893 562.999 902.799 559.918 906.994C551.677 918.211 548.723 921.433 546.669 921.46C545.277 921.476 544.181 922.866 542.187 927.138C539.639 932.595 535.996 935.399 535.645 932.175C535.572 931.515 535.422 930.566 535.311 930.067C535.202 929.568 535.068 928.647 535.011 928.023C534.809 925.717 532.432 926.982 531.591 929.842C529.674 936.364 529.568 938.509 531.112 939.42C533.055 940.565 532.082 943.242 529.721 943.242C527.701 943.242 525.453 938.657 525.391 934.413C525.334 930.324 522.345 918.385 521.29 918.015C518.191 916.928 518.944 940.001 522.289 948.731C525.137 956.157 524.679 957.015 513.861 964.582L508.802 968.123L506.949 965.678C504.464 962.391 503.871 962.592 503.871 966.725C503.871 971.271 501.484 973.64 496.905 973.64C494.844 973.64 493.524 974.068 493.524 974.733C493.524 979.092 486.201 980.119 485.319 975.886C484.085 969.971 479.39 973.168 478.423 980.585C477.918 984.461 476.966 986.304 475.417 986.399C475.179 986.416 472.794 987.757 470.117 989.382C466.159 991.781 464.847 992.173 463.114 991.478C461.283 990.744 460.16 991.254 455.212 995.054C451.479 997.921 447.261 1000.19 443.246 1001.48C439.837 1002.58 434.828 1004.23 432.117 1005.16C426.077 1007.22 422.513 1007.3 420.718 1005.41C419.057 1003.66 419.686 1002.33 422.224 1002.22C426.545 1002.05 418.628 1000.47 410.534 999.898C401.235 999.242 400.024 1000.01 404.486 1003.76L406.845 1005.75L402.976 1006.59C400.849 1007.06 398.265 1007.13 397.235 1006.74C395.795 1006.2 395.065 1006.52 394.063 1008.13C392.643 1010.41 382.475 1012.04 379.638 1010.44C377.323 1009.14 361.496 1007.75 359.805 1008.7C358.646 1009.36 357.624 1008.99 355.581 1007.18L352.888 1004.79L351.222 1006.67C349.129 1009.04 343.837 1008.49 341.504 1005.67C340.011 1003.87 339.84 1003.86 337.489 1005.32C334.742 1007.03 331.796 1007.31 330.991 1005.94C330.696 1005.44 328.055 1005.03 325.119 1005.02C321.167 1005.02 319.11 1004.53 317.193 1003.16C311.314 998.933 305.121 996.169 302.475 996.589C300.25 996.943 299.143 996.34 295.579 992.841C293.243 990.548 290.635 988.673 289.784 988.673C286.776 988.673 281.744 985.094 273.989 977.435C264.411 967.979 263.206 965.539 265.87 960.995C267.901 957.536 266.86 956.574 264.018 959.283C262.14 961.074 258.991 958.894 258.991 955.803C258.991 954.871 258.12 953.684 257.052 953.169C255.986 952.654 254.335 951.078 253.389 949.669C252.439 948.26 249.917 945.706 247.783 943.994C244.035 940.985 240.026 934.17 238.769 928.664C238.435 927.211 237.291 925.977 235.683 925.336C233.854 924.611 233.125 923.714 233.122 922.195C233.117 919.077 230.175 914.519 226.326 911.671C224.469 910.294 221.344 906.446 219.384 903.115C217.066 899.179 214.996 896.753 213.478 896.186C211.796 895.558 210.185 893.429 207.751 888.613C205.891 884.929 204.117 881.707 203.812 881.458C203.255 881.003 195.916 867.335 195.282 865.577C195.097 865.062 192.452 859.135 189.4 852.398C181.744 835.49 180.888 833.2 178.348 822.853C175.694 812.039 170.538 793.474 168.722 788.186C168.008 786.111 167.659 783.639 167.943 782.69C168.269 781.606 167.659 779.818 166.304 777.88C163.699 774.159 163.549 771.891 165.869 771.253C168.344 770.569 167.995 768.096 165.008 765.155C162.654 762.838 162.421 762.086 162.421 756.771C162.421 751.788 162.118 750.635 160.356 748.891C158.683 747.233 158.372 746.205 158.722 743.469C159.027 741.059 158.755 739.748 157.767 738.884C156.955 738.172 156.386 736.289 156.386 734.312C156.386 732.464 155.835 729.142 155.162 726.929C153.887 722.726 152.71 710.737 152.581 700.644L152.506 694.739L146.905 693.948C134.83 692.245 130.009 685.071 129.215 667.62C128.793 658.399 127.471 647.811 125.224 635.679C124.763 633.179 124.018 625.653 123.573 618.953C122.378 601.015 119.32 585.535 114.646 573.789C113.43 570.733 111.837 565.213 111.107 561.522C108.906 550.42 105.663 538.053 102.551 528.916C95.608 508.535 94.4742 497.288 98.2354 486.058C101.632 475.91 113.244 470.248 119.424 475.725C120.808 476.954 122.44 477.758 123.051 477.51C124.499 476.924 126.996 479.882 127.823 483.163C128.625 486.341 131.698 487.167 133.02 484.559C133.656 483.307 133.568 480.587 132.715 475.19C130.526 461.346 130.226 455.354 131.633 453.661C134.088 450.715 134.142 448.411 131.832 445.517C128.749 441.654 127.564 433.994 127.872 419.883C127.898 418.633 128.04 411.582 128.19 404.212C128.428 392.401 128.648 390.665 130.061 389.577C131.659 388.348 131.543 387.301 129.474 384.26C128.602 382.979 128.751 382.226 130.329 379.979C132.693 376.608 132.701 375.943 130.409 372.675C128.123 369.417 128.723 362.363 131.437 360.577C133.392 359.291 133.568 357.819 131.938 356.394C129.367 354.145 129.571 333.79 132.378 312.499C133.299 305.516 133.24 303.951 131.874 298.87C128.39 285.928 128.599 257.416 132.21 253.155C133.749 251.337 135.691 247.824 135.691 246.854C135.691 246.573 134.903 246.341 133.94 246.341C131.193 246.341 131.067 244.34 133.146 233.859C134.215 228.481 135.355 222.443 135.684 220.445C136.649 214.541 149.298 189.403 152.741 186.544C154.361 185.2 157.351 182.464 159.387 180.466C165.884 174.09 170.028 170.926 171.883 170.926C173.712 170.926 178.802 166.189 178.803 164.487C178.803 163.978 177.639 163.135 176.216 162.611C174.793 162.088 173.629 161.091 173.629 160.396C173.629 157.255 183.947 146.6 190.016 143.474C194.501 141.159 197.494 138.572 203.307 131.981C204.688 130.414 206.271 129.13 206.819 129.13C207.37 129.13 208.731 128.109 209.844 126.857C211.98 124.464 215.009 123.799 215.03 125.723C215.072 129.078 216.577 129.476 219.707 126.963C221.412 125.592 224.643 123.627 226.888 122.594C229.133 121.561 234.718 118.317 239.299 115.381C248.662 109.384 248.117 109.531 253.792 111.488C258.65 113.162 261.56 112.192 261.606 108.88C261.64 106.43 263.063 104.361 265.756 102.851C267.215 102.03 267.647 101.185 267.306 99.8086C266.941 98.3394 268.09 96.5976 272.301 92.2227C275.309 89.0989 278.688 84.8086 279.808 82.6934C282.247 78.0759 287.469 74.6193 291.758 74.7773C293.419 74.8373 297.105 73.8474 299.95 72.5771C305.147 70.2548 311.04 68.4784 320.645 66.3359C327.116 64.894 331.102 63.2173 334.509 60.5107C345.233 51.9871 355.672 51.1145 365.527 57.9209C369.273 60.5047 379.041 59.254 386.57 55.2227C395.202 50.6024 400.298 50.5587 404.228 55.0781C407.652 59.0193 408.162 59.0383 408.162 55.2305C408.162 53.5623 408.421 51.9263 408.736 51.5938ZM408.404 951.419C406.162 951.419 406.287 954.167 408.721 958.402C410.074 960.755 411.975 964.748 412.947 967.272C413.927 969.821 415.27 971.863 415.963 971.863C418.164 971.863 417.784 967.477 415.133 962.322C413.72 959.575 411.889 955.996 411.063 954.374C410.241 952.749 409.043 951.419 408.404 951.419ZM401.636 796.502C401.71 795.352 396.351 795.039 393.503 796.028C392.318 796.44 388.373 796.816 384.736 796.865C375.53 796.993 374.487 797.566 378.579 800.256C381.161 801.954 382.923 802.379 386.815 802.254C392.279 802.077 394.147 802.884 390.497 803.849C387.776 804.568 378.192 803.77 374.231 802.494C367.542 800.338 352.102 799.773 347.469 801.515C345.045 802.428 339.763 804.412 335.732 805.931C329.716 808.193 327.168 808.667 321.506 808.58C312.62 808.447 308.484 809.756 304.443 813.983C299.837 818.805 293.484 829.468 293.483 832.385C293.483 835.288 290.729 844.048 288.651 847.753C287.236 850.274 287.252 850.471 289.039 852.864C291.209 855.773 291.295 857.013 289.663 861.922C287.974 867.006 288.833 874.044 291.461 876.645C292.573 877.743 293.483 879.196 293.483 879.872C293.484 880.549 294.731 882.887 296.254 885.07C297.852 887.362 299.04 890.175 299.056 891.718C299.084 894.032 299.612 894.613 302.967 896.017C306.345 897.431 306.823 897.963 306.668 900.13C306.57 901.498 307.247 903.638 308.176 904.881C309.104 906.124 309.865 907.476 309.865 907.885C309.865 908.645 314.954 916.894 315.422 916.894C315.569 916.893 317.335 916.28 319.351 915.531C321.365 914.782 323.96 914.168 325.116 914.168C326.272 914.168 329.279 913.137 331.801 911.881C336.632 909.474 338.787 909.611 339.62 912.374C341.164 917.499 350.632 917.349 355.774 912.118C359.145 908.692 363.343 906.555 364.438 907.708C366.204 909.57 368.113 908.741 371.303 904.721L374.472 900.725L379.272 902.586C383.406 904.191 384.366 904.284 386.192 903.254C388.034 902.215 388.544 902.276 390.052 903.715C391.006 904.628 392.045 905.101 392.361 904.77C392.677 904.437 393.864 904.808 395 905.593C397.527 907.337 399.096 906.282 399.846 902.335C400.785 897.385 406.436 902.66 406.437 908.487C406.437 913.369 408.956 918.308 410.288 916.035C410.757 915.237 416.752 916.888 420.436 918.829C423.02 920.189 424.396 919.706 425.977 916.891C428.465 912.451 431.916 912.279 434.053 916.487C435.478 919.289 436.22 919.282 437.989 916.438C439.841 913.459 440.768 913.598 444.345 917.387C447.907 921.157 448.859 921.023 449.917 916.597C450.685 913.388 452.312 912.263 453.43 914.168C453.722 914.667 455.342 915.076 457.028 915.076C458.715 915.076 461.62 915.98 463.487 917.087C466.26 918.728 467.15 918.894 468.348 917.989C471.159 915.863 472.22 915.692 473.265 917.199C474.879 919.524 475.355 919.012 474.819 915.531C474.462 913.214 474.654 912.312 475.521 912.211C480.412 911.644 482.492 910.461 486.788 905.813C491.227 901.013 491.51 900.062 489.903 895.379C487.544 888.507 493.737 889.785 502.024 897.881C508.509 904.218 507.787 901.386 500.901 893.468C498.059 890.202 496.337 878.894 497.977 874.284C498.468 872.9 498.393 870.972 497.77 868.979C497.229 867.257 496.674 862.306 496.532 857.978C495.562 827.961 481.517 811.696 453.637 808.303C439.676 806.605 437.588 806.263 430.901 804.601C425.82 803.339 407.365 801.908 399.755 802.188C395.409 802.349 395.21 801.682 398.865 799.229C400.355 798.228 401.602 797.001 401.636 796.502ZM230.565 895.869C228.359 893.079 228.333 894.843 230.537 897.813C231.466 899.062 232.235 899.618 232.245 899.048C232.255 898.478 231.499 897.047 230.565 895.869ZM395.484 837.957C400.107 837.079 404.897 838.439 408.865 841.759C409.491 842.282 414.238 840.807 416.934 841.759C419.626 842.71 422.722 840.865 423.672 841.759C429.295 841.759 432.63 843.746 434.053 844.441C439.435 847.072 428.597 866.813 423.672 872.368C422.301 873.914 421.343 876.977 420.436 879.872C419.529 882.766 420.436 881.865 416.934 887.242C413.767 889.423 410.039 892.489 408.647 894.054C405.833 897.218 399.023 898.168 397.057 895.671C396.477 894.938 393.472 894.231 389.633 893.926C385.014 888.205 384.904 890.885 382.283 885.475C380.633 884.558 377.368 877.282 377.368 871.275C374.472 864.176 374.091 859.261 372.017 850.98C372.906 849.958 369.739 845.027 370.269 843.424C371.368 840.101 374.472 840.693 379.272 841.759C380.99 842.514 380.645 841.759 383.376 841.759C391.021 837.956 389.887 839.017 395.484 837.957ZM538.306 835.599C536.275 833.418 536.224 833.993 538.024 838.733C539.602 842.893 541.446 843.733 540.557 839.89C540.238 838.513 539.224 836.583 538.306 835.599ZM507.886 746.074C508.856 746.074 514.218 758.168 514.219 760.36C514.219 761.276 514.715 762.833 515.325 763.817C518.142 768.38 519.009 774.24 516.867 774.24C515.274 774.24 508.152 757.719 508.312 754.394C508.4 752.567 508.173 749.948 507.803 748.574C507.435 747.198 507.472 746.075 507.886 746.074ZM282.272 674.813C288.623 672.415 292.071 671.946 291.564 673.549C291.016 675.282 290.125 675.626 277.815 678.878C273.819 679.936 271.442 679.491 272.394 677.866C272.668 677.4 273.741 676.999 274.778 676.975C275.818 676.95 279.192 675.977 282.272 674.813ZM563.39 521.688C546.405 519.485 543.987 520.507 554.932 525.261C561.897 528.289 564.838 531.021 569.538 538.83C575.151 548.158 570.552 547.853 548.898 537.462C541.643 533.981 539.964 534.376 536.382 540.405C529.77 551.529 507.244 553.119 498.855 543.05C497.474 541.393 495.224 539.476 493.855 538.789C492.487 538.102 490.989 536.631 490.523 535.519C489.266 532.501 487.743 532.324 483.76 534.728C476.672 539.002 468.544 538.596 462.954 533.687C455.502 527.139 436.094 540.583 430.038 556.488C423.83 572.794 429.321 605.267 441.665 625.23C443.362 627.978 445.155 630.887 445.644 631.696C457.982 652.077 478.188 666.295 496.781 667.677C501.672 668.039 504.17 668.612 504.474 669.438C504.717 670.111 505.944 670.648 507.198 670.632C509.161 670.607 509.267 670.476 507.966 669.678C504.394 667.486 507.152 667.08 524.351 667.276C541.363 667.47 542.435 667.38 546.175 665.437C548.337 664.313 552.218 662.736 554.797 661.929C587.204 651.797 612.45 614.008 614.731 572.224C616.436 541.002 601.88 526.678 563.39 521.688ZM231.401 516.279C226.81 512.858 191.747 519.25 183.368 525.034C144.096 552.151 173.12 645.631 224.327 656.951C226.557 657.445 230.129 658.24 232.263 658.72C261.488 665.284 295.933 658.709 315.725 642.79C334.336 627.82 343.337 612.288 349.866 583.888C354.993 561.582 346.711 537.563 334.08 538.116C331.005 538.252 327.16 537.124 322.515 534.723C321.172 534.028 319.098 533.46 317.905 533.46C316.713 533.46 314.65 532.645 313.323 531.65C309.686 528.922 300.194 524.376 298.127 524.375C296.751 524.375 295.656 525.766 293.639 530.086C284.487 549.671 256.961 548.954 250.489 528.957C249.015 524.403 247.096 521.65 245.394 521.649C242.794 521.649 229.26 529.216 225.747 532.632C224.772 533.58 222.123 534.621 219.862 534.948L215.752 535.543L217.156 532.002C219.148 526.973 226.137 520.087 231.696 517.678C232.382 517.378 232.291 516.944 231.401 516.279ZM487.489 576.092C487.49 575.026 491.137 575.084 496.111 576.229C498.246 576.719 504.777 577.719 510.623 578.455C522.982 580.009 525.85 581.075 520.317 582.059C515.964 582.835 509.451 582.113 499.991 579.812C496.197 578.888 491.833 577.864 490.291 577.531C488.749 577.201 487.489 576.552 487.489 576.092ZM471.234 569.76C471.046 569.16 471.356 568.833 471.925 569.032C473.037 569.422 473.236 570.668 472.204 570.782C471.86 570.817 471.426 570.359 471.234 569.76ZM437.904 523.257C427.569 533.191 417.648 543.578 407.366 553.579C403.956 550.801 398.286 549.512 390.306 549.662C389.838 549.671 389.379 549.683 388.931 549.697C388.706 548.649 388.612 547.495 388.676 546.211L388.719 545.573C389.172 540.346 389.494 535.108 389.758 529.865C408.833 532.734 421.911 532.065 429.717 527.845C432.931 526.107 435.65 524.587 437.904 523.257ZM144.957 539.084C142.875 538.662 143.069 539.882 145.733 544.009C146.991 545.952 148.315 548.567 148.677 549.815C149.272 551.86 149.342 551.769 149.37 548.907C149.388 547.157 148.742 544.3 147.935 542.559C147.125 540.814 145.785 539.253 144.957 539.084ZM134.072 505.976C133.664 503.34 132.401 506.232 132.019 510.675C130.78 525.064 135.935 542.651 140.104 538.261C140.661 537.672 139.996 535.741 138.173 532.65C135.86 528.733 135.332 526.825 135.056 521.385C134.678 514.006 134.23 506.995 134.072 505.976ZM443.158 496.907C443.735 497.319 444.343 497.863 444.985 498.562C452.707 504.42 452.929 509.114 446.263 515.42C445.96 515.148 445.472 514.929 444.809 514.753C442.429 514.123 442.004 511.899 443.649 508.663C445.776 504.471 446.003 500.865 444.285 498.564C443.779 497.886 443.388 497.34 443.158 496.907ZM340.266 489.871C349.171 491.109 350.653 494.105 345.123 499.371C342.919 501.469 341.533 502.521 338.598 502.364C338.507 497.975 339.095 493.822 340.266 489.871ZM229.244 442.543C244.62 438.79 266.004 443.426 280.304 453.612C283.725 456.051 286.764 458.044 287.058 458.045C287.347 458.045 289.204 459.422 291.181 461.101C293.157 462.782 298.269 466.318 302.537 468.959C317.635 478.303 323.66 483.007 323.66 485.458C323.66 486.46 325.914 487.533 329.347 488.353C328.397 491.961 327.824 495.734 327.691 499.679C325.884 499.105 323.836 498.438 321.506 497.673C312.864 494.835 304.42 491.43 299.983 488.996C298.103 487.963 295.252 487.121 293.648 487.121C292.045 487.121 289.701 486.51 288.441 485.764C287.181 485.017 280.72 482.111 274.083 479.307C267.445 476.5 261.626 473.886 261.149 473.495C259.921 472.487 249.566 468.337 246.49 467.623C225.957 462.839 218.191 462.678 209.861 466.865C202.212 470.711 188.436 472.69 186.493 470.221C184.936 468.247 192.077 455.32 194.724 455.319C195.306 455.319 198.072 453.776 200.873 451.887C203.674 450.001 206.546 448.491 207.257 448.534C207.968 448.58 209.52 448.253 210.707 447.812C214.085 446.552 221.712 444.383 229.244 442.543ZM627.528 298.945C637.688 297.357 640.714 299.948 639.385 310.245L639.217 311.438C638.587 315.571 637.477 319.531 635.954 323.267C635.607 322.948 635.319 323.588 635.16 325.109C631.786 332.546 626.734 339.013 620.501 344.06C620.254 330.349 619.309 323.317 617.09 317.052C618.3 314.511 619.258 311.746 619.99 308.801L620.276 307.592C621.219 303.397 621.996 300.019 627.028 299.033L627.528 298.945ZM231.927 130.199C229.288 125.702 221.393 131.417 212.696 144.122C211.669 145.621 208.677 149.228 206.044 152.137C203.005 155.492 200.925 158.722 200.348 160.979C199.742 163.347 197.577 166.583 193.862 170.675C188.914 176.126 187.018 178.936 188.935 177.978C189.292 177.8 190.657 177.088 191.969 176.398C200.896 171.702 194.768 184.734 183.939 193.471C181.888 195.128 178.497 198.808 176.407 201.648C174.317 204.491 169.708 209.997 166.164 213.887C162.62 217.776 159.144 222.417 158.438 224.199C157.731 225.979 155.309 230.563 153.054 234.388C147.629 243.593 145.092 248.835 144.194 252.7C140.237 269.734 139.06 291.688 141.941 294.725C142.777 295.602 143.452 297.668 143.452 299.342C143.452 303.196 144.205 303.967 146.152 302.111C148.398 299.969 150.343 301.157 150.374 304.689C150.434 311.229 151.896 304.611 152.493 295.101L153.111 285.255L150.653 285.56L148.193 285.865L147.942 277.852C147.741 271.345 148.106 268.42 149.883 262.276C151.088 258.114 152.073 253.897 152.073 252.907C152.073 250.372 154.293 245.065 155.967 243.602C156.74 242.926 158.499 239.755 159.878 236.555C164.697 225.352 176.573 210.769 187.846 202.21C192.22 198.887 215.76 173.948 216.577 171.768C216.724 171.375 215.793 170.925 214.51 170.765C207.859 169.931 209.606 165.988 219.687 159.07C228.038 153.338 229.021 151.845 224.436 151.845C220.931 151.845 221.602 149.203 227.715 138.948C230.306 134.605 232.2 130.67 231.927 130.199ZM608.194 261.773C616.626 270.368 625.03 278.973 633.386 287.615C630.837 287.513 628.258 287.776 625.842 288.153C620.606 288.972 616.094 291.44 613.116 295.918C612.031 297.55 611.281 299.311 610.751 300.893C610.604 299.979 610.045 298.769 609.38 297.995C608.606 297.093 607.864 295.335 607.734 294.089C607.226 289.203 604.269 281.441 601.92 278.5C603.075 277.514 604.144 276.358 605.068 274.993C607.925 270.776 608.451 266.026 608.194 261.773ZM602.074 223.522C605.705 219.704 609.106 215.285 614.684 221.336L615.677 222.402C618.23 225.117 620.882 227.74 623.534 230.363C623.826 232.859 624.029 235.217 624.187 237.708C624.73 246.297 628.604 256.047 634.802 264.421C641.657 273.678 643.39 277.018 644.318 282.75C644.348 282.932 644.379 283.118 644.41 283.308C629.442 267.785 614.326 252.402 599.192 237.039C593.413 231.171 597.752 227.844 601.364 224.246L602.074 223.522ZM582.645 253.248C588.281 253.315 594.88 248.434 596.624 257.607C597.887 264.25 597.573 267.977 594.664 270.335C593.993 269.517 593.318 268.683 592.664 267.855C588.906 263.102 585.328 259.539 583.367 258.596C580.105 257.026 577.779 255.879 576.019 254.94C577.352 254.554 578.748 254.2 580.308 253.817L582.645 253.248ZM287.017 167.854C277.482 166.611 273.837 166.39 277.849 167.292C281.01 168.006 288.597 171.244 290.01 172.484C290.858 173.231 287.762 174.531 285.103 174.545C278.951 174.578 285.131 178.729 295.638 181.624C297.534 182.147 300.954 183.327 303.238 184.246C307.24 185.857 307.421 185.857 308.267 184.273C309.076 182.758 309.309 182.739 311.2 184.045C312.33 184.824 313.773 185.462 314.407 185.462C316.627 185.462 326.801 194.188 336.628 204.521C339.256 207.283 345.591 216.186 350.707 224.306C362.257 242.634 364.694 244.075 358.515 228.92C356.815 224.758 354.036 217.878 352.337 213.631C350.638 209.382 348.522 204.803 347.635 203.45C346.649 201.954 346.1 199.743 346.225 197.788C346.563 192.511 340.213 186.198 327.111 178.789C314.062 171.408 313.06 170.985 313.861 173.19C314.762 175.66 311.759 175.665 305.915 173.201C302.746 171.866 298.75 170.571 297.035 170.323C295.318 170.075 293.137 169.519 292.19 169.088C291.241 168.654 288.913 168.102 287.017 167.854ZM357.365 109.213C353.545 109.75 353.881 111.786 359.805 123.986C362.976 130.514 364.737 135.181 364.461 136.299C364.024 138.065 369.058 149.866 371.469 152.723C373.74 155.413 378.091 165.498 378.828 169.78C379.239 172.157 381.109 178.604 382.987 184.1C389.007 201.73 389.944 204.884 390.939 210.905C393.438 226.042 400.158 240.273 404.113 238.807C405.334 238.354 405.213 227.216 403.961 224.752C402.163 221.211 401.819 214.54 403.433 214.539C405.445 214.539 404.822 210.463 401.71 203.303C399.11 197.314 399.672 195.055 403.159 197.473C410.365 202.472 414.411 206.836 418.128 213.628C424.9 225.998 429.886 228.225 424.875 216.643C423.225 212.821 421.357 207.41 420.729 204.619C414.474 176.855 399.714 139.273 395.014 139.143C393.894 139.113 394.31 141.58 395.616 142.722C396.302 143.322 397.316 145.256 397.869 147.022C398.423 148.789 400.383 153.036 402.225 156.462C407.709 166.659 406.617 168.513 400.122 160.041C397.833 157.059 394.622 153.074 392.99 151.188C387.905 145.314 382.284 135.867 382.47 133.503C382.684 130.758 379.164 124.586 377.382 124.586C376.422 124.586 376.174 125.235 376.484 126.934C376.906 129.258 376.877 129.25 373.781 126.187C372.061 124.486 369.572 122.387 368.248 121.525C366.926 120.661 364.052 117.521 361.858 114.547C359.668 111.573 357.645 109.172 357.365 109.213ZM286.323 210.071C271.739 203.655 266.483 203.052 275.945 208.883C286.364 215.302 293.439 220.917 300.418 228.304C310.041 238.493 311.95 239.109 307.382 230.55C306.013 227.99 304.425 224.343 303.851 222.446C302.524 218.063 299.275 215.771 286.323 210.071ZM142.453 232.272C142.07 230.275 140.865 231.551 140.865 233.952C140.865 235.29 141.124 235.524 141.807 234.805C142.327 234.259 142.616 233.117 142.453 232.272ZM276.515 223.521C272.04 220.266 270.979 220.167 273.716 223.261C276.965 226.932 282.295 231.174 282.883 230.556C283.625 229.771 280.764 226.609 276.515 223.521ZM146.008 225.954C147.653 222.716 146.675 221.332 144.937 224.437C144.104 225.922 143.76 227.353 144.169 227.62C144.58 227.886 145.408 227.137 146.008 225.954ZM488.379 102.807C483.894 98.4429 482.645 98.1519 484.481 101.892C487.287 107.613 478.26 111.102 475.122 105.506C472.556 100.929 470.469 99.5582 468.666 101.275C466.672 103.181 465.192 103.178 463.192 101.27C461.221 99.3914 460.031 100.435 461.438 102.81C462.013 103.777 462.483 105.786 462.483 107.267C462.483 109.717 462.965 111.445 465.158 116.864C469.708 128.1 472.678 146.352 473.366 167.313C473.987 186.253 476.069 189.739 477.686 174.545C478.221 169.51 478.875 165.163 479.137 164.885C480.36 163.596 481.247 166.024 482.243 173.384C482.841 177.778 483.651 183.213 484.047 185.462C484.44 187.711 485.045 193.416 485.389 198.14C485.828 204.202 486.641 208.215 488.144 211.77C489.313 214.542 490.831 218.778 491.517 221.185C492.256 223.779 493.181 225.404 493.791 225.181C494.895 224.775 494.905 224.302 494.067 212.949C493.713 208.141 493.825 205.453 494.381 205.453C494.859 205.453 495.151 205.78 495.032 206.184C494.913 206.584 495.472 208.324 496.271 210.044C497.071 211.767 497.971 213.994 498.271 214.994L498.814 216.81L499.725 214.994C500.226 213.994 501.212 212.688 501.918 212.094C502.968 211.208 503.046 210.09 502.358 205.876C501.58 201.106 501.662 200.572 503.54 198.438C504.652 197.173 505.337 195.753 505.059 195.278C504.264 193.924 503.915 179.103 504.676 179.103C505.452 179.103 507.094 183.682 509.896 193.64C510.951 197.388 512.741 202.163 513.877 204.251C515.013 206.339 515.949 208.793 515.957 209.703C515.965 210.614 516.353 211.971 516.818 212.721C518.945 216.135 520.299 207.985 518.432 203.014C515.69 195.711 508.184 171.362 508.184 169.762C508.184 167.976 508.235 167.971 509.906 169.562C510.855 170.467 511.632 171.527 511.632 171.923C511.632 172.315 513.14 176.033 514.984 180.185C516.829 184.336 519.329 190.085 520.54 192.958C522.64 197.938 524.565 199.773 524.565 196.799C524.565 196.036 525.535 195.024 526.72 194.55C529.275 193.525 529.586 189.906 527.617 184.1C526.87 181.894 526.552 178.678 526.808 175.922C527.255 171.133 526.911 170.175 524.151 168.564C523.096 167.948 520.452 162.565 517.237 154.483C511.816 140.857 510.266 137.444 504.687 126.857C502.842 123.36 501.323 119.397 501.308 118.053C501.295 116.709 500.891 115.352 500.41 115.038C499.929 114.725 498.781 112.909 497.857 111.004C496.869 108.962 495.35 107.318 494.163 107.005C493.053 106.71 490.451 104.821 488.379 102.807ZM289.386 223.049C287.847 221.247 280.528 217.824 280.575 218.927C280.617 219.875 284.228 222.413 287.723 223.953C291.342 225.545 291.465 225.478 289.386 223.049ZM348.816 147.295C345.686 142.732 342.632 140.301 342.632 142.378C342.632 143.665 349.042 154.26 352.231 158.245C357.71 165.092 353.728 166.283 347.805 159.566C345.327 156.759 340.906 154.097 340.906 155.413C340.908 155.905 343.45 159.287 346.559 162.934C357.014 175.194 365.927 191.086 369.645 204.091C373.881 218.912 374.125 219.54 375.736 219.854C377.26 220.153 377.328 219.75 376.735 213.95C375.649 203.274 375.703 201.365 377.092 201.364C378.812 201.364 381.926 207.348 384.045 214.729C386.029 221.639 387.468 223.392 387.468 218.9C387.468 213.163 380.162 193.032 370.139 171.151C364.72 159.324 364.585 159.15 362.777 161.611C361.448 163.424 356.134 157.98 348.816 147.295ZM284.008 198.555C270.8 194.079 272.966 198.063 287.873 205.674C290.721 207.127 294.798 209.488 296.932 210.922C312.542 221.408 321.309 223.518 307.721 213.52C304.169 210.906 301.032 208.002 300.75 207.064C300.173 205.145 293.61 201.812 284.008 198.555ZM546.465 160.248C545.733 156.263 544.532 158.28 544.644 163.304C544.726 167.117 544.393 168.682 543.314 169.511C541.465 170.939 541.195 175.148 542.121 188.286C542.602 195.112 542.559 199.441 542 200.553C540.316 203.908 540.327 214.007 542.016 214.358C542.957 214.552 543.889 213.808 544.515 212.36C545.748 209.504 546.984 210.139 546.984 213.631C546.984 215.07 547.329 216.474 547.748 216.746C550.547 218.57 552.063 206.89 550.511 195.458C550.004 191.71 548.968 182.715 548.213 175.47C547.458 168.222 546.669 161.374 546.465 160.248ZM442.526 98.252C440.126 94.8313 438.814 94.7225 439.593 98.0098C441.667 106.762 442.803 114.4 443.235 122.542C443.755 132.314 443.53 132.9 440.03 130.927C437.723 129.627 437.651 130.305 437.162 157.98C436.761 180.669 436.818 181.878 438.364 182.75C440.286 183.835 440.677 185.912 441.756 200.765C442.203 206.933 443.026 212.555 443.579 213.258C445.167 215.275 446.963 214.781 446.963 212.325C446.963 211.109 447.408 208.961 447.951 207.555C448.494 206.148 449.291 200.909 449.721 195.913C451.138 179.441 451.425 177.285 452.217 177.285C452.646 177.286 452.998 178.533 452.998 180.057C452.998 181.58 453.621 184.096 454.382 185.647C455.608 188.144 459.899 204.423 461.472 212.532C461.79 214.178 462.439 215.484 462.915 215.433C463.388 215.384 463.645 214.65 463.484 213.803C463.321 212.958 463.03 210.633 462.833 208.632C462.003 200.155 460.569 189.09 459.478 182.736C458.836 178.988 457.662 172.038 456.87 167.292C456.079 162.544 454.7 154.775 453.808 150.026C452.915 145.281 451.751 137.308 451.218 132.309C449.164 113.042 447.027 104.669 442.526 98.252ZM530.336 87.7031C522.273 81.0087 521.606 81.442 527.838 89.3359C531.731 94.2668 532.9 96.8048 540.942 117.771C545.283 129.095 545.081 134.939 540.484 130.918C538.177 128.898 538.156 130.63 540.373 140.194C541.568 145.352 542.799 150.902 543.109 152.526C543.898 156.667 545.161 156.208 545.104 151.801C545.006 144.403 546.767 146.728 549.551 157.678C552.425 168.979 554.709 186.455 555.024 199.547C555.257 209.286 559.055 212.974 559.055 203.461C559.055 201.809 559.508 200.909 560.338 200.909C561.042 200.909 562.195 199.456 562.898 197.682C564.443 193.784 567.384 194.586 568.248 199.141C568.662 201.326 569.192 201.817 571.129 201.817C573.811 201.817 575.268 203.287 576.191 206.926C577.086 210.45 578.237 210.422 579.828 206.844C581.866 202.251 579.826 190.314 574.906 178.081C573.776 175.271 572.853 172.384 572.853 171.664C572.853 170.947 572.154 169.568 571.303 168.598C570.449 167.63 568.747 163.975 567.519 160.478C562.847 147.167 544.941 109.425 539.437 101.277C538.435 99.7971 536.987 96.9736 536.216 95.0029C535.349 92.7977 533.093 89.9955 530.336 87.7031ZM178.79 182.608C178.878 178.732 173.655 182.608 166.981 191.369C165.46 193.367 162.84 196.78 161.161 198.952C158.148 202.85 157.436 204.543 158.82 204.543C159.21 204.54 162.375 201.05 165.851 196.78C169.33 192.512 173.375 188.136 174.842 187.057C177.527 185.083 178.767 183.688 178.79 182.608ZM561.121 172.381C560.702 170.511 560.816 169.934 561.517 170.389C562.06 170.743 562.505 171.98 562.505 173.136C562.505 174.294 563.023 176.824 563.656 178.762C564.851 182.406 565.04 189.453 563.975 190.576C563.641 190.93 563.344 190.843 563.312 190.385C563.062 186.547 561.594 174.485 561.121 172.381ZM417.688 88.5859C415.865 84.2413 413.596 82.5103 411.413 83.7969C409.227 85.0862 409.398 135.486 411.589 135.489C412.546 135.489 414.297 119.882 413.694 116.72C413.348 114.888 413.61 113.666 414.518 112.873C418.162 109.685 419.753 116.712 419.51 134.937C419.386 144.357 419.68 150.517 420.363 152.654C420.938 154.459 421.498 157.774 421.612 160.022C422.381 175.292 425.289 189.215 425.493 178.604C425.713 167.137 426.579 108.924 426.61 103.478C426.631 99.8332 426.223 96.9137 425.597 96.2539C424.769 95.3844 424.541 95.6217 424.53 97.374C424.494 103.6 420.855 102.692 419.872 96.2129C419.554 94.1194 418.571 90.6875 417.688 88.5859ZM573.491 146.167C570.385 137.78 569.127 137.196 569.577 144.349C570.446 158.114 576.606 178.187 579.966 178.192C582.423 178.195 582.038 169.982 579.379 165.681C578.228 163.819 577.019 160.248 576.69 157.751C576.364 155.251 574.924 150.037 573.491 146.167ZM530.601 160.022C529.504 160.022 529.504 163.683 530.601 165.474C531.224 166.487 531.441 165.964 531.451 163.43C531.456 161.558 531.076 160.023 530.601 160.022ZM495.41 160.93C495.206 157.847 495.385 157.098 496.135 157.88C497.394 159.192 497.686 163.964 496.543 164.566C496.049 164.825 495.565 163.271 495.41 160.93ZM529.26 139.353C528.142 133.653 526.883 136.141 527.421 142.985C528.096 151.596 529.544 156.955 530.83 155.601C531.741 154.641 531.236 149.438 529.26 139.353ZM350.65 134.222C347.841 130.106 344.355 127.31 344.354 129.171C344.354 132.235 355.705 150.026 357.658 150.026C360.009 150.026 357.352 144.034 350.65 134.222ZM378.993 99.8281C368.168 93.6842 370.783 98.8791 387.604 116.938C393.694 123.477 398.676 129.329 398.676 129.948C398.676 131.581 403.054 137.369 403.883 136.831C404.268 136.58 404.188 135.051 403.702 133.435C403.216 131.815 402.45 128.244 402.003 125.494C400.989 119.282 398.492 115.218 391.977 109.175C386.687 104.268 386.197 103.917 378.993 99.8281ZM536.638 122.315C536.149 121.997 535.774 122.741 535.773 124.024C535.773 125.273 536.162 126.549 536.638 126.857C537.124 127.176 537.499 126.431 537.499 125.147C537.499 123.899 537.111 122.623 536.638 122.315ZM501.453 101.586C498.815 98.9228 497.837 98.5578 497.837 100.231C497.838 101.467 502.104 106.412 503.17 106.413C504.652 106.413 503.768 103.922 501.453 101.586ZM380.463 83.9932C382.235 86.0157 388.981 90.0585 390.582 90.0586C391.648 90.0586 388.743 87.0574 385.755 85.0703C384.089 83.9636 381.756 82.7425 380.568 82.3555L378.414 81.6572L380.463 83.9932ZM351.253 78.0537C344.352 76.4865 336.879 76.1158 338.061 77.3994C338.632 78.0154 340.766 78.8446 342.805 79.2344C344.843 79.6269 348.84 80.6211 351.686 81.4443C356.166 82.7418 358.799 83.3989 365.048 84.7754C365.759 84.9335 366.535 84.6721 366.773 84.1953C367.231 83.2767 357.774 79.5338 351.253 78.0537Z" fill="#1A1A1A"/>
</g>
<path d="M582.644 253.248C588.281 253.314 594.881 248.434 596.624 257.608C598.68 268.422 596.559 271.51 585.863 273.539C568.665 276.801 557.555 291.555 560.121 307.721C562.849 324.914 579.009 336.453 596.613 333.008C610.294 330.33 617.356 320.588 620.276 307.592C621.249 303.261 622.046 299.802 627.529 298.945C637.688 297.357 640.714 299.948 639.385 310.245C636.087 335.779 614.668 355.046 588.889 355.665C565.852 356.219 542.968 337.037 539.342 314.134C535.422 289.372 551.129 263.023 574.36 255.449C576.822 254.646 579.352 254.051 582.644 253.248Z" fill="#1A1A1A"/>
<path d="M289.314 945.4C284.597 946.04 282.412 948.776 283.222 953.43C283.7 956.179 285.633 958.085 288.525 958.307C291.823 958.56 294.242 956.759 295.178 953.75C296.443 949.683 294.722 946.857 289.314 945.4Z" fill="#1A1A1A"/>
<path d="M327.402 1011.44C271.699 1009.76 217.6 1004.66 165.936 984.423C129.513 970.158 100.786 947.241 81.1802 913.065C77.5124 906.672 77.5491 902.659 83.0743 897.175C134.974 845.665 186.534 793.814 238.313 742.182C243.057 737.452 245.349 733.531 242.785 726.154C237.332 710.463 252.719 694.27 269.423 698.311C277.481 700.259 281.845 697.737 287.043 692.502C366.051 612.928 272.905 707.651 352.088 628.252C359.357 620.962 363.983 627.561 364.808 633.167C366.993 648.008 364.808 676.856 364.808 692.502C364.808 701.978 364.808 717.921 364.808 726.154C364.808 740.353 364.808 763.486 364.808 789.469C364.808 840.3 364.808 813.328 364.808 838.933C364.808 856.529 364.808 863.091 364.808 888.944C364.808 898.274 364.808 907.214 364.808 917.228C364.808 927.241 364.808 930.531 364.808 937.594C364.808 944.656 364.808 950.802 364.808 958.17C364.808 965.538 364.808 971.644 364.808 980.555C364.808 984.966 364.808 988.69 364.808 991.967C364.808 1017.63 363.788 1011.46 327.402 1011.44ZM324.742 686.574C324.742 682.505 324.742 678.437 324.742 672.891C311.977 685.415 300.663 696.5 289.37 707.607C286.969 709.968 287.48 712.706 287.965 715.751C290.251 730.097 280.734 743.877 266.386 742.936C255.47 742.219 250.504 747.699 244.521 753.923C238.891 759.781 233.407 765.812 227.417 771.283C221.908 776.315 220.135 782.105 220.204 789.469C220.538 824.894 220.557 860.324 220.387 895.751C220.345 904.411 220.919 911.545 228.636 918.064C237.511 925.562 235.916 938.823 227.324 946.582C219.151 953.964 206.839 953.651 199.17 945.868C191.133 937.711 190.396 924.259 199.316 917.228C206.636 911.459 207.599 904.598 207.62 896.716C207.708 863.888 207.74 831.06 207.717 798.232C207.716 796.52 208.666 794.257 205.64 793.054C198.887 799.597 191.197 805.454 185.706 813.678C186.927 815.166 187.697 816.178 188.54 817.124C200.206 830.204 199.657 840.18 186.001 851.702C182.084 855.007 182.029 858.976 182.008 863.091C181.849 893.643 181.942 924.197 181.689 954.747C181.638 960.938 183.988 964.642 189.868 966.176C201.48 969.204 213.21 971.837 224.681 975.325C233.896 978.128 236.165 974.635 235.683 966.042C235.273 958.716 234.444 951.181 240.257 944.828C250.097 934.072 249.583 925.068 239.15 914.185C231.115 905.804 230.855 891.936 238.588 884.235C246.672 876.185 260.473 876.595 268.343 885.119C276.022 893.435 275.763 907.498 266.534 914.675C260.781 919.149 259.464 923.98 259.632 930.531C259.778 936.205 261.601 942.856 256.174 947.008C247.604 953.564 247.977 962.385 248.171 971.644C248.292 977.442 251.067 980.103 256.245 980.555C274.028 982.108 291.848 983.267 309.617 984.966C317.795 985.748 319.513 981.867 319.467 974.694C319.225 936.993 319.234 899.289 319.304 861.586C319.313 856.704 317.977 853.328 314.018 849.937C303.889 841.264 303.38 827.428 312.096 818.905C319.993 811.184 333.102 811.367 341.179 819.311C349.334 827.331 348.747 841.229 339.007 849.565C334.444 853.47 333.212 857.616 333.223 863.092C333.302 900.145 333.367 937.199 333.124 974.25C333.076 981.712 334.726 985.678 343.322 985.654C352.325 985.628 352.053 980.331 352.048 974.104C351.993 903.898 352.035 833.692 351.98 763.486C351.978 760.729 353.017 757.599 350.263 755.191C347.407 755.538 345.892 757.796 344.092 759.579C329.776 773.76 315.617 788.105 301.106 802.084C296.263 806.75 294.406 811.806 294.445 818.467C294.644 852.268 294.57 886.072 294.37 919.873C294.327 927.243 295.041 933.116 301.839 938.415C310.617 945.255 310.017 959.74 302.313 967.147C294.545 974.615 280.333 974.648 273.043 967.214C265.116 959.13 264.872 944.456 273.853 937.594C279.766 933.076 280.611 928.01 280.606 921.639C280.579 886.884 280.874 852.127 280.598 817.374C280.528 808.626 282.926 801.92 289.36 795.785C308.642 777.398 327.387 758.447 346.549 739.931C350.368 736.24 352.121 732.381 352.088 727.105C351.936 702.729 352.054 678.351 351.986 653.974C351.98 651.917 352.887 649.313 349.793 648.008C341.188 653.237 336.628 660.143 337.428 671.051C338.33 683.334 337.302 695.747 337.7 708.085C337.918 714.816 335.69 719.724 330.929 724.407C309.612 745.374 289.118 767.214 267.197 787.519C255.893 797.99 248.636 808.679 251.288 824.501C251.655 826.688 251.21 829.043 250.94 831.296C250.509 834.885 248.953 837.365 244.798 837.418C240.255 837.476 238.202 834.939 237.995 830.866C237.698 825.03 237.913 819.168 237.668 813.328C237.265 803.708 240.278 796.225 247.695 789.292C267.869 770.437 286.495 749.889 307.102 731.548C320.656 719.483 327.951 706.481 324.742 686.574ZM168.876 912.297C168.863 898.321 167.955 884.271 169.108 870.392C170.123 858.181 166.1 849.936 155.52 844.453C141.49 853.966 139.629 877.741 152.038 888.944C160.277 896.382 160.576 910.508 152.67 918.801C144.9 926.953 131.71 926.971 123.873 918.841C115.718 910.381 115.338 895.97 124.555 889.426C132.611 883.706 132.289 877.157 130.99 868.908C125.993 870.992 123.437 874.88 120.302 877.998C99.3593 898.831 99.3199 898.922 118.036 922.027C131.154 938.223 147.856 949.308 167.077 956.812C167.944 955.3 168.524 954.758 168.53 954.209C168.682 940.889 168.773 927.568 168.876 912.297ZM273.284 715.318C269.719 711.164 265.445 709.617 260.532 712.619C256.157 715.292 254.698 719.588 256.486 724.297C258.383 729.291 262.778 730.611 267.599 729.414C274.442 727.714 275.486 722.733 273.284 715.318ZM131.223 907.214C133.293 911.122 136.163 913.441 140.63 911.038C144.052 909.196 146.059 906.187 144.922 902.148C143.935 898.641 141.103 896.529 137.615 896.869C132.528 897.365 130.557 900.908 131.223 907.214ZM318.872 834.076C320.144 839.367 323.485 841.652 328.759 840.3C332.225 839.412 334.089 836.611 333.948 833.143C333.804 829.581 331.374 827.3 327.984 826.54C322.918 825.405 320.198 828.106 318.872 834.076ZM171.862 827.056C166.349 831.787 166.372 836.349 172.751 840.049C175.346 841.554 178.466 841.14 180.853 838.933C182.861 837.075 184.006 834.595 183.057 831.962C181.41 827.393 177.915 825.603 171.862 827.056ZM248.508 893.75C245.718 896.719 245.13 900.086 247.435 903.459C249.464 906.429 252.578 907.525 255.984 906.112C259.344 904.717 261.106 901.855 260.199 898.274C258.801 892.756 254.909 891.363 248.508 893.75ZM282.33 947.178C278.935 950.837 278.512 954.564 282.504 957.981C285.277 960.354 288.462 960.078 291.4 958.17C294.053 956.447 295.554 953.92 294.158 950.802C292.044 946.081 288.621 943.844 282.33 947.178ZM207.604 927.615C206.106 932.081 206.143 936.154 211.434 937.886C214.77 938.978 217.816 937.97 219.949 934.914C221.971 932.017 221.221 929.197 219.215 926.887C215.926 923.1 212.177 922.529 207.604 927.615Z" fill="#1A1A1A"/>
<path d="M354.881 444.216C354.361 434.805 353.948 426.041 354.138 417.291C354.286 410.509 351.287 408.065 344.767 408.152C329.832 408.351 314.886 408.443 299.955 408.099C291.781 407.91 288.528 410.579 288.714 419.345C289.257 444.989 288.317 470.672 289.19 496.298C289.599 508.294 283.662 514.698 274.982 520.428C270.83 517.683 272.181 513.757 272.171 510.447C272.064 477.648 272.064 444.848 272.144 412.048C272.181 396.919 277.301 391.857 292.845 391.743C310.055 391.616 327.272 391.584 344.477 391.931C351.515 392.072 354.344 389.597 354.317 382.375C354.137 334.312 354.194 286.249 354.279 238.186C354.287 233.644 352.982 230 349.588 226.971C346.44 224.162 343.854 220.542 340.353 218.341C323.495 207.738 319.985 192.504 320.714 173.439C322.076 137.769 321.077 102.009 321.067 66.2866C321.066 63.6888 321.136 61.091 321.133 58.4932C321.128 53.4922 323.053 50.5526 328.599 50.5757C333.931 50.5981 335.174 53.797 335.233 58.1599C335.321 64.6539 335.377 71.1488 335.374 77.6433C335.36 111.742 336.194 145.874 334.898 179.925C334.319 195.143 341.827 202.893 352.791 210.379C354.929 206.185 354.077 202.257 354.081 198.491C354.132 153.026 354.242 107.56 353.939 62.0969C353.882 53.5103 352.793 45.5431 357.708 45.5431C359.893 45.5431 359.893 45.5431 362.077 45.543C363.716 45.543 366.009 46.6357 366.009 49.9127C366.009 53.1898 366.009 51.0042 366.009 52.0969C366.009 55.3737 366.009 63.5655 366.009 58.1596C366.009 65.2034 365.367 99.6096 366.009 73.9418C365.916 67.3879 366.009 85.4006 365.532 89.7792C365.011 119.27 365.532 97.3038 365.532 110.532C364.263 130.661 366.009 122.001 366.009 131.831C366.009 141.661 366.009 152.583 366.009 162.96C366.009 189.719 365.532 179.925 366.009 191.358C364.446 195.741 369.316 265.068 366.009 268.36C366.009 361.201 366.009 399.975 366.009 438.322C366.009 442.406 361.155 446.567 354.881 444.216Z" fill="#1A1A1A"/>
<path d="M211.491 236.127C219.286 247.524 229.459 255.731 238.526 264.973C255.577 282.352 272.941 299.424 290.274 316.522C292.464 318.682 294.156 321.854 299.144 321.889C299.847 307.918 302.994 294.567 289.184 283.325C275.91 272.518 264.793 259.095 252.35 247.217C247.025 242.133 244.439 236.755 244.735 229.277C245.236 216.634 244.441 203.934 245.095 191.306C245.524 183.041 242.531 177.273 236.766 171.702C224.166 159.525 212.337 146.549 199.696 134.416C194.486 129.415 192.739 123.925 192.759 117.104C192.826 95.0282 192.579 72.9512 192.675 50.8756C192.699 45.359 191.389 41.3089 186.827 37.442C176.569 28.7486 175.916 15.4666 184.384 6.40435C192.351 -2.1206 205.709 -2.1369 213.957 6.36824C222.621 15.3014 221.96 27.9764 211.749 37.2823C208.257 40.4641 206.885 43.6682 206.909 48.2119C207.024 70.2878 207.085 92.3667 206.807 114.44C206.731 120.455 208.711 124.996 212.857 129.139C225.946 142.218 238.779 155.555 251.931 168.569C256.146 172.74 258.134 177.221 258.011 183.214C257.732 196.826 258.302 210.46 257.848 224.063C257.61 231.187 259.974 236.316 265.041 241.164C279.346 254.855 293.213 269.002 307.411 282.807C311.573 286.855 314.214 291.128 314.146 297.216C313.866 322.212 313.862 347.211 313.725 372.209C313.697 377.29 313.493 382.405 306.377 382.281C302.793 382.218 300.025 380.856 299.669 376.767C299.528 375.152 299.214 373.466 299.51 371.914C303.398 351.523 294.412 337.566 279.577 324.067C254.151 300.934 230.741 275.596 206.135 251.542C200.309 245.847 197.679 239.964 197.993 231.834C198.431 220.481 199.761 209.372 189.296 199.858C181.651 192.909 185.001 178.564 193.159 172.07C201.631 165.325 213.195 165.935 220.586 173.516C228.051 181.173 229.988 195.47 221.43 201.555C208.175 210.979 211.348 223.174 211.491 236.127ZM211.033 184.725C208.245 181.197 205.022 180.024 201.324 183.291C198.912 185.421 198.592 188.328 199.69 191.164C200.903 194.296 203.69 195.201 206.733 194.623C211.589 193.699 212.473 190.277 211.033 184.725ZM198.123 14.5799C193.892 15.803 191.001 18.1322 192.589 22.9545C193.597 26.0133 196.239 27.4598 199.507 27.1355C202.741 26.8145 205.011 25.023 205.495 21.7461C206.151 17.2962 203.608 15.2114 198.123 14.5799Z" fill="#1A1A1A"/>
<path d="M71.2441 762.473C82.0133 736.495 101.748 722.548 124.798 724.028C158.833 726.213 179.083 759.027 166.574 791.725C158.376 813.152 137.002 828.034 115.501 827.283C94.9167 826.565 77.3256 813.467 70.9699 793.791C67.6996 783.667 67.7058 773.405 71.2441 762.473ZM127.658 746.09C124.754 745.86 121.846 745.393 118.946 745.438C103.964 745.67 91.0216 757.907 89.8419 772.81C88.6221 788.22 97.5873 801.547 111.248 804.629C128.403 808.501 142.449 801.016 147.671 785.219C153.177 768.561 146.611 754.909 127.658 746.09Z" fill="#1A1A1A"/>
<path d="M265.62 159.574C250.069 148.364 243.923 134.187 246.49 115.533C248.079 103.987 247.234 93.1047 236.515 84.0098C228.094 76.865 230.894 62.4047 239.516 55.5393C248.072 48.7273 260.388 49.7515 267.673 57.881C275.264 66.3523 275.755 79.7971 267.212 86.8259C261.163 91.8039 260.441 97.1969 259.41 104.215C256.099 126.771 263.571 144.012 282.038 156.795C294.193 165.209 299.146 176.598 296.634 191.139C292.194 216.831 300.161 237.343 321.752 252.373C337.085 263.047 341.308 277.671 340.164 296.121C338.6 321.363 339.737 346.772 339.648 372.108C339.632 376.538 340.587 381.962 333.658 382.085C326.483 382.212 326.667 376.905 326.67 371.849C326.682 342.939 326.518 314.028 326.773 285.12C326.828 278.79 325.125 274.058 320.452 269.673C310.983 260.786 302.494 250.805 292.664 242.368C284.545 235.4 282.425 227.151 283.03 217.3C283.368 211.794 282.836 206.166 283.759 200.775C286.764 183.214 280.648 169.872 265.62 159.574ZM257.234 76.3881C260.313 73.274 260.195 70.1617 256.987 67.3045C254.605 65.1838 251.832 64.7523 249.087 66.6405C246.424 68.4734 245.3 71.2378 246.509 74.179C248.39 78.757 252.176 78.6084 257.234 76.3881Z" fill="#1A1A1A"/>
<path d="M694.136 239.756C689.284 235.035 684.907 230.808 681.02 227.054C670.967 237.115 661.205 246.885 650.549 257.551C657.242 264.354 664.181 271.947 671.708 278.904C679.112 285.747 673.01 289.29 669.006 293.783C664.734 298.578 661.018 300.647 655.517 294.882C636.938 275.414 618.079 256.211 599.192 237.04C593.027 230.78 598.375 227.412 602.074 223.522C605.705 219.704 609.105 215.284 614.683 221.336C619.953 227.052 625.71 232.317 631.056 237.967C634.471 241.575 637.61 241.562 641 238.157C648.319 230.805 655.581 223.395 663.004 216.151C666.191 213.042 665.144 210.539 662.592 207.859C657.001 201.99 651.567 195.968 645.862 190.212C639.097 183.386 645.978 180.077 649.374 175.934C652.847 171.698 656.419 169.527 661.363 174.59C680.618 194.312 700.232 213.684 719.375 233.513C727.553 241.985 716.478 244.687 713.475 249.592C710.426 254.572 706.747 253.367 703.312 249.427C700.545 246.252 697.522 243.3 694.136 239.756Z" fill="#1A1A1A"/>
<path d="M269.462 660.011C274.762 663.792 277.076 659.433 279.638 656.962C288.515 648.397 297.369 639.789 305.827 630.816C310.762 625.58 313.984 627.969 317.782 631.962C321.38 635.745 324.55 638.836 319.238 643.992C304.562 658.236 290.139 672.745 275.78 687.311C271.973 691.173 268.755 691.229 265.098 687.412C246.008 667.49 226.929 647.559 207.749 627.725C203.641 623.477 204.299 620.121 208.333 616.242C222.138 602.971 235.824 589.574 249.421 576.089C254.278 571.272 258.012 572.355 262.605 576.753C267.748 581.678 265.445 584.967 261.621 588.856C253.884 596.723 246.485 604.928 238.653 612.698C232.446 618.856 234.339 623.737 239.633 629.308C245.524 635.507 249.179 631.464 253.202 627.356C259.789 620.631 266.509 614.032 272.951 607.171C276.799 603.073 279.939 603.477 283.393 607.558C286.488 611.215 291.202 614.308 285.874 619.67C280.153 625.426 274.565 631.316 268.828 637.056C257.704 648.186 257.677 648.16 269.462 660.011Z" fill="#1A1A1A"/>
<path d="M537.522 425.063C535.648 426.924 534.106 428.169 532.917 429.691C528.043 435.928 523.564 436.058 517.937 430.109C500.107 411.256 481.975 392.689 463.847 374.121C459.574 369.744 458.205 365.944 463.243 361.018C477.151 347.419 490.963 333.715 504.487 319.737C510.498 313.525 513.975 318.3 518.265 321.696C523.71 326.005 520.844 329.235 517.349 332.771C508.686 341.533 500.268 350.541 491.509 359.204C484.458 366.177 490.947 369.854 494.685 374.389C499.358 380.058 503.051 376.907 506.727 373.204C513.811 366.067 521.067 359.086 527.897 351.712C532.514 346.727 535.624 349.324 539.129 352.861C542.531 356.294 545.589 359.275 540.556 364.039C533.493 370.724 527.071 378.088 519.985 384.746C512.95 391.356 516.13 396.182 521.394 401.861C527.226 408.152 531.165 405.409 535.721 400.568C542.389 393.483 549.341 386.665 556.215 379.774C568.18 367.779 569.181 367.929 579.027 383.833C565.492 397.28 551.754 410.928 537.522 425.063Z" fill="#1A1A1A"/>
<path d="M152.805 710.91C133.539 691.518 133.521 691.5 152.588 672.406C158.087 666.9 163.431 661.187 169.352 656.166C182.834 644.735 200.444 644.251 213.166 654.505C227.002 665.656 230.364 682.958 221.966 699.092C217.826 707.047 211.168 712.847 205.018 719.023C200.267 723.794 199.116 727.942 204.641 732.777C206.578 734.472 208.102 736.635 209.842 738.559C218.825 748.49 218.588 748.209 208.557 756.875C203.741 761.035 200.772 760.757 196.516 756.227C182.304 741.099 167.727 726.314 152.805 710.91ZM200.683 697.093C207.745 686.379 207.505 678.499 199.922 672.074C192.475 665.764 185.644 666.637 175.957 675.538C171.468 679.661 166.636 683.557 163.609 688.986C165.089 693.392 168.471 696.049 171.361 699.039C185.685 713.864 185.705 713.844 200.683 697.093Z" fill="#1A1A1A"/>
<path d="M302.346 561.554C310.077 564.997 315.5 560.544 321.027 557.496C327.551 553.898 333.683 549.528 340.823 547.185C351.047 543.829 361.068 544.341 368.919 552.26C376.233 559.638 378.466 569.111 375.411 579.247C368.553 602 351.719 614.131 330.014 620.373C322.013 622.674 319.716 619.161 317.869 603.84C324.432 601.687 331.277 599.935 337.703 597.201C345.014 594.09 350.987 589.131 354.017 581.359C355.475 577.617 356.704 573.898 353.308 570.529C350.111 567.357 345.928 567.229 342.419 568.874C335.105 572.305 328.114 576.439 321.071 580.425C312.507 585.271 303.76 587.261 294.075 583.785C279.664 578.614 273.438 564.755 279.72 548.789C287.086 530.069 302.597 519.492 320.067 511.479C326.174 508.677 328.085 513.625 329.546 518.041C331.11 522.768 334.365 528.212 326.556 530.762C318.729 533.317 311.347 536.938 305.737 542.873C301.062 547.818 294.943 553.336 302.346 561.554Z" fill="#1A1A1A"/>
<path d="M444.986 498.562C452.901 504.566 452.939 509.35 445.754 515.897C432.32 528.137 419.872 541.452 406.816 554.117C404.116 556.736 402.023 562.141 396.613 558.758C391.853 555.781 388.121 552.489 388.72 545.573C389.979 531.042 390.239 516.425 390.986 501.847C391.258 496.552 390.286 491.421 388.561 486.539C385.443 477.717 377.683 475.287 369.876 480.505C364.255 484.262 360.84 489.618 358.994 496.139C355.221 509.472 354.711 509.754 339.287 509.311C336.426 493.003 342.578 479.823 353.508 468.32C363.353 457.96 375.228 452.944 389.579 456.587C401.369 459.579 409.36 471.212 409.699 485.711C409.979 497.682 409.756 509.665 409.756 522.894C418.475 514.655 426.309 507.289 434.097 499.874C437.19 496.929 440.062 493.197 444.986 498.562Z" fill="#1A1A1A"/>
<path d="M454.756 428.448C465.604 439.207 475.686 449.782 486.437 459.629C492.973 465.616 493.975 470.253 486.068 475.487C483.422 477.238 481.212 479.647 478.569 481.959C460.32 463.853 442.451 446.123 424.471 428.284C416.425 431.812 411.98 438.419 406.438 443.632C402.573 447.267 399.457 447.784 395.936 443.456C392.776 439.571 387.417 436.281 393.162 430.531C409.887 413.79 426.577 397.012 443.36 380.328C448.944 374.776 452.538 379.837 456.461 383.068C460.775 386.621 460.458 390.059 456.393 393.481C450.2 398.694 443.982 403.874 438.068 408.823C443.076 418.263 449.385 422.502 454.756 428.448Z" fill="#1A1A1A"/>
<path d="M82.1781 854.56C87.4635 849.247 92.4663 844.606 97.009 839.552C101.156 834.939 104.681 834.641 109.098 839.24C113.178 843.487 116.869 846.939 110.961 852.761C97.1148 866.403 83.587 880.369 69.983 894.256C66.4315 897.881 63.4261 897.287 60.1367 893.812C41.2049 873.811 22.3294 853.753 3.13579 834.005C-3.84098 826.827 2.45889 823.49 6.29128 818.991C10.3333 814.246 14.106 812.712 19.0844 817.965C31.7864 831.369 44.7232 844.551 57.5468 857.84C68.0986 868.774 68.0868 868.787 78.9718 857.827C79.885 856.908 80.7875 855.978 82.1781 854.56Z" fill="#1A1A1A"/>
<path d="M236.261 928.525C235.314 941.141 229.505 948.397 219.612 950.178C210.046 951.9 201.372 947.545 197.021 938.835C192.775 930.334 194.575 920.988 203.278 913.612C208.04 909.576 208.311 905.024 208.302 899.78C208.242 862.147 208.461 824.512 208.018 786.885C207.906 777.427 211.859 771.783 219.498 767.576C223.777 770.843 222.194 775.069 222.213 778.679C222.422 818.581 222.544 858.485 222.468 898.387C222.455 905.17 223.084 910.917 229.473 915.19C233.521 917.897 235.573 922.67 236.261 928.525ZM218.815 935.422C222.777 932.903 223.978 929.614 220.922 925.746C218.991 923.301 216.176 922.32 213.133 923.744C210.221 925.107 208.629 927.586 209.212 930.792C210.062 935.458 213.004 937.25 218.815 935.422Z" fill="#1A1A1A"/>
<path d="M321.025 906.732C321.04 890.831 320.954 875.904 321.126 860.98C321.182 856.145 319.915 852.658 316.022 849.213C306.396 840.699 306.139 826.504 314.718 818.091C322.571 810.389 335.927 810.57 343.692 818.484C352.135 827.087 351.398 841.012 341.083 849.248C335.949 853.348 335.21 857.912 335.23 863.63C335.354 898.673 335.334 933.717 335.359 968.761C335.361 971.356 335.412 973.955 335.318 976.547C335.131 981.728 335.847 987.418 327.727 987.19C320.133 986.976 321.05 981.616 321.041 976.82C320.998 953.782 321.024 930.744 321.025 906.732ZM330.926 826.992C326.346 825.596 323.397 827.34 322.358 831.876C321.723 834.649 323.153 836.771 325.568 838.253C328.112 839.814 330.552 839.575 332.538 837.517C335.773 834.165 335.667 830.756 330.926 826.992Z" fill="#1A1A1A"/>
<path d="M148.626 603.054C135.617 613.487 122.599 612.544 115.453 601.292C110.461 593.432 111.358 582.761 117.577 576.018C123.99 569.065 134.496 566.596 142.329 572.37C150.193 578.167 154.54 575.687 160.204 569.67C176.659 552.187 193.703 535.258 210.249 517.857C215.069 512.789 220.192 510.153 227.323 510.538C236.386 511.028 245.491 510.763 254.579 510.756C259.366 510.752 261.642 512.912 261.712 517.827C261.783 522.827 259.422 524.913 254.663 524.896C247.199 524.869 239.706 525.286 232.278 524.764C224.823 524.241 219.574 526.852 214.447 532.318C198.022 549.83 181.376 567.167 164.095 583.825C158.187 589.52 150.932 593.653 148.626 603.054ZM137.882 593.885C140.732 589.636 138.944 586.552 135.089 584.506C132.43 583.096 129.471 583.213 127.238 585.723C125.386 587.805 124.754 590.358 126.279 592.765C128.984 597.036 132.681 597.577 137.882 593.885Z" fill="#1A1A1A"/>
<path d="M293.803 764.077C283.196 774.62 273.414 785.051 262.833 794.597C255.989 800.772 252.516 807.432 253.621 816.693C254.154 821.159 253.636 825.758 253.487 830.294C253.365 833.976 251.838 836.525 247.728 836.671C243.795 836.81 239.867 835.787 239.89 831.357C239.973 815.771 235.326 800.234 250.759 786.772C274.404 766.148 295.516 742.633 317.911 720.555C322.867 715.67 325.433 710.562 325.062 703.431C324.541 693.405 325.459 683.294 324.742 673.293C324.046 663.585 329.026 658.478 336.327 654.429C340.07 656.666 339.231 659.872 339.241 662.624C339.3 678.188 339.112 693.753 339.224 709.316C339.264 714.819 337.715 719.355 333.785 723.317C320.544 736.665 307.444 750.154 293.803 764.077Z" fill="#1A1A1A"/>
<path d="M139.943 559.041C127.042 552.112 122.824 542.81 126.972 531.722C130.6 522.022 140.66 517.249 152.759 520.592C158.006 522.042 161.31 520.92 164.769 517.305C173.507 508.174 182.551 499.334 191.212 490.132C195.733 485.329 200.736 483.022 207.483 483.199C222.383 483.59 237.3 483.396 252.21 483.394C257.538 483.394 261.949 484.036 261.621 491.179C261.3 498.171 256.384 497.49 251.915 497.514C238.302 497.589 224.686 497.656 211.075 497.448C205.515 497.363 201.216 498.972 197.384 503.214C191.09 510.182 184.222 516.63 177.667 523.365C171.655 529.543 165.618 534.91 165.348 545.284C165.081 555.557 153.228 561.221 139.943 559.041ZM143.706 545.76C148.205 546.093 151.319 544.532 151.49 539.576C151.587 536.744 150.058 534.732 147.344 533.766C144.613 532.793 142.084 533.435 140.485 535.711C137.913 539.373 137.939 542.87 143.706 545.76Z" fill="#1A1A1A"/>
<path d="M198.006 829.643C198.875 837.764 196.277 844.052 190.485 848.311C184.759 852.521 183.652 857.766 183.698 864.337C183.901 893.191 183.773 922.047 183.698 950.902C183.688 954.715 184.377 958.681 182.203 962.474C173.709 963.539 170.611 959.781 170.672 951.489C170.888 921.988 170.639 892.483 170.782 862.98C170.81 857.174 169.935 852.583 164.84 848.631C157.877 843.229 155.206 835.622 158.444 826.952C161.442 818.923 172.149 811.49 179.446 811.87C188.743 812.355 194.761 817.929 198.006 829.643ZM173.013 837.522C176.99 840.403 180.308 839.374 182.918 835.617C184.94 832.707 183.846 830.015 181.556 827.837C179.27 825.662 176.468 824.771 173.642 826.678C169.706 829.332 169.204 832.753 173.013 837.522Z" fill="#1A1A1A"/>
<path d="M262.033 927.543C262.302 937.586 261.771 946.154 253.622 952.9C248.015 957.542 250.528 965.031 250.129 971.367C249.867 975.527 250.669 980.345 244.258 980.41C238.041 980.474 236.963 976.465 237.018 971.328C237.14 959.805 235.405 948.303 246.22 939.242C252.02 934.382 249.241 921.117 242.968 914.981C232.19 904.44 232.334 888.655 243.273 881.395C252.553 875.236 264.212 876.959 271.212 885.524C277.837 893.63 277.521 905.295 269.632 912.821C265.434 916.826 262.081 920.704 262.033 927.543ZM255.666 892.078C251.393 891.871 248.698 894.067 248.52 898.132C248.383 901.265 250.733 903.408 253.889 904.075C257.053 904.743 259.858 903.729 261.202 900.771C263.146 896.496 260.259 894.264 255.666 892.078Z" fill="#1A1A1A"/>
<path d="M157.362 477.681C170.473 458.677 187.841 454.214 209.419 457.11C223.387 458.985 237.885 456.862 252.147 456.625C257.565 456.535 263.058 456.714 262.774 464.413C262.495 471.994 256.694 470.665 252.04 470.684C232.575 470.765 213.101 471.028 193.648 470.527C185.763 470.324 179.96 472.917 174.865 478.573C170.747 483.144 166.002 487.148 161.864 491.702C151.024 503.631 137.955 499.238 124.679 498.19C125.231 489.282 128.767 484.861 136.891 485.537C144.778 486.192 151.722 484.775 157.362 477.681Z" fill="#1A1A1A"/>
<path d="M251.484 366.643C244.07 359.289 238.457 351.872 226.368 351.94C215.35 352.002 208.091 339.412 210.014 328.516C212.007 317.22 222.012 310.105 233.52 311.798C244.798 313.458 253.986 324.507 251.129 335.559C248.901 344.18 252.32 348.953 257.634 354.137C263.889 360.24 269.879 366.616 275.952 372.905C278.735 375.788 279.955 378.704 276.431 382.077C273.243 385.128 270.143 385.216 267.077 382.238C261.969 377.277 256.997 372.177 251.484 366.643ZM231.949 325.605C227.017 324.55 224.565 327.536 223.586 331.539C222.818 334.675 224.898 337.202 227.805 338.374C230.827 339.592 233.657 338.61 235.483 335.945C238.217 331.955 237.075 328.664 231.949 325.605Z" fill="#1A1A1A"/>
<path d="M200.128 396.588C192.777 386.119 192.421 377.051 198.532 369.354C204.141 362.289 214.658 359.719 223.16 363.336C231.897 367.053 236.69 376.661 235.185 387.441C233.827 397.169 238.447 402.712 248.33 403.137C251.561 403.276 254.799 403.243 258.031 403.349C262.113 403.483 263.564 405.866 263.608 409.693C263.653 413.491 262.432 416.12 258.221 416.059C246.923 415.898 234.578 419.433 226.838 406.778C224.647 403.195 220.821 402.175 216.617 402.6C210.497 403.219 205.086 401.589 200.128 396.588ZM218.693 387.488C222.335 384.259 222.332 380.75 219.104 377.373C216.771 374.932 213.887 374.97 211.127 376.806C208.462 378.58 206.768 381.168 208.121 384.253C209.874 388.25 212.951 390.337 218.693 387.488Z" fill="#1A1A1A"/>
<path d="M131.507 883.756C135.353 875.428 133.551 867.247 133.47 859.302C133.383 850.82 137.807 846.631 146.693 841.56C146.693 854.193 146.749 864.66 146.666 875.125C146.632 879.472 147.314 882.878 151.269 886C162.266 894.681 163.427 909.182 154.496 918.057C146.182 926.318 132.83 926.095 125.005 917.562C116.577 908.374 118.541 893.899 129.376 885.391C129.884 884.992 130.446 884.664 131.507 883.756ZM145.46 907.459C148.249 903.774 147.155 900.664 143.638 898.463C140.673 896.608 137.34 896.635 134.725 899.265C132.386 901.617 132.236 904.719 134.181 907.239C137.014 910.91 140.699 910.923 145.46 907.459Z" fill="#1A1A1A"/>
<path d="M210.606 425.407C214.375 429.546 218.39 430.819 223.274 430.713C233.959 430.483 244.654 430.713 255.344 430.648C260.395 430.617 263.296 432.485 263.275 437.997C263.253 443.503 259.474 444.334 255.432 444.407C242.803 444.635 230.169 444.638 217.536 444.691C212.701 444.712 208.836 442.552 205.521 439.179C195.304 428.781 185.131 418.338 174.803 408.051C170.997 404.261 169.857 400.621 173.827 396.324C178.593 391.166 181.447 396.056 184.122 398.652C192.951 407.222 201.454 416.128 210.606 425.407Z" fill="#1A1A1A"/>
<path d="M97.6302 632.881C108.799 619.185 121.132 618.68 132.316 631.323C135.315 634.715 138.528 635.406 142.531 635.634C147.244 635.903 152.198 634.428 157.402 637.469C153.569 643.765 149.989 649.676 141.632 649.639C137.735 649.621 135.183 651.318 132.578 654.242C124.242 663.595 114.616 665.638 105.741 660.558C96.5828 655.317 93.4295 645.284 97.6302 632.881ZM119.521 647.648C122.627 644.239 122.867 640.802 119.185 637.756C117.075 636.011 114.455 635.83 112.043 637.299C109.552 638.817 108.911 641.303 109.538 643.965C110.68 648.818 114.042 649.631 119.521 647.648Z" fill="#1A1A1A"/>
<path d="M308.764 123.041C298.764 136.273 287.305 138.54 276.79 130.007C268.363 123.169 267.267 110.2 274.352 101.144C280.203 93.6655 290.141 91.2478 298.831 95.1891C308.768 99.6958 312.181 108.704 308.764 123.041ZM293.458 119.823C296.539 117.451 298.512 114.703 295.784 110.913C293.657 107.957 290.556 107.347 287.23 108.355C283.929 109.356 282.698 111.986 283.453 115.12C284.534 119.608 287.744 121.169 293.458 119.823Z" fill="#1A1A1A"/>
<path d="M195.25 589.74C197.178 593.175 199.822 595.143 202.942 595.981L150.16 646.684C148.203 648.564 145.091 648.501 143.211 646.544C141.331 644.586 141.393 641.475 143.351 639.595L195.25 589.74ZM357.986 433.418C359.944 431.538 363.055 431.6 364.936 433.558C366.816 435.515 366.753 438.626 364.796 440.507L220.29 579.316C219.578 576.908 218.335 574.399 216.519 571.901C215.965 571.531 215.415 571.196 214.872 570.892L357.986 433.418Z" fill="#1A1A1A"/>
<path d="M197.503 573.525C202.86 567.941 209.208 567.007 216.52 571.901C224.637 583.066 221.338 594.437 210.087 596.201C203.822 597.183 198.446 595.55 195.179 589.614C191.933 583.716 193.106 578.109 197.503 573.525ZM211.034 577.747C207.862 575.628 205.108 576.032 202.784 578.45C200.876 580.435 200.367 582.864 201.775 585.418C203.193 587.989 205.526 588.696 208.244 588.271C213.125 587.506 214.556 582.582 211.034 577.747Z" fill="#1A1A1A"/>
<defs>
<clipPath id="clip0_505_174">
<rect width="328.764" height="960.078" fill="white" transform="translate(353.885 51.0049)"/>
</clipPath>
</defs>
</svg>
