<svg width="723" height="1013" viewBox="0 0 723 1013" fill="none" xmlns="http://www.w3.org/2000/svg">
<path d="M487.372 576.087C487.373 575.022 491.021 575.08 495.994 576.224C498.129 576.715 504.66 577.715 510.506 578.451C522.865 580.004 525.733 581.07 520.2 582.054C515.847 582.831 509.333 582.109 499.874 579.808C496.079 578.884 491.716 577.859 490.174 577.527C488.632 577.197 487.372 576.548 487.372 576.087Z" fill="url(#paint0_linear_505_229)"/>
<path d="M471.117 569.755C470.929 569.156 471.239 568.829 471.808 569.028C472.92 569.418 473.119 570.663 472.087 570.778C471.743 570.813 471.309 570.355 471.117 569.755Z" fill="url(#paint1_linear_505_229)"/>
<path fill-rule="evenodd" clip-rule="evenodd" d="M646.951 324.778C648.805 329.737 651.613 336.1 652.935 337.87C656.628 342.82 654.729 347.969 650.392 344.766C647.324 342.504 648.289 346.274 654.052 359.055C660.443 373.24 661.15 389.696 655.061 382.606C650.731 377.564 652.852 390.702 657.779 399.435C659.057 401.7 658.703 429.235 657.353 432.6C656.199 435.473 654.737 454.512 655.28 459.616C655.549 462.156 655.104 465.081 653.969 468.246C646.69 488.501 646.708 504.491 653.995 492.415C654.8 491.08 656.983 489.088 658.845 487.984C660.71 486.88 662.733 484.996 663.341 483.796C668.294 474.047 678.636 485.825 681.171 504.104L682.532 513.919L678.447 529.367C676.199 537.863 672.886 549.516 671.083 555.262C669.28 561.008 666.924 568.573 665.848 572.073C660.904 588.136 654.463 632.58 652.083 667.021C650.753 686.274 645.686 695.056 635.562 695.659C628.849 696.057 626.291 701.662 623.539 721.993C621.824 734.665 620.504 740.155 619.104 740.441C618.06 740.654 617.612 742.121 617.31 746.348C617.087 749.445 616.451 753.817 615.897 756.066C615.344 758.315 614.508 762.403 614.037 765.151C613.566 767.898 612.811 770.858 612.358 771.725C611.906 772.592 611.529 774.841 611.523 776.722C611.503 781.986 609.438 787.361 607.31 787.702C605.013 788.07 604.997 789.83 607.266 791.995C609.958 794.562 609.278 799.131 606.146 799.51C604.842 799.668 603.776 800.064 603.775 800.385C603.776 800.71 604.842 801.871 606.146 802.972L608.518 804.97L606.577 807.153C605.509 808.352 604.638 810.41 604.638 811.727C604.638 813.431 603.964 814.458 602.296 815.3C600.816 816.05 599.648 817.632 599.112 819.594C598.636 821.347 596.321 824.719 593.802 827.333C590.25 831.015 589.205 832.79 588.69 835.995C586.854 847.454 583.079 853.656 579.259 851.502C576.108 849.725 575.674 850.816 577.321 856.33C579.109 862.302 579.135 863.848 577.464 864.524C576.458 864.93 576.284 865.895 576.708 868.7C577.096 871.251 576.747 873.92 575.542 877.581C574.595 880.462 573.126 885.065 572.277 887.813C571.429 890.561 569.535 894.285 568.071 896.086C566.605 897.888 562.881 902.795 559.801 906.99C551.56 918.206 548.606 921.428 546.552 921.456C545.16 921.472 544.064 922.862 542.069 927.133C539.521 932.59 535.879 935.395 535.527 932.17C535.455 931.511 535.305 930.562 535.193 930.063C535.085 929.564 534.95 928.643 534.894 928.019C534.692 925.714 532.314 926.978 531.474 929.837C529.557 936.36 529.451 938.505 530.995 939.416C532.938 940.56 531.965 943.238 529.604 943.238C527.583 943.238 525.336 938.653 525.273 934.409C525.216 930.32 522.228 918.381 521.173 918.01C518.074 916.925 518.827 939.996 522.172 948.727C525.02 956.152 524.562 957.011 513.744 964.578L508.685 968.119L506.832 965.673C504.347 962.387 503.754 962.588 503.754 966.72C503.754 971.267 501.367 973.635 496.788 973.635C494.727 973.635 493.408 974.064 493.407 974.729C493.407 979.087 486.084 980.114 485.202 975.881C483.968 969.967 479.273 973.164 478.306 980.581C477.801 984.457 476.849 986.3 475.3 986.395C475.061 986.412 472.677 987.753 470 989.377C466.042 991.776 464.73 992.168 462.997 991.473C461.166 990.74 460.042 991.25 455.095 995.049C451.362 997.917 447.143 1000.18 443.129 1001.47C439.72 1002.57 434.711 1004.23 432 1005.16C425.96 1007.22 422.396 1007.3 420.601 1005.4C418.94 1003.66 419.569 1002.32 422.106 1002.22C426.428 1002.04 418.51 1000.47 410.417 999.894C401.118 999.237 399.907 1000.01 404.369 1003.76L406.728 1005.74L402.858 1006.59C400.732 1007.06 398.148 1007.12 397.118 1006.74C395.678 1006.19 394.947 1006.51 393.946 1008.12C392.526 1010.41 382.358 1012.04 379.521 1010.44C377.309 1009.19 362.778 1007.87 360 1008.58V908.658C361.977 907.481 363.68 907.03 364.32 907.704C366.087 909.565 367.996 908.737 371.186 904.716L374.354 900.72L379.155 902.582C383.289 904.187 384.249 904.28 386.075 903.25C387.917 902.211 388.427 902.271 389.935 903.71C390.889 904.623 391.928 905.097 392.244 904.765C392.56 904.433 393.747 904.804 394.883 905.588C397.41 907.333 398.978 906.278 399.729 902.331C400.668 897.382 406.319 902.656 406.319 908.483C406.319 913.365 408.839 918.304 410.171 916.031C410.64 915.233 416.635 916.884 420.318 918.825C422.903 920.185 424.279 919.702 425.859 916.886C428.348 912.447 431.799 912.275 433.936 916.483C435.361 919.285 436.103 919.277 437.872 916.434C439.724 913.455 440.651 913.594 444.228 917.382C447.789 921.152 448.742 921.019 449.8 916.592C450.568 913.384 452.195 912.259 453.312 914.164C453.605 914.662 455.225 915.072 456.911 915.072C458.598 915.072 461.503 915.976 463.37 917.083C466.143 918.723 467.033 918.89 468.23 917.985C471.042 915.859 472.103 915.688 473.147 917.195C474.762 919.52 475.238 919.007 474.702 915.527C474.345 913.21 474.537 912.307 475.403 912.207C480.295 911.64 482.374 910.456 486.671 905.809C491.11 901.009 491.392 900.057 489.786 895.375C487.427 888.503 493.62 889.781 501.907 897.876C508.392 904.214 507.67 901.382 500.784 893.463C497.942 890.197 496.22 878.889 497.859 874.28C498.351 872.895 498.276 870.967 497.652 868.975C497.112 867.252 496.557 862.301 496.415 857.973C495.445 827.957 481.399 811.692 453.52 808.298C439.559 806.6 437.471 806.259 430.784 804.596C425.703 803.334 407.248 801.903 399.638 802.184C395.292 802.345 395.093 801.677 398.748 799.224C400.238 798.224 401.485 796.996 401.519 796.498C401.591 795.348 396.233 795.035 393.386 796.024C392.201 796.436 388.256 796.812 384.619 796.861C375.413 796.989 374.37 797.561 378.462 800.251C381.043 801.95 382.806 802.375 386.698 802.25C392.161 802.072 394.029 802.879 390.38 803.844C387.659 804.564 378.075 803.765 374.114 802.49C370.778 801.414 365.264 800.734 360 800.54V721.518C376.663 730.235 395.239 732.031 409.338 725.891C430.914 716.493 432.719 715.833 438.063 715.38C444.691 714.819 445.984 715.92 445.984 722.129C445.984 727.412 441.266 731.495 435.122 731.528C429.815 731.556 431.308 740.542 437.632 746.631C445.185 753.901 444.689 753.621 447.415 752.138C451.378 749.985 463.343 750.718 465.943 753.275C467.508 754.815 468.608 755.144 470.758 754.719C472.801 754.319 474.185 754.665 475.931 756.019C477.245 757.036 480.236 758.241 482.582 758.699C485.605 759.287 487.315 760.212 488.461 761.869C491.671 766.513 500.326 772.641 502.905 772.099C504.294 771.805 505.93 772.132 506.882 772.889C507.769 773.598 509.271 774.201 510.221 774.228C514.672 774.356 520.663 784.608 519.88 790.76C519.352 794.898 525.475 806.728 530.739 811.744C532.431 813.352 535.427 818.044 537.4 822.167C541.156 830.02 542.85 831.598 542.395 826.826C541.999 822.691 544.371 821.314 547.149 824.064C549.943 826.828 551.593 825.149 552.305 818.806C552.946 813.104 553.34 812.398 555.877 812.398C557.714 812.398 561.524 806.36 561.524 803.446C561.526 803.009 562.688 801.109 564.11 799.224C566.547 795.997 566.697 795.32 566.697 787.74C566.697 779.961 567.804 777.339 569.716 780.598C571.922 784.36 572.942 781.288 572.357 772.617C571.812 764.476 571.91 763.529 573.539 761.343C574.519 760.032 575.321 758.135 575.321 757.126C575.321 756.121 576.256 754.128 577.396 752.697C579.88 749.587 580.2 748.275 579.326 744.778C578.822 742.761 579.086 741.523 580.431 739.607C581.628 737.901 582.384 734.978 582.774 730.543C583.256 725.101 583.772 723.494 585.862 720.987C587.244 719.329 588.755 716.522 589.221 714.75C589.715 712.862 591.031 710.894 592.395 710.002C593.675 709.166 596.315 706.818 598.266 704.788C600.213 702.757 602.972 700.191 604.395 699.087C606.094 697.768 607.361 695.65 608.088 692.911C608.696 690.618 609.863 687.841 610.678 686.74C611.495 685.638 612.343 682.495 612.565 679.743C612.842 676.325 613.696 673.625 615.271 671.21C616.536 669.267 617.571 666.951 617.571 666.062C617.571 665.173 618.357 662.51 619.319 660.144C620.282 657.781 621.495 652.942 622.013 649.393C622.53 645.847 623.844 639.673 624.931 635.674C626.017 631.676 627.15 626.36 627.45 623.863C627.75 621.363 628.537 616.456 629.196 612.959C631.056 603.133 632.967 588.364 633.544 579.339C634.462 565.029 638.526 551.086 642.541 548.469C643.035 548.147 643.438 547.297 643.438 546.578C643.438 544.368 642.054 545.088 637.598 549.615C631.017 556.295 630.347 558.07 623.652 586.609C611.492 638.449 589.171 664.803 547.736 676.246C536.049 679.473 507.859 679.393 497.287 676.106C495.864 675.664 492.033 674.607 488.774 673.756C474.385 670.003 448.572 654.298 448.571 649.295C448.571 648.636 447.389 646.934 445.948 645.52C444.505 644.103 442.275 641.202 440.989 639.076C439.706 636.947 437.978 634.979 437.153 634.701C430.361 632.408 423.686 622.429 417.142 604.783C415.843 601.283 413.267 595.008 411.412 590.837C407.659 582.385 407.198 577.971 409.395 571.505C410.067 569.524 410.543 567.68 410.824 565.973C411.929 564.893 412.765 563.85 413.24 563.259C413.671 562.723 413.855 562.486 414.101 562.191C414.283 561.971 414.344 561.911 414.32 561.935C427.973 548.69 439.637 536.134 452.992 523.965C456.969 520.341 462.118 514.557 461.829 506.623C461.674 502.369 460.009 498.852 457.819 495.986C460.478 495.876 462.615 495.427 465.814 494.498C476.899 491.279 492.465 485.481 494.931 483.658C497.334 481.878 499.049 481.196 508.928 478.102C512.011 477.134 516.085 475.554 517.981 474.583C519.878 473.616 523.626 472.599 526.311 472.321C528.995 472.045 532.197 471.124 533.424 470.277C535.488 468.854 535.82 468.848 537.783 470.203C539.201 471.181 541.816 471.669 545.644 471.669C554.777 471.669 569.828 477.296 574.856 482.592C579.939 487.943 578.364 488.877 568.594 486.301C552.093 481.956 537.276 485.043 508.713 498.781C501.838 502.087 501.416 503.273 506.987 503.649C509.853 503.842 511.082 504.32 511.082 505.233C511.08 506.711 499.25 510.548 494.269 510.684C492.611 510.73 490.681 511.15 489.982 511.614C487.59 513.208 491.477 513.753 500.166 513.037C523.703 511.099 573.51 512.516 580.495 515.321C581.68 515.798 585.172 516.613 588.256 517.136C597.304 518.665 601.453 519.557 604.205 520.563C608.528 522.141 616.557 523.45 628.56 524.532C636.811 525.279 640.704 526.031 642.601 527.244C645.438 529.062 645.606 529.392 646.465 534.791C647.329 540.235 648.455 537.095 649.505 526.303C650.904 511.92 653.354 507.277 657.389 511.352C660.105 514.094 661.638 513.764 663.338 510.071C665.18 506.064 669.842 500.833 672.529 499.75C675.622 498.505 673.191 496.202 668.781 496.202C667.25 496.202 665.387 495.956 664.64 495.654C663.768 495.3 662.151 496.292 660.136 498.415C656.217 502.545 655.219 503.087 650.076 503.872C645.286 504.606 644.3 506.236 644.3 513.429C644.3 518.145 643.586 518.918 639.225 518.918C631.984 518.918 628.373 505.598 630.375 486.28C631.459 475.81 631.009 471.01 627.949 460.314C626.951 456.814 625.797 451.498 625.391 448.499C624.984 445.501 624.009 441.208 623.226 438.959C620.582 431.381 619.301 415.209 619.837 396.153C620.111 386.465 620.316 377.516 620.295 376.265C620.274 375.016 620.295 371.132 620.342 367.635C620.39 363.929 620.423 360.512 620.44 357.355C632.584 349.935 642.054 338.509 646.951 324.778ZM408.287 951.415C406.045 951.415 406.17 954.163 408.604 958.398C409.956 960.75 411.857 964.744 412.83 967.268C413.81 969.816 415.152 971.858 415.846 971.859C418.047 971.859 417.667 967.472 415.016 962.318C413.603 959.57 411.771 955.991 410.946 954.37C410.124 952.745 408.926 951.415 408.287 951.415ZM538.188 835.594C536.158 833.414 536.107 833.99 537.907 838.729C539.485 842.888 541.329 843.728 540.439 839.885C540.121 838.509 539.107 836.578 538.188 835.594ZM563.272 521.683C546.288 519.481 543.87 520.503 554.814 525.256C561.78 528.285 564.721 531.017 569.421 538.826C575.034 548.153 570.435 547.848 548.781 537.457C541.526 533.977 539.847 534.372 536.265 540.401C529.653 551.525 507.127 553.114 498.738 543.045C497.357 541.388 495.107 539.471 493.738 538.785C492.37 538.098 490.872 536.626 490.406 535.514C489.149 532.497 487.626 532.319 483.643 534.723C476.555 538.997 468.427 538.591 462.837 533.682C455.384 527.135 435.977 540.579 429.921 556.484C423.713 572.79 429.204 605.262 441.548 625.226C443.245 627.973 445.037 630.882 445.526 631.692C457.865 652.073 478.071 666.29 496.664 667.672C501.554 668.035 504.052 668.608 504.356 669.433C504.6 670.106 505.827 670.644 507.081 670.627C509.044 670.603 509.15 670.472 507.849 669.673C504.277 667.482 507.035 667.076 524.233 667.272C541.246 667.466 542.317 667.376 546.058 665.432C548.22 664.309 552.101 662.731 554.68 661.924C587.086 651.792 612.333 614.003 614.614 572.219C616.319 540.998 601.763 526.674 563.272 521.683Z" fill="url(#paint2_linear_505_229)"/>
<path d="M395.367 837.953C399.989 837.075 404.78 838.435 408.748 841.754C409.374 842.278 414.121 840.803 416.816 841.754C419.509 842.705 422.605 840.861 423.555 841.754C429.178 841.754 432.513 843.742 433.936 844.437C439.318 847.068 428.48 866.808 423.555 872.364C422.184 873.909 421.225 876.973 420.318 879.868C419.412 882.762 420.318 881.86 416.816 887.238C413.65 889.418 409.922 892.485 408.53 894.049C405.716 897.214 398.906 898.163 396.939 895.667C396.36 894.933 393.354 894.227 389.516 893.921C384.897 888.201 384.786 890.881 382.166 885.47C380.515 884.553 377.251 877.278 377.251 871.271C374.355 864.172 373.974 859.256 371.899 850.976C372.789 849.954 369.622 845.022 370.151 843.419C371.251 840.097 374.355 840.688 379.155 841.754C380.873 842.509 380.528 841.754 383.259 841.754C390.904 837.952 389.77 839.013 395.367 837.953Z" fill="url(#paint3_linear_505_229)"/>
<path d="M507.769 746.07C508.739 746.07 514.101 758.163 514.102 760.356C514.102 761.272 514.598 762.829 515.208 763.813C518.025 768.376 518.892 774.236 516.75 774.236C515.156 774.235 508.035 757.715 508.195 754.389C508.283 752.563 508.055 749.943 507.686 748.57C507.318 747.194 507.355 746.07 507.769 746.07Z" fill="url(#paint4_linear_505_229)"/>
<path d="M360 526.167C360.389 526.308 360.782 526.465 361.175 526.638C363.262 527.557 365.697 527.824 368.692 527.467C370.863 527.206 374.766 527.439 378.796 528.038C378.529 533.572 378.201 539.072 377.72 544.625C377.521 546.917 377.61 549.107 377.977 551.184C371.74 553.23 369.698 557.623 369.59 566.174C369.445 577.573 364.776 596.819 361.4 599.927C361.01 600.286 360.512 600.954 360 601.772V526.167Z" fill="url(#paint5_linear_505_229)"/>
<path d="M437.787 523.252C427.452 533.186 417.531 543.574 407.249 553.575C403.839 550.796 398.168 549.508 390.188 549.658C389.72 549.666 389.262 549.678 388.813 549.693C388.589 548.645 388.495 547.49 388.559 546.206L388.602 545.569C389.054 540.342 389.377 535.104 389.641 529.861C408.716 532.729 421.794 532.061 429.6 527.84C432.814 526.103 435.532 524.582 437.787 523.252Z" fill="url(#paint6_linear_505_229)"/>
<path d="M443.041 496.903C443.618 497.315 444.226 497.859 444.868 498.558C452.59 504.415 452.812 509.11 446.146 515.415C445.843 515.144 445.355 514.924 444.691 514.748C442.312 514.119 441.887 511.894 443.532 508.659C445.658 504.467 445.885 500.861 444.168 498.56C443.662 497.882 443.27 497.335 443.041 496.903Z" fill="url(#paint7_linear_505_229)"/>
<path d="M627.411 298.941C637.571 297.353 640.597 299.944 639.268 310.241L639.1 311.433C638.47 315.566 637.36 319.527 635.837 323.262C635.49 322.944 635.202 323.584 635.043 325.105C631.669 332.541 626.617 339.008 620.384 344.055C620.137 330.345 619.192 323.312 616.973 317.047C618.183 314.507 619.14 311.741 619.873 308.796L620.159 307.587C621.102 303.393 621.879 300.015 626.911 299.029L627.411 298.941Z" fill="url(#paint8_linear_505_229)"/>
<path d="M608.077 261.769C616.509 270.363 624.913 278.969 633.269 287.611C630.72 287.509 628.141 287.771 625.725 288.149C620.489 288.967 615.977 291.435 612.999 295.914C611.914 297.546 611.164 299.306 610.634 300.888C610.487 299.975 609.928 298.764 609.263 297.991C608.489 297.088 607.747 295.33 607.617 294.084C607.109 289.198 604.152 281.437 601.803 278.496C602.958 277.509 604.026 276.354 604.951 274.989C607.808 270.771 608.334 266.021 608.077 261.769Z" fill="url(#paint9_linear_505_229)"/>
<path d="M601.957 223.518C605.588 219.7 608.989 215.281 614.566 221.331L615.56 222.398C618.113 225.112 620.765 227.736 623.417 230.359C623.709 232.854 623.912 235.212 624.069 237.704C624.613 246.292 628.487 256.043 634.685 264.416C641.539 273.673 643.273 277.013 644.201 282.746C644.231 282.928 644.262 283.114 644.293 283.303C629.324 267.78 614.209 252.397 599.075 237.035C593.296 231.167 597.634 227.84 601.247 224.242L601.957 223.518Z" fill="url(#paint10_linear_505_229)"/>
<path d="M495.293 160.925C495.089 157.843 495.268 157.094 496.018 157.875C497.277 159.187 497.569 163.959 496.426 164.562C495.932 164.82 495.448 163.266 495.293 160.925Z" fill="url(#paint11_linear_505_229)"/>
<path d="M561.004 172.376C560.585 170.507 560.699 169.929 561.399 170.384C561.943 170.739 562.388 171.976 562.388 173.131C562.388 174.29 562.905 176.819 563.539 178.757C564.734 182.402 564.923 189.448 563.857 190.572C563.524 190.926 563.226 190.838 563.195 190.38C562.944 186.542 561.477 174.481 561.004 172.376Z" fill="url(#paint12_linear_505_229)"/>
<path fill-rule="evenodd" clip-rule="evenodd" d="M408.619 51.5893C409.494 50.6715 412.186 50.8677 412.786 51.892C413.081 52.3936 414.607 52.8032 416.183 52.8032C417.755 52.8032 420.435 53.416 422.14 54.1655C423.842 54.9151 426.103 55.5287 427.166 55.5288C428.228 55.5294 434.668 58.4455 441.479 62.0131L453.861 68.4985L460.054 66.4809C476.044 61.2775 475.016 61.4823 477.289 63.0522C478.435 63.8454 479.599 65.6932 479.879 67.1596C481.043 73.2899 492.646 72.494 498.148 65.9057L500.735 62.8061L506.529 63.5454C513.34 64.4122 515.283 65.9228 516.582 71.3579C517.094 73.5055 518.105 75.779 518.824 76.4116C519.546 77.0411 520.136 78.1202 520.136 78.8071C520.136 79.4967 520.542 80.0609 521.039 80.061C521.621 80.0606 521.709 78.8531 521.29 76.6538C519.456 67.0183 524.36 63.7368 529.601 71.0961C532.917 75.7571 536.128 78.7494 539.726 80.5375C541.518 81.4288 544.188 83.1164 545.654 84.2885C547.121 85.4606 549.516 86.4203 550.973 86.4204C554.475 86.4204 559.098 90.8285 567.008 101.702C574.827 112.452 575.169 112.948 579.634 120.038C581.68 123.287 585.619 129.488 588.39 133.817C591.159 138.146 593.427 141.934 593.429 142.24C593.429 142.542 594.401 144.418 595.594 146.405C596.784 148.392 597.842 151.085 597.945 152.388C598.046 153.691 598.915 155.43 599.875 156.253C600.835 157.074 602.57 159.587 603.734 161.835C604.896 164.084 607.121 168.174 608.673 170.921C612.467 177.637 614.984 183.433 614.984 185.453C614.985 186.369 615.903 191.343 617.025 196.508C618.321 202.472 619.372 207.425 620.231 211.663C618.518 210.227 616.5 208.966 614.129 208.196C610.234 206.93 606.493 207.336 603.365 208.626C600.571 209.779 598.495 211.539 597.216 212.735C595.986 213.884 594.659 215.343 594.042 215.992C593.739 216.31 593.39 216.653 592.889 217.143C592.436 217.585 591.816 218.188 591.213 218.814C590.08 219.99 588.283 221.968 586.999 224.602C585.563 227.547 584.781 231.29 585.795 235.428C586.333 237.624 587.29 239.565 588.451 241.272C586.771 241.485 585.303 241.824 584.58 241.977C583.87 242.127 583.42 242.216 583.045 242.273C582.683 242.328 582.585 242.321 582.657 242.322L581.277 242.305L579.937 242.632C577.218 243.296 574.566 243.92 571.968 244.71L570.857 245.06C567.851 246.04 564.955 247.269 562.185 248.716C561.796 248.633 561.475 248.505 561.273 248.334C559.113 246.495 551.766 246.388 548.59 248.149C544.534 250.4 538.303 251.232 534.28 250.063C531.425 249.232 530.742 249.344 529.169 250.9C526.862 253.184 523.905 253.202 522.754 250.94C520.927 247.34 516.129 247.887 513.351 252.011C512.306 253.568 511.507 253.696 506.349 253.151C502.218 252.715 500.011 252.873 498.754 253.702C497.355 254.623 496.506 254.637 494.7 253.77C493.443 253.168 492.062 252.903 491.627 253.186C491.192 253.469 488.68 253.278 486.045 252.766C481.433 251.867 481.021 251.958 475.137 255.117L469.021 258.401L464.689 256.471C461.798 255.185 460.02 254.836 459.348 255.421C458.794 255.907 456.942 256.49 455.234 256.722C453.525 256.954 450.477 257.981 448.462 259.006C446.312 260.102 443.069 260.873 440.622 260.873C437.826 260.873 436.292 261.296 435.979 262.152C435.722 262.858 434.473 263.831 433.203 264.319C431.149 265.107 429.299 265.671 422.041 267.723C420.965 268.026 419.012 269.487 417.698 270.964C415.401 273.556 414.974 273.671 406.291 274.031C401.327 274.235 396.19 274.737 394.873 275.146C391.642 276.146 374.165 274.911 371.672 273.504C370.608 272.904 366.31 272.564 360 272.497V238.081C362.278 240.693 362.254 238.984 360 232.987V182.329C364.242 189.75 367.59 197.31 369.527 204.086C373.764 218.907 374.008 219.536 375.619 219.849C377.143 220.149 377.21 219.746 376.618 213.946C375.532 203.27 375.586 201.36 376.975 201.36C378.695 201.36 381.809 207.344 383.928 214.725C385.912 221.635 387.35 223.387 387.351 218.896C387.35 213.158 380.045 193.027 370.021 171.147C364.603 159.32 364.468 159.146 362.66 161.607C362.208 162.223 361.296 162 360 161.017V124.631C362.973 130.818 364.611 135.213 364.344 136.294C363.907 138.061 368.941 149.861 371.352 152.718C373.623 155.409 377.973 165.493 378.711 169.776C379.122 172.153 380.992 178.6 382.87 184.095C388.889 201.725 389.826 204.88 390.822 210.901C393.321 226.037 400.041 240.268 403.996 238.802C405.217 238.35 405.096 227.212 403.844 224.747C402.046 221.207 401.702 214.536 403.315 214.535C405.328 214.535 404.705 210.459 401.593 203.298C398.993 197.31 399.555 195.051 403.042 197.468C410.248 202.467 414.294 206.831 418.011 213.623C424.783 225.993 429.768 228.22 424.758 216.638C423.108 212.817 421.24 207.406 420.611 204.615C414.357 176.85 399.597 139.269 394.896 139.138C393.777 139.108 394.193 141.575 395.499 142.717C396.184 143.317 397.198 145.252 397.752 147.018C398.305 148.784 400.266 153.031 402.107 156.457C407.591 166.655 406.5 168.508 400.005 160.037C397.716 157.055 394.505 153.069 392.873 151.183C387.788 145.309 382.167 135.862 382.353 133.498C382.567 130.753 379.047 124.581 377.265 124.581C376.305 124.582 376.057 125.231 376.367 126.929C376.789 129.254 376.76 129.246 373.664 126.182C371.944 124.481 369.455 122.382 368.131 121.521C366.809 120.657 363.935 117.516 361.741 114.542C361.137 113.723 360.545 112.948 360 112.254V83.6567C361.405 83.9856 362.994 84.3443 364.931 84.7709C365.642 84.929 366.418 84.6677 366.656 84.1909C366.92 83.66 363.875 82.1882 360 80.7534V54.975C361.821 55.7041 363.625 56.6839 365.41 57.9165C369.156 60.5002 378.923 59.2496 386.453 55.2182C395.085 50.5981 400.181 50.5545 404.11 55.0737C407.535 59.0149 408.045 59.0339 408.045 55.226C408.045 53.5579 408.304 51.9218 408.619 51.5893ZM488.262 102.802C483.777 98.4388 482.528 98.1478 484.364 101.887C487.17 107.608 478.143 111.097 475.005 105.501C472.439 100.925 470.352 99.5539 468.549 101.271C466.554 103.176 465.075 103.173 463.075 101.265C461.104 99.3873 459.914 100.431 461.321 102.805C461.896 103.773 462.366 105.782 462.366 107.262C462.366 109.713 462.848 111.441 465.041 116.86C469.591 128.096 472.561 146.348 473.249 167.309C473.87 186.248 475.952 189.734 477.568 174.54C478.104 169.506 478.758 165.158 479.02 164.88C480.243 163.591 481.13 166.02 482.126 173.379C482.723 177.773 483.534 183.208 483.93 185.457C484.323 187.706 484.927 193.411 485.271 198.135C485.711 204.197 486.524 208.211 488.026 211.765C489.196 214.537 490.714 218.773 491.399 221.18C492.139 223.775 493.063 225.4 493.674 225.176C494.778 224.77 494.788 224.297 493.95 212.945C493.596 208.137 493.708 205.449 494.264 205.449C494.742 205.449 495.034 205.776 494.915 206.179C494.796 206.58 495.355 208.32 496.154 210.039C496.953 211.762 497.854 213.989 498.154 214.99L498.697 216.805L499.607 214.99C500.109 213.989 501.095 212.684 501.801 212.089C502.851 211.203 502.929 210.085 502.241 205.872C501.463 201.102 501.545 200.567 503.423 198.433C504.535 197.169 505.22 195.748 504.941 195.274C504.147 193.917 503.798 179.099 504.559 179.098C505.335 179.098 506.977 183.678 509.778 193.635C510.834 197.383 512.624 202.158 513.76 204.247C514.895 206.334 515.832 208.788 515.84 209.699C515.848 210.609 516.236 211.967 516.701 212.716C518.827 216.131 520.182 207.981 518.314 203.009C515.572 195.706 508.067 171.357 508.066 169.757C508.066 167.972 508.118 167.966 509.789 169.558C510.738 170.463 511.514 171.523 511.515 171.918C511.515 172.311 513.023 176.029 514.867 180.18C516.711 184.331 519.212 190.08 520.423 192.954C522.523 197.934 524.448 199.768 524.448 196.794C524.449 196.031 525.418 195.02 526.603 194.545C529.158 193.52 529.468 189.901 527.5 184.095C526.753 181.89 526.434 178.673 526.69 175.917C527.138 171.128 526.794 170.171 524.034 168.56C522.979 167.943 520.335 162.56 517.12 154.479C511.698 140.853 510.149 137.44 504.569 126.853C502.725 123.356 501.206 119.392 501.19 118.048C501.177 116.705 500.774 115.347 500.293 115.034C499.812 114.72 498.664 112.904 497.74 110.999C496.752 108.958 495.233 107.314 494.046 107C492.936 106.706 490.334 104.816 488.262 102.802ZM546.348 160.244C545.616 156.259 544.415 158.276 544.526 163.299C544.609 167.112 544.276 168.678 543.197 169.506C541.348 170.935 541.078 175.143 542.004 188.282C542.485 195.107 542.441 199.436 541.883 200.548C540.199 203.904 540.209 214.002 541.898 214.354C542.84 214.547 543.771 213.803 544.397 212.356C545.631 209.5 546.867 210.135 546.867 213.626C546.867 215.065 547.212 216.469 547.631 216.742C550.43 218.565 551.946 206.886 550.394 195.454C549.887 191.705 548.851 182.71 548.096 175.465C547.34 168.217 546.552 161.369 546.348 160.244ZM442.409 98.2475C440.009 94.8272 438.697 94.7185 439.476 98.0053C441.55 106.758 442.686 114.396 443.118 122.538C443.638 132.31 443.413 132.896 439.913 130.922C437.606 129.622 437.534 130.302 437.045 157.976C436.644 180.664 436.701 181.873 438.247 182.746C440.169 183.83 440.56 185.908 441.639 200.76C442.086 206.928 442.908 212.549 443.462 213.253C445.05 215.27 446.846 214.777 446.846 212.321C446.846 211.105 447.291 208.957 447.834 207.55C448.377 206.143 449.174 200.904 449.604 195.909C451.021 179.437 451.308 177.281 452.1 177.281C452.529 177.281 452.881 178.529 452.881 180.052C452.881 181.576 453.504 184.092 454.265 185.643C455.491 188.14 459.782 204.418 461.354 212.528C461.673 214.174 462.322 215.479 462.798 215.428C463.271 215.379 463.528 214.646 463.367 213.798C463.204 212.953 462.912 210.628 462.716 208.627C461.885 200.15 460.452 189.086 459.36 182.732C458.719 178.984 457.544 172.033 456.753 167.288C455.961 162.539 454.583 154.77 453.69 150.022C452.798 145.276 451.633 137.303 451.101 132.304C449.047 113.038 446.91 104.664 442.409 98.2475ZM530.219 87.6987C522.156 81.0045 521.49 81.4379 527.721 89.3315C531.614 94.2624 532.783 96.8006 540.825 117.767C545.166 129.09 544.964 134.934 540.367 130.914C538.06 128.894 538.039 130.626 540.256 140.19C541.451 145.347 542.682 150.897 542.992 152.522C543.781 156.662 545.044 156.204 544.987 151.796C544.889 144.399 546.65 146.724 549.434 157.673C552.307 168.974 554.592 186.45 554.907 199.542C555.14 209.281 558.937 212.969 558.938 203.456C558.938 201.805 559.39 200.905 560.221 200.905C560.924 200.904 562.078 199.451 562.781 197.677C564.326 193.78 567.267 194.582 568.131 199.136C568.545 201.322 569.075 201.813 571.012 201.813C573.694 201.813 575.151 203.283 576.074 206.921C576.969 210.445 578.12 210.418 579.711 206.839C581.749 202.246 579.709 190.31 574.789 178.077C573.659 175.266 572.735 172.379 572.735 171.66C572.735 170.943 572.036 169.563 571.186 168.593C570.332 167.625 568.63 163.97 567.401 160.473C562.73 147.163 544.824 109.42 539.319 101.273C538.318 99.7926 536.869 96.969 536.099 94.9985C535.232 92.7933 532.976 89.991 530.219 87.6987ZM417.571 88.5815C415.748 84.2371 413.479 82.506 411.296 83.7924C409.11 85.0817 409.281 135.48 411.472 135.485C412.429 135.485 414.18 119.877 413.577 116.715C413.231 114.884 413.492 113.662 414.4 112.869C418.045 109.68 419.636 116.708 419.393 134.932C419.268 144.352 419.563 150.513 420.246 152.65C420.82 154.454 421.381 157.769 421.495 160.018C422.263 175.288 425.172 189.211 425.376 178.6C425.596 167.132 426.462 108.919 426.493 103.473C426.514 99.8289 426.105 96.9092 425.479 96.2495C424.652 95.3803 424.423 95.6177 424.413 97.3696C424.377 103.595 420.738 102.688 419.755 96.2084C419.437 94.115 418.453 90.6829 417.571 88.5815ZM573.374 146.163C570.267 137.776 569.01 137.192 569.46 144.344C570.329 158.109 576.488 178.182 579.849 178.188C582.306 178.19 581.921 169.977 579.262 165.676C578.111 163.814 576.902 160.243 576.573 157.747C576.247 155.247 574.807 150.033 573.374 146.163ZM530.483 160.018C529.387 160.018 529.387 163.678 530.483 165.469C531.107 166.483 531.324 165.96 531.334 163.425C531.339 161.553 530.959 160.019 530.483 160.018ZM529.143 139.348C528.025 133.649 526.766 136.137 527.304 142.981C527.979 151.592 529.427 156.951 530.713 155.596C531.623 154.636 531.119 149.433 529.143 139.348ZM378.876 99.8237C368.051 93.6799 370.666 98.8749 387.487 116.933C393.575 123.471 398.557 129.323 398.559 129.944C398.559 131.577 402.937 137.364 403.766 136.827C404.151 136.576 404.071 135.046 403.585 133.43C403.099 131.811 402.333 128.24 401.886 125.49C400.872 119.278 398.375 115.213 391.859 109.17C386.57 104.264 386.08 103.912 378.876 99.8237ZM536.521 122.311C536.032 121.993 535.656 122.737 535.656 124.02C535.656 125.268 536.045 126.545 536.521 126.853C537.007 127.171 537.382 126.427 537.382 125.143C537.382 123.895 536.994 122.619 536.521 122.311ZM501.336 101.581C498.698 98.9187 497.72 98.5537 497.72 100.227C497.721 101.462 501.986 106.407 503.053 106.409C504.535 106.409 503.651 103.917 501.336 101.581ZM380.346 83.9887C382.118 86.0112 388.863 90.0539 390.465 90.0541C391.531 90.0541 388.625 87.053 385.638 85.0659C383.972 83.9592 381.638 82.7381 380.451 82.351L378.297 81.6528L380.346 83.9887Z" fill="url(#paint13_linear_505_229)"/>
<path d="M582.527 253.244C588.164 253.31 594.763 248.43 596.507 257.603C597.769 264.246 597.455 267.973 594.547 270.331C593.876 269.512 593.201 268.678 592.547 267.851C588.788 263.097 585.211 259.534 583.25 258.591C579.988 257.022 577.662 255.875 575.901 254.936C577.235 254.55 578.631 254.196 580.19 253.813L582.527 253.244Z" fill="url(#paint14_linear_505_229)"/>
<path d="M582.644 253.247C588.281 253.314 594.881 248.434 596.624 257.608C598.68 268.422 596.559 271.51 585.863 273.538C568.665 276.801 557.555 291.555 560.121 307.721C562.849 324.913 579.009 336.453 596.613 333.008C610.294 330.33 617.356 320.588 620.276 307.591C621.249 303.261 622.046 299.802 627.529 298.945C637.688 297.357 640.714 299.948 639.385 310.245C636.087 335.779 614.668 355.046 588.889 355.665C565.852 356.218 542.968 337.037 539.342 314.134C535.422 289.372 551.129 263.022 574.36 255.449C576.822 254.646 579.352 254.051 582.644 253.247Z" fill="url(#paint15_linear_505_229)"/>
<path d="M289.313 945.4C284.596 946.04 282.412 948.775 283.222 953.43C283.7 956.179 285.633 958.085 288.525 958.306C291.823 958.56 294.242 956.758 295.178 953.75C296.443 949.683 294.722 946.857 289.313 945.4Z" fill="url(#paint16_linear_505_229)"/>
<path d="M327.402 1011.44C271.698 1009.76 217.599 1004.66 165.936 984.423C129.513 970.159 100.785 947.241 81.1798 913.066C77.512 906.672 77.5487 902.659 83.0739 897.176C134.974 845.666 186.534 793.814 238.313 742.182C243.056 737.452 245.349 733.531 242.785 726.154C237.332 710.463 252.719 694.27 269.423 698.311C277.48 700.26 281.845 697.737 287.043 692.502C366.05 612.928 272.904 707.651 352.088 628.252C359.357 620.963 363.982 627.561 364.808 633.167C366.992 648.008 364.808 676.857 364.808 692.502C364.808 701.978 364.808 717.922 364.808 726.154C364.808 740.353 364.808 763.486 364.808 789.469C364.808 840.3 364.808 813.328 364.808 838.933C364.808 856.529 364.808 863.092 364.808 888.944C364.808 898.275 364.808 907.215 364.808 917.228C364.808 927.242 364.808 930.531 364.808 937.594C364.808 944.657 364.808 950.802 364.808 958.17C364.808 965.538 364.808 971.644 364.808 980.555C364.808 984.966 364.808 988.69 364.808 991.967C364.808 1017.63 363.788 1011.46 327.402 1011.44ZM324.742 686.574C324.742 682.506 324.742 678.437 324.742 672.891C311.977 685.415 300.663 696.501 289.369 707.607C286.968 709.968 287.479 712.707 287.965 715.751C290.251 730.097 280.733 743.877 266.385 742.936C255.47 742.22 250.504 747.699 244.521 753.923C238.891 759.781 233.407 765.812 227.417 771.283C221.907 776.315 220.134 782.106 220.204 789.469C220.538 824.894 220.556 860.324 220.386 895.751C220.345 904.411 220.919 911.545 228.635 918.064C237.511 925.562 235.916 938.823 227.323 946.583C219.15 953.964 206.839 953.652 199.169 945.868C191.132 937.712 190.396 924.259 199.316 917.228C206.635 911.459 207.599 904.599 207.62 896.716C207.708 863.888 207.739 831.06 207.717 798.233C207.716 796.52 208.666 794.257 205.639 793.054C198.886 799.597 191.197 805.454 185.706 813.679C186.926 815.167 187.696 816.178 188.54 817.124C200.206 830.205 199.657 840.18 186 851.703C182.084 855.007 182.029 858.976 182.007 863.092C181.848 893.643 181.941 924.197 181.689 954.747C181.638 960.938 183.988 964.643 189.868 966.176C201.479 969.204 213.21 971.837 224.68 975.325C233.895 978.128 236.165 974.635 235.683 966.042C235.272 958.717 234.444 951.182 240.256 944.828C250.097 934.072 249.583 925.069 239.149 914.186C231.114 905.804 230.854 891.936 238.588 884.235C246.672 876.186 260.472 876.596 268.343 885.119C276.021 893.435 275.763 907.498 266.534 914.675C260.781 919.149 259.463 923.98 259.632 930.531C259.778 936.205 261.601 942.856 256.174 947.008C247.603 953.564 247.977 962.386 248.171 971.644C248.292 977.442 251.066 980.103 256.244 980.555C274.028 982.109 291.848 983.268 309.616 984.966C317.795 985.749 319.513 981.867 319.467 974.695C319.225 936.993 319.234 899.289 319.303 861.586C319.312 856.704 317.977 853.328 314.018 849.938C303.889 841.265 303.38 827.428 312.096 818.905C319.992 811.184 333.101 811.367 341.178 819.311C349.333 827.331 348.747 841.23 339.007 849.565C334.444 853.47 333.211 857.616 333.223 863.092C333.302 900.145 333.366 937.199 333.124 974.25C333.075 981.712 334.725 985.678 343.322 985.654C352.325 985.628 352.052 980.331 352.047 974.104C351.993 903.898 352.035 833.692 351.979 763.486C351.977 760.729 353.017 757.599 350.262 755.192C347.406 755.538 345.892 757.796 344.092 759.579C329.775 773.76 315.617 788.105 301.106 802.084C296.262 806.75 294.405 811.806 294.444 818.467C294.643 852.268 294.569 886.072 294.37 919.873C294.326 927.243 295.041 933.116 301.839 938.415C310.616 945.256 310.017 959.74 302.312 967.147C294.544 974.615 280.333 974.648 273.043 967.214C265.115 959.131 264.872 944.456 273.853 937.594C279.765 933.076 280.611 928.01 280.606 921.64C280.579 886.884 280.874 852.127 280.597 817.375C280.528 808.626 282.926 801.92 289.359 795.785C308.642 777.398 327.387 758.447 346.549 739.931C350.368 736.241 352.121 732.381 352.088 727.105C351.936 702.729 352.053 678.351 351.985 653.974C351.979 651.917 352.887 649.313 349.793 648.008C341.188 653.238 336.627 660.143 337.428 671.051C338.329 683.335 337.301 695.747 337.7 708.085C337.918 714.816 335.69 719.724 330.929 724.407C309.611 745.374 289.117 767.214 267.196 787.52C255.892 797.99 248.635 808.679 251.288 824.501C251.655 826.688 251.209 829.043 250.939 831.296C250.509 834.885 248.953 837.365 244.798 837.418C240.254 837.477 238.202 834.939 237.994 830.866C237.697 825.03 237.912 819.169 237.667 813.328C237.265 803.708 240.277 796.225 247.695 789.292C267.869 770.437 286.495 749.889 307.101 731.548C320.656 719.484 327.951 706.481 324.742 686.574ZM168.875 912.297C168.863 898.321 167.954 884.271 169.108 870.392C170.123 858.181 166.1 849.936 155.52 844.453C141.489 853.966 139.629 877.741 152.038 888.944C160.277 896.382 160.576 910.508 152.67 918.802C144.9 926.953 131.71 926.971 123.872 918.841C115.718 910.382 115.338 895.97 124.555 889.426C132.611 883.706 132.288 877.157 130.989 868.908C125.993 870.993 123.437 874.88 120.302 877.999C99.3588 898.831 99.3195 898.922 118.035 922.027C131.154 938.223 147.856 949.309 167.077 956.812C167.943 955.301 168.523 954.758 168.53 954.209C168.682 940.889 168.772 927.568 168.875 912.297ZM273.284 715.318C269.719 711.164 265.445 709.617 260.532 712.619C256.157 715.292 254.698 719.588 256.486 724.297C258.382 729.291 262.778 730.611 267.598 729.414C274.441 727.714 275.485 722.734 273.284 715.318ZM131.223 907.215C133.293 911.123 136.163 913.441 140.629 911.038C144.052 909.197 146.058 906.187 144.921 902.148C143.934 898.641 141.103 896.529 137.615 896.869C132.528 897.365 130.556 900.908 131.223 907.215ZM318.871 834.076C320.144 839.367 323.485 841.652 328.759 840.3C332.225 839.412 334.089 836.611 333.948 833.143C333.804 829.581 331.374 827.3 327.983 826.54C322.917 825.406 320.197 828.106 318.871 834.076ZM171.862 827.056C166.348 831.787 166.372 836.349 172.751 840.049C175.345 841.555 178.466 841.14 180.852 838.933C182.86 837.076 184.005 834.595 183.056 831.962C181.409 827.393 177.914 825.603 171.862 827.056ZM248.508 893.75C245.717 896.719 245.129 900.086 247.434 903.459C249.463 906.429 252.578 907.525 255.984 906.112C259.344 904.718 261.106 901.855 260.199 898.275C258.801 892.756 254.908 891.363 248.508 893.75ZM282.329 947.178C278.935 950.837 278.512 954.564 282.504 957.981C285.276 960.354 288.462 960.079 291.4 958.17C294.052 956.447 295.554 953.92 294.158 950.802C292.044 946.081 288.621 943.844 282.329 947.178ZM207.603 927.615C206.106 932.081 206.142 936.154 211.433 937.886C214.769 938.978 217.815 937.97 219.949 934.914C221.971 932.018 221.22 929.197 219.214 926.888C215.925 923.1 212.176 922.529 207.603 927.615Z" fill="url(#paint17_linear_505_229)"/>
<path d="M354.881 444.215C354.361 434.804 353.948 426.041 354.138 417.29C354.285 410.509 351.287 408.064 344.767 408.151C329.831 408.35 314.885 408.442 299.955 408.098C291.78 407.91 288.528 410.578 288.713 419.344C289.256 444.988 288.316 470.671 289.19 496.297C289.599 508.294 283.661 514.698 274.982 520.427C270.829 517.683 272.181 513.756 272.17 510.447C272.063 477.647 272.064 444.847 272.144 412.047C272.181 396.918 277.3 391.857 292.845 391.742C310.055 391.616 327.271 391.584 344.477 391.93C351.515 392.071 354.343 389.596 354.316 382.374C354.137 334.311 354.194 286.248 354.278 238.185C354.286 233.643 352.982 229.999 349.587 226.97C346.439 224.161 343.854 220.542 340.353 218.34C323.494 207.738 319.985 192.503 320.713 173.438C322.076 137.768 321.077 102.009 321.067 66.286C321.066 63.6882 321.136 61.0904 321.133 58.4926C321.128 53.4915 323.053 50.5519 328.598 50.575C333.931 50.5974 335.174 53.7963 335.233 58.1592C335.32 64.6532 335.376 71.1482 335.374 77.6426C335.36 111.741 336.194 145.873 334.898 179.924C334.319 195.142 341.827 202.893 352.791 210.379C354.928 206.185 354.077 202.257 354.081 198.49C354.132 153.025 354.241 107.559 353.938 62.0963C353.881 53.5096 352.793 45.5424 357.708 45.5424C359.893 45.5424 359.893 45.5424 362.077 45.5423C363.715 45.5423 366.009 46.635 366.009 49.9121C366.009 53.1891 366.009 51.0035 366.009 52.0963C366.009 55.373 366.009 63.5648 366.009 58.1589C366.009 65.2027 365.367 99.6089 366.009 73.9411C365.916 67.3872 366.009 85.3999 365.532 89.7785C365.011 119.269 365.532 97.3031 365.532 110.531C364.263 130.661 366.009 122 366.009 131.83C366.009 141.66 366.009 152.583 366.009 162.959C366.009 189.719 365.532 179.924 366.009 191.357C364.446 195.74 369.315 265.067 366.009 268.36C366.009 361.2 366.009 399.974 366.009 438.322C366.009 442.406 361.154 446.566 354.881 444.215Z" fill="url(#paint18_linear_505_229)"/>
<path d="M211.491 236.127C219.286 247.524 229.459 255.731 238.526 264.973C255.577 282.352 272.941 299.424 290.274 316.522C292.464 318.682 294.156 321.854 299.144 321.889C299.847 307.918 302.994 294.567 289.184 283.325C275.91 272.518 264.792 259.095 252.35 247.217C247.025 242.133 244.439 236.755 244.735 229.277C245.236 216.634 244.441 203.934 245.095 191.306C245.524 183.041 242.531 177.273 236.766 171.702C224.166 159.525 212.337 146.549 199.696 134.416C194.486 129.415 192.739 123.925 192.759 117.104C192.825 95.0282 192.579 72.9512 192.675 50.8756C192.698 45.359 191.389 41.3089 186.827 37.442C176.569 28.7486 175.916 15.4666 184.384 6.40435C192.351 -2.1206 205.709 -2.1369 213.957 6.36824C222.621 15.3014 221.96 27.9764 211.749 37.2823C208.257 40.4641 206.885 43.6682 206.909 48.2119C207.024 70.2878 207.085 92.3667 206.806 114.44C206.731 120.455 208.711 124.996 212.857 129.139C225.946 142.218 238.778 155.555 251.931 168.569C256.146 172.74 258.134 177.221 258.011 183.214C257.732 196.826 258.302 210.46 257.848 224.063C257.61 231.187 259.974 236.316 265.04 241.164C279.345 254.855 293.213 269.002 307.411 282.807C311.573 286.855 314.214 291.128 314.146 297.216C313.866 322.212 313.862 347.211 313.725 372.209C313.697 377.29 313.493 382.405 306.377 382.281C302.792 382.218 300.025 380.856 299.669 376.767C299.528 375.152 299.214 373.466 299.51 371.914C303.398 351.523 294.412 337.566 279.577 324.067C254.151 300.934 230.741 275.596 206.134 251.542C200.309 245.847 197.679 239.964 197.993 231.834C198.431 220.481 199.761 209.372 189.296 199.858C181.65 192.909 185.001 178.564 193.159 172.07C201.631 165.325 213.195 165.935 220.586 173.516C228.051 181.173 229.988 195.47 221.43 201.555C208.175 210.979 211.348 223.174 211.491 236.127ZM211.033 184.725C208.245 181.197 205.022 180.024 201.324 183.291C198.912 185.421 198.592 188.328 199.69 191.164C200.903 194.296 203.69 195.201 206.733 194.623C211.589 193.699 212.473 190.277 211.033 184.725ZM198.123 14.5799C193.892 15.803 191.001 18.1322 192.589 22.9545C193.597 26.0133 196.239 27.4598 199.507 27.1355C202.74 26.8145 205.011 25.023 205.495 21.7461C206.151 17.2962 203.608 15.2114 198.123 14.5799Z" fill="url(#paint19_linear_505_229)"/>
<path d="M71.2443 762.473C82.0135 736.495 101.748 722.548 124.798 724.027C158.833 726.212 179.083 759.026 166.574 791.724C158.376 813.152 137.002 828.033 115.501 827.283C94.9169 826.564 77.3258 813.466 70.9701 793.791C67.6998 783.666 67.706 773.405 71.2443 762.473ZM127.659 746.09C124.754 745.859 121.847 745.393 118.946 745.438C103.965 745.67 91.0217 757.906 89.842 772.81C88.6222 788.22 97.5875 801.546 111.248 804.629C128.404 808.5 142.449 801.015 147.671 785.219C153.178 768.56 146.611 754.909 127.659 746.09Z" fill="url(#paint20_linear_505_229)"/>
<path d="M265.62 159.573C250.069 148.363 243.923 134.186 246.49 115.533C248.08 103.986 247.234 93.1041 236.515 84.0091C228.094 76.8643 230.894 62.4041 239.516 55.5387C248.072 48.7266 260.388 49.7509 267.673 57.8804C275.265 66.3516 275.755 79.7965 267.212 86.8253C261.163 91.8032 260.441 97.1962 259.41 104.214C256.099 126.771 263.571 144.011 282.038 156.794C294.194 165.208 299.147 176.597 296.634 191.139C292.194 216.83 300.161 237.342 321.752 252.372C337.085 263.046 341.308 277.67 340.165 296.12C338.6 321.363 339.737 346.771 339.648 372.108C339.632 376.537 340.587 381.962 333.659 382.084C326.483 382.211 326.668 376.905 326.67 371.849C326.682 342.939 326.518 314.027 326.773 285.119C326.829 278.79 325.125 274.058 320.452 269.672C310.983 260.785 302.494 250.805 292.664 242.367C284.546 235.399 282.425 227.15 283.03 217.3C283.369 211.793 282.837 206.166 283.759 200.774C286.764 183.213 280.648 169.871 265.62 159.573ZM257.234 76.3874C260.313 73.2733 260.195 70.161 256.987 67.3039C254.606 65.1831 251.832 64.7516 249.088 66.6399C246.424 68.4727 245.3 71.2371 246.509 74.1784C248.391 78.7563 252.176 78.6078 257.234 76.3874Z" fill="url(#paint21_linear_505_229)"/>
<path d="M694.137 239.756C689.284 235.035 684.907 230.808 681.02 227.053C670.967 237.115 661.206 246.885 650.549 257.551C657.242 264.354 664.182 271.947 671.708 278.904C679.112 285.747 673.01 289.29 669.007 293.783C664.734 298.578 661.018 300.647 655.517 294.882C636.938 275.414 618.079 256.211 599.193 237.039C593.027 230.78 598.375 227.412 602.074 223.522C605.705 219.704 609.105 215.284 614.684 221.336C619.953 227.052 625.71 232.317 631.056 237.966C634.471 241.575 637.61 241.562 641.001 238.157C648.32 230.805 655.581 223.395 663.005 216.151C666.191 213.041 665.144 210.539 662.592 207.859C657.001 201.99 651.567 195.968 645.863 190.212C639.097 183.386 645.978 180.076 649.374 175.934C652.847 171.698 656.419 169.526 661.363 174.59C680.618 194.312 700.232 213.684 719.375 233.513C727.553 241.985 716.478 244.687 713.476 249.592C710.426 254.572 706.747 253.367 703.312 249.427C700.545 246.252 697.522 243.3 694.137 239.756Z" fill="url(#paint22_linear_505_229)"/>
<path d="M269.461 660.011C274.761 663.792 277.075 659.433 279.638 656.962C288.515 648.397 297.369 639.789 305.827 630.816C310.762 625.579 313.984 627.968 317.782 631.962C321.38 635.745 324.55 638.836 319.237 643.992C304.562 658.236 290.139 672.745 275.78 687.311C271.973 691.173 268.755 691.229 265.098 687.412C246.008 667.49 226.929 647.559 207.749 627.725C203.641 623.477 204.298 620.121 208.333 616.242C222.138 602.971 235.824 589.574 249.421 576.089C254.278 571.272 258.011 572.355 262.604 576.753C267.748 581.678 265.445 584.967 261.621 588.855C253.884 596.723 246.485 604.928 238.653 612.698C232.446 618.856 234.339 623.736 239.633 629.307C245.524 635.507 249.179 631.463 253.202 627.356C259.789 620.631 266.509 614.032 272.951 607.171C276.799 603.073 279.939 603.477 283.393 607.557C286.488 611.215 291.202 614.308 285.874 619.67C280.153 625.426 274.565 631.316 268.828 637.056C257.704 648.186 257.677 648.16 269.461 660.011Z" fill="url(#paint23_linear_505_229)"/>
<path d="M537.523 425.063C535.648 426.923 534.106 428.169 532.917 429.691C528.043 435.927 523.564 436.058 517.937 430.109C500.108 411.256 481.975 392.689 463.847 374.12C459.574 369.744 458.205 365.944 463.243 361.017C477.151 347.419 490.963 333.714 504.487 319.737C510.498 313.524 513.975 318.3 518.266 321.696C523.71 326.005 520.844 329.235 517.349 332.77C508.686 341.533 500.268 350.54 491.509 359.204C484.458 366.177 490.947 369.854 494.685 374.388C499.358 380.058 503.051 376.907 506.727 373.204C513.812 366.066 521.067 359.086 527.897 351.712C532.514 346.727 535.624 349.323 539.129 352.861C542.531 356.294 545.589 359.275 540.556 364.039C533.494 370.724 527.071 378.087 519.985 384.746C512.95 391.356 516.13 396.181 521.394 401.861C527.226 408.152 531.165 405.409 535.721 400.567C542.389 393.482 549.342 386.664 556.215 379.774C568.18 367.779 569.181 367.928 579.027 383.833C565.492 397.279 551.754 410.927 537.523 425.063Z" fill="url(#paint24_linear_505_229)"/>
<path d="M152.806 710.91C133.539 691.517 133.521 691.5 152.589 672.406C158.088 666.9 163.431 661.186 169.353 656.166C182.835 644.734 200.445 644.251 213.167 654.505C227.002 665.656 230.365 682.958 221.967 699.091C217.826 707.046 211.168 712.846 205.018 719.023C200.268 723.794 199.116 727.942 204.642 732.777C206.578 734.472 208.102 736.634 209.842 738.558C218.826 748.49 218.588 748.208 208.557 756.874C203.742 761.035 200.772 760.757 196.517 756.227C182.305 741.099 167.727 726.314 152.806 710.91ZM200.683 697.092C207.745 686.378 207.506 678.499 199.923 672.074C192.475 665.763 185.644 666.637 175.957 675.537C171.469 679.661 166.637 683.557 163.61 688.986C165.089 693.392 168.472 696.048 171.361 699.039C185.686 713.864 185.706 713.844 200.683 697.092Z" fill="url(#paint25_linear_505_229)"/>
<path d="M302.346 561.554C310.077 564.997 315.5 560.543 321.027 557.495C327.551 553.898 333.683 549.527 340.823 547.184C351.047 543.829 361.068 544.341 368.919 552.26C376.233 559.637 378.466 569.111 375.411 579.247C368.553 602 351.719 614.131 330.014 620.373C322.013 622.673 319.716 619.161 317.869 603.84C324.432 601.686 331.277 599.935 337.703 597.201C345.014 594.09 350.987 589.13 354.017 581.359C355.476 577.617 356.705 573.898 353.308 570.529C350.111 567.357 345.928 567.229 342.419 568.874C335.105 572.304 328.114 576.439 321.071 580.425C312.507 585.271 303.76 587.26 294.075 583.785C279.664 578.614 273.438 564.755 279.72 548.789C287.086 530.069 302.597 519.492 320.067 511.478C326.174 508.677 328.085 513.624 329.546 518.041C331.11 522.768 334.365 528.212 326.556 530.762C318.729 533.317 311.347 536.938 305.737 542.873C301.062 547.818 294.943 553.336 302.346 561.554Z" fill="url(#paint26_linear_505_229)"/>
<path d="M444.986 498.562C452.9 504.566 452.938 509.35 445.753 515.896C432.32 528.137 419.872 541.452 406.816 554.117C404.116 556.736 402.022 562.141 396.612 558.757C391.853 555.781 388.121 552.488 388.72 545.573C389.978 531.041 390.238 516.425 390.986 501.847C391.257 496.552 390.285 491.421 388.56 486.539C385.443 477.717 377.683 475.287 369.876 480.505C364.254 484.261 360.839 489.618 358.994 496.139C355.221 509.471 354.711 509.754 339.287 509.311C336.425 493.003 342.577 479.822 353.508 468.32C363.353 457.96 375.228 452.943 389.579 456.586C401.369 459.579 409.36 471.211 409.699 485.711C409.979 497.682 409.756 509.665 409.756 522.894C418.475 514.655 426.309 507.289 434.096 499.874C437.189 496.928 440.061 493.197 444.986 498.562Z" fill="url(#paint27_linear_505_229)"/>
<path d="M454.757 428.448C465.604 439.207 475.687 449.782 486.437 459.629C492.973 465.616 493.975 470.253 486.068 475.487C483.423 477.238 481.212 479.646 478.569 481.959C460.32 463.852 442.451 446.123 424.472 428.284C416.426 431.812 411.98 438.419 406.438 443.632C402.574 447.267 399.457 447.784 395.937 443.456C392.777 439.571 387.418 436.281 393.162 430.531C409.888 413.79 426.577 397.012 443.36 380.328C448.944 374.776 452.539 379.837 456.462 383.068C460.775 386.621 460.459 390.059 456.393 393.481C450.201 398.694 443.982 403.874 438.068 408.823C443.076 418.263 449.386 422.501 454.757 428.448Z" fill="url(#paint28_linear_505_229)"/>
<path d="M82.1781 854.56C87.4635 849.247 92.4663 844.606 97.009 839.552C101.156 834.939 104.681 834.641 109.098 839.24C113.178 843.487 116.869 846.939 110.961 852.761C97.1148 866.403 83.587 880.369 69.983 894.256C66.4315 897.881 63.4261 897.287 60.1367 893.812C41.2049 873.811 22.3294 853.753 3.13579 834.005C-3.84098 826.827 2.45889 823.49 6.29128 818.991C10.3333 814.246 14.106 812.712 19.0844 817.965C31.7864 831.369 44.7232 844.551 57.5468 857.84C68.0986 868.775 68.0868 868.787 78.9718 857.827C79.885 856.908 80.7875 855.978 82.1781 854.56Z" fill="url(#paint29_linear_505_229)"/>
<path d="M236.261 928.525C235.314 941.141 229.505 948.397 219.612 950.177C210.046 951.899 201.372 947.544 197.022 938.835C192.775 930.333 194.575 920.988 203.278 913.612C208.041 909.576 208.311 905.024 208.302 899.779C208.242 862.147 208.461 824.512 208.018 786.885C207.907 777.426 211.859 771.783 219.499 767.576C223.777 770.842 222.195 775.069 222.214 778.679C222.422 818.581 222.544 858.484 222.468 898.387C222.455 905.169 223.084 910.916 229.473 915.19C233.521 917.897 235.574 922.669 236.261 928.525ZM218.815 935.421C222.777 932.902 223.978 929.614 220.922 925.745C218.992 923.301 216.177 922.32 213.133 923.744C210.221 925.107 208.629 927.586 209.213 930.792C210.062 935.458 213.004 937.25 218.815 935.421Z" fill="url(#paint30_linear_505_229)"/>
<path d="M321.026 906.731C321.04 890.83 320.954 875.903 321.127 860.979C321.183 856.145 319.916 852.657 316.022 849.213C306.396 840.698 306.139 826.503 314.718 818.09C322.572 810.389 335.927 810.57 343.693 818.483C352.136 827.086 351.398 841.011 341.084 849.248C335.949 853.348 335.21 857.911 335.23 863.629C335.354 898.673 335.334 933.716 335.359 968.76C335.361 971.356 335.413 973.954 335.319 976.547C335.131 981.728 335.848 987.418 327.727 987.189C320.134 986.976 321.051 981.616 321.042 976.82C320.998 953.782 321.025 930.744 321.026 906.731ZM330.927 826.991C326.346 825.596 323.397 827.34 322.358 831.876C321.723 834.648 323.154 836.771 325.569 838.252C328.113 839.813 330.552 839.574 332.538 837.517C335.774 834.164 335.667 830.756 330.927 826.991Z" fill="url(#paint31_linear_505_229)"/>
<path d="M148.626 603.054C135.616 613.487 122.599 612.544 115.452 601.292C110.46 593.432 111.357 582.761 117.576 576.018C123.989 569.065 134.495 566.596 142.329 572.37C150.193 578.167 154.54 575.687 160.203 569.67C176.659 552.187 193.702 535.258 210.248 517.857C215.068 512.789 220.191 510.153 227.322 510.538C236.385 511.028 245.491 510.763 254.578 510.756C259.366 510.752 261.641 512.912 261.711 517.827C261.783 522.827 259.422 524.913 254.663 524.896C247.198 524.869 239.705 525.286 232.277 524.764C224.822 524.241 219.573 526.852 214.447 532.318C198.022 549.83 181.375 567.167 164.095 583.825C158.186 589.52 150.931 593.653 148.626 603.054ZM137.881 593.885C140.732 589.636 138.943 586.551 135.088 584.506C132.43 583.096 129.47 583.213 127.238 585.723C125.386 587.805 124.754 590.358 126.278 592.765C128.983 597.036 132.681 597.576 137.881 593.885Z" fill="url(#paint32_linear_505_229)"/>
<path d="M293.804 764.077C283.196 774.621 273.414 785.051 262.834 794.597C255.989 800.773 252.517 807.432 253.621 816.693C254.154 821.159 253.636 825.759 253.487 830.294C253.365 833.976 251.839 836.525 247.728 836.671C243.796 836.81 239.867 835.787 239.89 831.358C239.973 815.772 235.326 800.234 250.76 786.772C274.404 766.148 295.517 742.633 317.912 720.555C322.867 715.671 325.434 710.562 325.063 703.431C324.541 693.405 325.459 683.294 324.742 673.293C324.046 663.586 329.026 658.478 336.327 654.429C340.07 656.666 339.231 659.872 339.241 662.624C339.3 678.188 339.112 693.753 339.225 709.316C339.264 714.819 337.715 719.355 333.786 723.317C320.545 736.666 307.444 750.154 293.804 764.077Z" fill="url(#paint33_linear_505_229)"/>
<path d="M139.943 559.041C127.042 552.112 122.824 542.81 126.972 531.722C130.6 522.022 140.66 517.25 152.759 520.592C158.006 522.042 161.31 520.92 164.769 517.305C173.507 508.174 182.551 499.334 191.212 490.133C195.733 485.329 200.736 483.022 207.483 483.199C222.383 483.59 237.3 483.396 252.21 483.394C257.538 483.394 261.949 484.037 261.621 491.179C261.3 498.171 256.384 497.49 251.915 497.515C238.302 497.589 224.686 497.656 211.075 497.448C205.515 497.363 201.216 498.972 197.384 503.214C191.09 510.182 184.222 516.63 177.667 523.366C171.656 529.543 165.618 534.91 165.348 545.285C165.081 555.557 153.229 561.221 139.943 559.041ZM143.706 545.76C148.205 546.093 151.319 544.532 151.49 539.576C151.587 536.744 150.058 534.732 147.344 533.766C144.613 532.794 142.084 533.435 140.485 535.712C137.913 539.373 137.939 542.87 143.706 545.76Z" fill="url(#paint34_linear_505_229)"/>
<path d="M198.007 829.643C198.876 837.764 196.277 844.052 190.485 848.311C184.76 852.521 183.652 857.766 183.698 864.337C183.902 893.191 183.773 922.047 183.699 950.902C183.689 954.715 184.378 958.681 182.204 962.474C173.709 963.538 170.611 959.781 170.672 951.489C170.888 921.988 170.639 892.483 170.783 862.98C170.811 857.174 169.936 852.583 164.84 848.63C157.878 843.229 155.207 835.621 158.444 826.951C161.442 818.922 172.15 811.49 179.446 811.87C188.744 812.355 194.762 817.929 198.007 829.643ZM173.013 837.522C176.991 840.403 180.308 839.374 182.919 835.617C184.94 832.707 183.846 830.015 181.556 827.837C179.27 825.662 176.469 824.771 173.642 826.677C169.707 829.332 169.205 832.753 173.013 837.522Z" fill="url(#paint35_linear_505_229)"/>
<path d="M262.033 927.543C262.302 937.586 261.771 946.153 253.622 952.899C248.015 957.542 250.528 965.031 250.129 971.367C249.867 975.527 250.669 980.344 244.258 980.41C238.041 980.474 236.963 976.465 237.017 971.327C237.14 959.804 235.405 948.303 246.219 939.242C252.02 934.381 249.241 921.117 242.967 914.981C232.19 904.44 232.333 888.655 243.273 881.394C252.553 875.235 264.212 876.959 271.212 885.523C277.837 893.63 277.521 905.295 269.632 912.82C265.434 916.825 262.081 920.703 262.033 927.543ZM255.666 892.078C251.392 891.871 248.698 894.067 248.52 898.132C248.383 901.265 250.732 903.408 253.888 904.074C257.052 904.742 259.858 903.728 261.202 900.771C263.146 896.495 260.259 894.263 255.666 892.078Z" fill="url(#paint36_linear_505_229)"/>
<path d="M157.362 477.681C170.472 458.677 187.841 454.215 209.419 457.111C223.387 458.985 237.885 456.862 252.147 456.625C257.564 456.535 263.057 456.714 262.774 464.413C262.494 471.994 256.693 470.665 252.04 470.685C232.575 470.766 213.101 471.029 193.648 470.527C185.763 470.324 179.96 472.917 174.864 478.573C170.746 483.144 166.001 487.148 161.863 491.702C151.023 503.632 137.954 499.238 124.678 498.19C125.231 489.283 128.767 484.862 136.891 485.537C144.777 486.192 151.721 484.775 157.362 477.681Z" fill="url(#paint37_linear_505_229)"/>
<path d="M251.485 366.643C244.07 359.288 238.458 351.872 226.369 351.94C215.35 352.002 208.091 339.412 210.014 328.516C212.007 317.22 222.012 310.104 233.521 311.798C244.798 313.457 253.986 324.506 251.13 335.558C248.901 344.179 252.321 348.953 257.635 354.137C263.89 360.239 269.88 366.615 275.952 372.904C278.736 375.787 279.955 378.704 276.431 382.076C273.244 385.128 270.144 385.215 267.078 382.237C261.97 377.276 256.997 372.176 251.485 366.643ZM231.949 325.604C227.018 324.549 224.566 327.535 223.586 331.539C222.819 334.674 224.899 337.201 227.806 338.373C230.827 339.592 233.657 338.61 235.483 335.945C238.218 331.954 237.076 328.663 231.949 325.604Z" fill="url(#paint38_linear_505_229)"/>
<path d="M200.128 396.588C192.777 386.118 192.421 377.05 198.532 369.354C204.141 362.289 214.659 359.719 223.16 363.335C231.897 367.052 236.69 376.66 235.185 387.441C233.827 397.169 238.448 402.712 248.33 403.137C251.561 403.276 254.799 403.243 258.032 403.349C262.113 403.483 263.564 405.865 263.609 409.692C263.653 413.49 262.432 416.119 258.221 416.059C246.923 415.898 234.578 419.432 226.839 406.778C224.647 403.195 220.822 402.175 216.618 402.6C210.498 403.219 205.087 401.589 200.128 396.588ZM218.694 387.488C222.335 384.258 222.333 380.75 219.105 377.373C216.771 374.932 213.887 374.969 211.128 376.806C208.463 378.579 206.768 381.168 208.121 384.253C209.874 388.25 212.952 390.337 218.694 387.488Z" fill="url(#paint39_linear_505_229)"/>
<path d="M131.507 883.756C135.353 875.428 133.552 867.246 133.47 859.302C133.383 850.82 137.807 846.63 146.693 841.559C146.693 854.193 146.749 864.659 146.667 875.125C146.632 879.471 147.314 882.877 151.269 885.999C162.267 894.68 163.427 909.181 154.496 918.056C146.183 926.318 132.83 926.094 125.005 917.562C116.578 908.373 118.541 893.898 129.377 885.39C129.884 884.992 130.447 884.663 131.507 883.756ZM145.461 907.459C148.249 903.773 147.156 900.663 143.638 898.463C140.673 896.608 137.34 896.635 134.725 899.265C132.387 901.616 132.236 904.718 134.181 907.238C137.014 910.91 140.699 910.923 145.461 907.459Z" fill="url(#paint40_linear_505_229)"/>
<path d="M210.606 425.408C214.375 429.546 218.391 430.819 223.274 430.713C233.959 430.483 244.654 430.713 255.344 430.648C260.396 430.617 263.296 432.485 263.275 437.997C263.254 443.503 259.475 444.334 255.433 444.407C242.803 444.635 230.169 444.638 217.536 444.691C212.701 444.712 208.836 442.552 205.521 439.179C195.304 428.781 185.131 418.338 174.803 408.051C170.997 404.261 169.857 400.621 173.828 396.324C178.593 391.166 181.448 396.056 184.122 398.652C192.951 407.222 201.454 416.128 210.606 425.408Z" fill="url(#paint41_linear_505_229)"/>
<path d="M97.6305 632.882C108.799 619.185 121.133 618.681 132.316 631.324C135.316 634.715 138.528 635.406 142.531 635.634C147.245 635.903 152.198 634.428 157.402 637.469C153.569 643.765 149.989 649.676 141.633 649.639C137.735 649.621 135.183 651.318 132.578 654.242C124.242 663.595 114.616 665.638 105.741 660.558C96.583 655.317 93.4297 645.285 97.6305 632.882ZM119.521 647.648C122.627 644.239 122.868 640.802 119.185 637.756C117.076 636.011 114.456 635.83 112.043 637.299C109.553 638.817 108.912 641.303 109.538 643.965C110.68 648.818 114.042 649.631 119.521 647.648Z" fill="url(#paint42_linear_505_229)"/>
<path d="M308.763 123.041C298.763 136.273 287.305 138.539 276.789 130.007C268.362 123.169 267.267 110.199 274.352 101.144C280.202 93.665 290.141 91.2474 298.831 95.1887C308.768 99.6954 312.18 108.703 308.763 123.041ZM293.458 119.822C296.538 117.451 298.511 114.702 295.784 110.912C293.657 107.957 290.556 107.346 287.229 108.355C283.929 109.356 282.698 111.986 283.452 115.119C284.533 119.608 287.743 121.168 293.458 119.822Z" fill="url(#paint43_linear_505_229)"/>
<path d="M195.25 589.739C197.178 593.174 199.822 595.141 202.942 595.98L150.16 646.683C148.203 648.563 145.091 648.501 143.211 646.543C141.331 644.586 141.393 641.474 143.351 639.594L195.25 589.739Z" fill="url(#paint44_linear_505_229)"/>
<path d="M357.986 433.417C359.944 431.537 363.055 431.599 364.936 433.557C366.816 435.514 366.753 438.625 364.796 440.506L220.29 579.316C219.578 576.907 218.335 574.399 216.52 571.901C215.965 571.53 215.414 571.195 214.871 570.891L357.986 433.417Z" fill="url(#paint45_linear_505_229)"/>
<path fill-rule="evenodd" clip-rule="evenodd" d="M197.503 573.525C202.86 567.941 209.208 567.008 216.52 571.901C224.637 583.066 221.338 594.437 210.087 596.201C203.822 597.183 198.446 595.55 195.179 589.614C191.933 583.716 193.106 578.109 197.503 573.525ZM211.034 577.747C207.862 575.628 205.108 576.032 202.784 578.45C200.876 580.435 200.367 582.864 201.775 585.418C203.193 587.989 205.526 588.696 208.244 588.271C213.125 587.506 214.556 582.582 211.034 577.747Z" fill="url(#paint46_linear_505_229)"/>
<defs>
<linearGradient id="paint0_linear_505_229" x1="361.165" y1="0" x2="361.165" y2="1012.11" gradientUnits="userSpaceOnUse">
<stop stop-color="#1D968B"/>
<stop offset="1" stop-color="#124E49"/>
</linearGradient>
<linearGradient id="paint1_linear_505_229" x1="361.165" y1="0" x2="361.165" y2="1012.11" gradientUnits="userSpaceOnUse">
<stop stop-color="#1D968B"/>
<stop offset="1" stop-color="#124E49"/>
</linearGradient>
<linearGradient id="paint2_linear_505_229" x1="361.165" y1="0" x2="361.165" y2="1012.11" gradientUnits="userSpaceOnUse">
<stop stop-color="#1D968B"/>
<stop offset="1" stop-color="#124E49"/>
</linearGradient>
<linearGradient id="paint3_linear_505_229" x1="361.165" y1="0" x2="361.165" y2="1012.11" gradientUnits="userSpaceOnUse">
<stop stop-color="#1D968B"/>
<stop offset="1" stop-color="#124E49"/>
</linearGradient>
<linearGradient id="paint4_linear_505_229" x1="361.165" y1="0" x2="361.165" y2="1012.11" gradientUnits="userSpaceOnUse">
<stop stop-color="#1D968B"/>
<stop offset="1" stop-color="#124E49"/>
</linearGradient>
<linearGradient id="paint5_linear_505_229" x1="361.165" y1="0" x2="361.165" y2="1012.11" gradientUnits="userSpaceOnUse">
<stop stop-color="#1D968B"/>
<stop offset="1" stop-color="#124E49"/>
</linearGradient>
<linearGradient id="paint6_linear_505_229" x1="361.165" y1="0" x2="361.165" y2="1012.11" gradientUnits="userSpaceOnUse">
<stop stop-color="#1D968B"/>
<stop offset="1" stop-color="#124E49"/>
</linearGradient>
<linearGradient id="paint7_linear_505_229" x1="361.165" y1="0" x2="361.165" y2="1012.11" gradientUnits="userSpaceOnUse">
<stop stop-color="#1D968B"/>
<stop offset="1" stop-color="#124E49"/>
</linearGradient>
<linearGradient id="paint8_linear_505_229" x1="361.165" y1="0" x2="361.165" y2="1012.11" gradientUnits="userSpaceOnUse">
<stop stop-color="#1D968B"/>
<stop offset="1" stop-color="#124E49"/>
</linearGradient>
<linearGradient id="paint9_linear_505_229" x1="361.165" y1="0" x2="361.165" y2="1012.11" gradientUnits="userSpaceOnUse">
<stop stop-color="#1D968B"/>
<stop offset="1" stop-color="#124E49"/>
</linearGradient>
<linearGradient id="paint10_linear_505_229" x1="361.165" y1="0" x2="361.165" y2="1012.11" gradientUnits="userSpaceOnUse">
<stop stop-color="#1D968B"/>
<stop offset="1" stop-color="#124E49"/>
</linearGradient>
<linearGradient id="paint11_linear_505_229" x1="361.165" y1="0" x2="361.165" y2="1012.11" gradientUnits="userSpaceOnUse">
<stop stop-color="#1D968B"/>
<stop offset="1" stop-color="#124E49"/>
</linearGradient>
<linearGradient id="paint12_linear_505_229" x1="361.165" y1="0" x2="361.165" y2="1012.11" gradientUnits="userSpaceOnUse">
<stop stop-color="#1D968B"/>
<stop offset="1" stop-color="#124E49"/>
</linearGradient>
<linearGradient id="paint13_linear_505_229" x1="361.165" y1="0" x2="361.165" y2="1012.11" gradientUnits="userSpaceOnUse">
<stop stop-color="#1D968B"/>
<stop offset="1" stop-color="#124E49"/>
</linearGradient>
<linearGradient id="paint14_linear_505_229" x1="361.165" y1="0" x2="361.165" y2="1012.11" gradientUnits="userSpaceOnUse">
<stop stop-color="#1D968B"/>
<stop offset="1" stop-color="#124E49"/>
</linearGradient>
<linearGradient id="paint15_linear_505_229" x1="361.165" y1="0" x2="361.165" y2="1012.11" gradientUnits="userSpaceOnUse">
<stop stop-color="#1D968B"/>
<stop offset="1" stop-color="#124E49"/>
</linearGradient>
<linearGradient id="paint16_linear_505_229" x1="361.165" y1="0" x2="361.165" y2="1012.11" gradientUnits="userSpaceOnUse">
<stop stop-color="#1D968B"/>
<stop offset="1" stop-color="#124E49"/>
</linearGradient>
<linearGradient id="paint17_linear_505_229" x1="361.165" y1="0" x2="361.165" y2="1012.11" gradientUnits="userSpaceOnUse">
<stop stop-color="#1D968B"/>
<stop offset="1" stop-color="#124E49"/>
</linearGradient>
<linearGradient id="paint18_linear_505_229" x1="361.165" y1="0" x2="361.165" y2="1012.11" gradientUnits="userSpaceOnUse">
<stop stop-color="#1D968B"/>
<stop offset="1" stop-color="#124E49"/>
</linearGradient>
<linearGradient id="paint19_linear_505_229" x1="361.165" y1="0" x2="361.165" y2="1012.11" gradientUnits="userSpaceOnUse">
<stop stop-color="#1D968B"/>
<stop offset="1" stop-color="#124E49"/>
</linearGradient>
<linearGradient id="paint20_linear_505_229" x1="361.165" y1="0" x2="361.165" y2="1012.11" gradientUnits="userSpaceOnUse">
<stop stop-color="#1D968B"/>
<stop offset="1" stop-color="#124E49"/>
</linearGradient>
<linearGradient id="paint21_linear_505_229" x1="361.165" y1="0" x2="361.165" y2="1012.11" gradientUnits="userSpaceOnUse">
<stop stop-color="#1D968B"/>
<stop offset="1" stop-color="#124E49"/>
</linearGradient>
<linearGradient id="paint22_linear_505_229" x1="361.165" y1="0" x2="361.165" y2="1012.11" gradientUnits="userSpaceOnUse">
<stop stop-color="#1D968B"/>
<stop offset="1" stop-color="#124E49"/>
</linearGradient>
<linearGradient id="paint23_linear_505_229" x1="361.165" y1="0" x2="361.165" y2="1012.11" gradientUnits="userSpaceOnUse">
<stop stop-color="#1D968B"/>
<stop offset="1" stop-color="#124E49"/>
</linearGradient>
<linearGradient id="paint24_linear_505_229" x1="361.165" y1="0" x2="361.165" y2="1012.11" gradientUnits="userSpaceOnUse">
<stop stop-color="#1D968B"/>
<stop offset="1" stop-color="#124E49"/>
</linearGradient>
<linearGradient id="paint25_linear_505_229" x1="361.165" y1="0" x2="361.165" y2="1012.11" gradientUnits="userSpaceOnUse">
<stop stop-color="#1D968B"/>
<stop offset="1" stop-color="#124E49"/>
</linearGradient>
<linearGradient id="paint26_linear_505_229" x1="361.165" y1="0" x2="361.165" y2="1012.11" gradientUnits="userSpaceOnUse">
<stop stop-color="#1D968B"/>
<stop offset="1" stop-color="#124E49"/>
</linearGradient>
<linearGradient id="paint27_linear_505_229" x1="361.165" y1="0" x2="361.165" y2="1012.11" gradientUnits="userSpaceOnUse">
<stop stop-color="#1D968B"/>
<stop offset="1" stop-color="#124E49"/>
</linearGradient>
<linearGradient id="paint28_linear_505_229" x1="361.165" y1="0" x2="361.165" y2="1012.11" gradientUnits="userSpaceOnUse">
<stop stop-color="#1D968B"/>
<stop offset="1" stop-color="#124E49"/>
</linearGradient>
<linearGradient id="paint29_linear_505_229" x1="361.165" y1="0" x2="361.165" y2="1012.11" gradientUnits="userSpaceOnUse">
<stop stop-color="#1D968B"/>
<stop offset="1" stop-color="#124E49"/>
</linearGradient>
<linearGradient id="paint30_linear_505_229" x1="361.165" y1="0" x2="361.165" y2="1012.11" gradientUnits="userSpaceOnUse">
<stop stop-color="#1D968B"/>
<stop offset="1" stop-color="#124E49"/>
</linearGradient>
<linearGradient id="paint31_linear_505_229" x1="361.165" y1="0" x2="361.165" y2="1012.11" gradientUnits="userSpaceOnUse">
<stop stop-color="#1D968B"/>
<stop offset="1" stop-color="#124E49"/>
</linearGradient>
<linearGradient id="paint32_linear_505_229" x1="361.165" y1="0" x2="361.165" y2="1012.11" gradientUnits="userSpaceOnUse">
<stop stop-color="#1D968B"/>
<stop offset="1" stop-color="#124E49"/>
</linearGradient>
<linearGradient id="paint33_linear_505_229" x1="361.165" y1="0" x2="361.165" y2="1012.11" gradientUnits="userSpaceOnUse">
<stop stop-color="#1D968B"/>
<stop offset="1" stop-color="#124E49"/>
</linearGradient>
<linearGradient id="paint34_linear_505_229" x1="361.165" y1="0" x2="361.165" y2="1012.11" gradientUnits="userSpaceOnUse">
<stop stop-color="#1D968B"/>
<stop offset="1" stop-color="#124E49"/>
</linearGradient>
<linearGradient id="paint35_linear_505_229" x1="361.165" y1="0" x2="361.165" y2="1012.11" gradientUnits="userSpaceOnUse">
<stop stop-color="#1D968B"/>
<stop offset="1" stop-color="#124E49"/>
</linearGradient>
<linearGradient id="paint36_linear_505_229" x1="361.165" y1="0" x2="361.165" y2="1012.11" gradientUnits="userSpaceOnUse">
<stop stop-color="#1D968B"/>
<stop offset="1" stop-color="#124E49"/>
</linearGradient>
<linearGradient id="paint37_linear_505_229" x1="361.165" y1="0" x2="361.165" y2="1012.11" gradientUnits="userSpaceOnUse">
<stop stop-color="#1D968B"/>
<stop offset="1" stop-color="#124E49"/>
</linearGradient>
<linearGradient id="paint38_linear_505_229" x1="361.165" y1="0" x2="361.165" y2="1012.11" gradientUnits="userSpaceOnUse">
<stop stop-color="#1D968B"/>
<stop offset="1" stop-color="#124E49"/>
</linearGradient>
<linearGradient id="paint39_linear_505_229" x1="361.165" y1="0" x2="361.165" y2="1012.11" gradientUnits="userSpaceOnUse">
<stop stop-color="#1D968B"/>
<stop offset="1" stop-color="#124E49"/>
</linearGradient>
<linearGradient id="paint40_linear_505_229" x1="361.165" y1="0" x2="361.165" y2="1012.11" gradientUnits="userSpaceOnUse">
<stop stop-color="#1D968B"/>
<stop offset="1" stop-color="#124E49"/>
</linearGradient>
<linearGradient id="paint41_linear_505_229" x1="361.165" y1="0" x2="361.165" y2="1012.11" gradientUnits="userSpaceOnUse">
<stop stop-color="#1D968B"/>
<stop offset="1" stop-color="#124E49"/>
</linearGradient>
<linearGradient id="paint42_linear_505_229" x1="361.165" y1="0" x2="361.165" y2="1012.11" gradientUnits="userSpaceOnUse">
<stop stop-color="#1D968B"/>
<stop offset="1" stop-color="#124E49"/>
</linearGradient>
<linearGradient id="paint43_linear_505_229" x1="361.165" y1="0" x2="361.165" y2="1012.11" gradientUnits="userSpaceOnUse">
<stop stop-color="#1D968B"/>
<stop offset="1" stop-color="#124E49"/>
</linearGradient>
<linearGradient id="paint44_linear_505_229" x1="361.165" y1="0" x2="361.165" y2="1012.11" gradientUnits="userSpaceOnUse">
<stop stop-color="#1D968B"/>
<stop offset="1" stop-color="#124E49"/>
</linearGradient>
<linearGradient id="paint45_linear_505_229" x1="361.165" y1="0" x2="361.165" y2="1012.11" gradientUnits="userSpaceOnUse">
<stop stop-color="#1D968B"/>
<stop offset="1" stop-color="#124E49"/>
</linearGradient>
<linearGradient id="paint46_linear_505_229" x1="361.165" y1="0" x2="361.165" y2="1012.11" gradientUnits="userSpaceOnUse">
<stop stop-color="#1D968B"/>
<stop offset="1" stop-color="#124E49"/>
</linearGradient>
</defs>
</svg>
