<svg width="1200" height="688" viewBox="0 0 1200 688" fill="none" xmlns="http://www.w3.org/2000/svg">
<path d="M630.416 113.209C636.32 117.878 641.937 121.995 648.811 123.855C653.055 125.004 654.127 127.796 654.11 131.94C653.987 162.885 654.013 193.83 654.061 224.775C654.068 229.724 652.276 233.701 648.825 237.192C617.462 268.911 586.146 300.676 554.815 332.426C549.877 337.429 544.126 340.023 536.857 339.818C525.006 339.483 513.135 339.581 501.277 339.788C496.538 339.871 493.248 338.403 489.959 334.739C482.21 326.104 472.283 322.223 460.719 325.266C449.249 328.283 443.524 336.597 441.285 347.918C439.062 359.164 446.896 372.729 458.739 377.458C469.775 381.864 485.125 377.872 490.035 367.852C493.768 360.235 498.683 358.337 506.447 358.747C518.02 359.357 529.651 358.814 541.242 359.209C548.987 359.473 555.382 356.98 560.745 351.617C595.925 316.432 631.105 281.247 666.21 245.986C671.134 241.04 673.279 234.95 673.231 227.788C673.036 198.649 673.098 169.508 673.144 140.368C673.149 137.102 672.363 133.654 674.701 130.204C685.33 130.856 695.606 134.309 706.111 136.383C716.939 138.521 727.578 141.595 738.363 143.978C743.433 145.098 745.566 147.448 745.448 152.955C745.1 169.194 745.197 185.447 745.391 201.69C745.445 206.29 744.088 209.165 739.948 211.67C723.799 221.443 718.985 240.526 728.819 256.478C731.567 260.935 731.181 263.316 727.675 266.888C701.487 293.565 675.557 320.496 649.422 347.227C641.748 355.076 638.507 364.298 638.546 375.161C638.695 416.678 638.573 458.197 638.74 499.714C638.757 503.929 637.701 507.098 634.672 509.996C629.458 514.984 624.5 520.239 619.44 525.387C612.272 532.68 602.212 532.432 596.233 524.253C589.444 514.968 581.112 510.509 569.233 511.16C554.322 511.977 539.325 511.088 524.381 511.52C517.933 511.706 513.948 509.369 510.369 504.168C502.48 492.705 488.866 488.324 476.37 492.517C464.623 496.458 455.76 509.48 456.067 522.521C456.115 524.545 456.145 526.843 457.069 528.528C462.179 537.836 459.496 546.001 454.745 554.61C448.279 566.327 442.716 578.547 436.883 590.608C435.836 592.772 433.588 594.775 435.063 597.741C438.329 598.426 439.538 595.765 441.149 593.978C452.19 581.732 463.914 570.081 473.95 556.957C476.553 553.553 479.496 552.014 483.791 552.248C497.583 552.997 506.734 545.402 512.992 534.306C515.723 529.463 518.678 527.818 523.877 527.9C537.282 528.112 550.698 528.16 564.099 527.836C572.174 527.641 577.817 531.222 582.407 537.377C595.051 554.334 614.388 555.768 629.441 540.876C636.589 533.804 643.484 526.464 650.837 519.615C656.385 514.448 658.293 508.433 658.247 500.982C657.988 459.465 658.153 417.946 657.863 376.43C657.802 367.597 660.506 360.952 666.937 354.58C692.024 329.723 716.599 304.347 741.244 279.046C745.552 274.624 749.895 272.012 756.558 271.877C769.94 271.608 782.032 260.452 785.477 246.727C788.743 233.716 783.243 219.542 771.339 212.832C765.775 209.696 764.156 205.921 764.297 199.87C764.66 184.197 764.419 168.51 764.419 152.219C774.151 152.369 782.277 155.694 790.457 158.058C829.03 169.206 867.161 181.7 904.583 196.34C910.683 198.727 911.538 201.671 909.734 207.403C897.537 246.165 885.565 284.998 873.518 323.807C872.422 327.337 870.441 330.22 867.623 332.672C839.597 357.043 813.939 383.937 786.489 408.919C776.904 417.643 772.299 428.737 771.859 441.125C770.585 476.981 771.325 512.711 784.096 546.985C785.248 550.077 786.594 553.096 789.118 556.072C789.118 553.398 789.172 550.724 789.11 548.052C788.297 512.987 790.41 477.969 790.735 442.922C790.818 434.032 793.805 426.884 800.629 420.514C827.197 395.71 852.905 369.975 879.735 345.466C890.319 335.797 893.271 323.355 897.224 310.97C907.078 280.093 916.695 249.141 926.472 218.239C927.548 214.838 929.044 211.57 930.289 208.382C933.786 207.714 936.269 209.369 938.742 210.448C1012.74 242.707 1082.61 282.01 1146.39 331.786C1160.61 342.882 1175.27 353.427 1188.76 365.423C1203 378.08 1203.49 383.147 1191.48 397.59C1173.73 418.947 1152 436.054 1130.4 453.167C1117.7 463.232 1103.98 472.018 1090.84 481.532C1085.67 485.268 1081.91 485.669 1076.08 481.205C1041.48 454.705 1002.43 448.945 960.546 458.254C959.045 458.587 957.583 459.126 956.129 459.645C954.966 460.06 953.843 460.589 952.684 461.634C972.348 462.159 991.955 462.572 1010.85 468.82C1029.66 475.041 1047.71 482.571 1063.12 496.185C1059.96 500.596 1056.01 502.092 1052.51 503.958C994.635 534.783 933.589 556.641 869.05 568.547C865.768 569.152 862.459 569.798 859.138 569.978C849.003 570.531 843.205 576.146 838.441 584.836C814.257 628.943 780.376 662.704 732.742 681.121C725.571 683.893 718.114 686.319 710.568 687.638C698.482 689.75 691.777 682.421 696.988 671.124C706.258 651.028 708.919 629.228 707.156 607C705.835 590.344 693.325 579.797 676.697 581.706C660.039 583.619 643.266 582.804 626.545 583.995C601.428 585.785 577.909 589.545 555.727 603.868C508.462 634.386 455.967 652.373 400.449 661.228C385.226 663.657 369.856 665.376 354.341 664.633C350.951 664.471 347.664 664.12 344.538 662.789C336.417 659.332 335.26 654.366 341.477 648.178C364.393 625.369 381.944 598.859 395.727 569.764C400.828 558.995 404.396 547.878 404.119 535.609C403.944 527.87 400.982 522.329 395.018 517.883C385.631 510.885 374.82 506.538 364.47 501.347C324.168 481.132 284.907 458.882 243.843 440.142C218.92 428.768 204.101 430.733 184.424 449.695C152.608 480.356 119.343 509.147 80.3361 530.539C63.816 539.598 46.9285 547.814 28.4818 552.273C26.2498 552.812 23.9311 553.208 21.6436 553.258C17.191 553.355 13.4211 551.579 11.5162 547.479C9.78311 543.748 12.7021 541.114 14.8813 538.672C39.7129 510.848 60.9312 480.489 78.1102 447.41C89.1504 426.152 99.6737 404.594 105.123 381.026C113.009 346.923 106.894 314.526 92.2262 283.525C69.493 235.474 40.5457 191.461 4.69647 152.107C1.61533 148.724 -1.43697 145.25 0.730834 140.53C2.80515 136.013 7.49031 137.532 11.1281 137.629C26.0782 138.027 39.8035 143.317 53.2872 149.106C80.3296 160.714 103.502 178.274 126.29 196.552C150.035 215.597 171.503 237.222 195.139 256.345C205.485 264.715 215.685 273.745 230.76 272.291C236.572 271.73 241.815 270.182 246.937 267.688C269.947 256.484 290.723 241.548 312.492 228.28C345.765 208.001 380.028 189.607 415.047 172.574C422.243 169.073 428.925 164.65 435.925 160.847C453.951 151.054 459.732 134.668 461.061 115.892C463.583 80.2344 453.688 47.7066 435.41 17.4117C432.909 13.2658 428.89 8.87416 432.32 4.0448C435.571 -0.532677 441.411 -0.216414 446.52 0.25653C479.381 3.29819 508.645 16.1363 535.89 33.9679C562.946 51.6763 586.801 73.3763 610.559 95.1567C617.018 101.078 623.524 106.948 630.416 113.209ZM380.102 261.53C367.047 274.712 353.921 287.825 340.992 301.131C338.174 304.031 335.679 305.087 331.534 303.914C318.001 300.084 303.165 306.201 296.79 318.695C294.314 323.547 291.249 324.431 286.504 324.401C262.534 324.249 238.561 324.242 214.59 324.405C209.7 324.438 205.931 323.27 202.116 319.879C193.98 312.644 183.794 313.653 176.672 321.606C169.455 329.666 170.266 338.634 178.935 346.634C187.362 354.41 194.693 354.136 202.999 345.41C205.407 342.88 207.663 340.786 211.43 340.792C236.174 340.832 260.919 340.703 285.661 340.855C289.962 340.881 294.647 341.278 296.631 346.357C301.557 358.968 320.675 365.404 332.949 360.378C346.954 354.643 354.315 340.726 350.63 324.976C349.169 318.732 350.796 314.86 355.022 310.667C381.733 284.169 408.325 257.552 434.795 230.814C438.381 227.192 442.198 225.768 447.143 225.808C465.701 225.956 484.261 225.797 502.818 225.953C507.686 225.994 511.791 224.784 515.676 221.774C525.94 213.824 534.045 203.768 542.822 194.377C545.501 191.511 546.512 187.65 546.499 183.627C546.482 178.473 546.884 173.288 546.463 168.17C545.818 160.334 547.479 155.341 555.768 151.407C570.402 144.461 576.266 125.903 570.211 111.711C564.185 97.5851 547.09 89.5071 532.482 93.7362C520.345 97.2496 514.324 106.3 512.137 117.726C509.767 130.108 512.948 141.311 523.261 149.563C525.892 151.668 528.498 153.259 528.767 157.301C529.835 173.334 530.06 188.912 513.987 198.809C512.919 199.466 512.048 200.521 511.249 201.522C507.911 205.705 503.632 206.926 498.331 206.838C482.612 206.576 466.885 206.863 451.163 206.729C440.283 206.636 431.17 210.156 423.473 218.052C409.438 232.447 395.093 246.539 380.102 261.53ZM440.53 283.269C425.291 298.639 410.049 314.005 394.813 329.378C371.047 353.359 347.268 377.328 323.533 401.342C317.956 406.985 312.078 408.909 304.056 405.961C286.206 399.401 268.114 393.48 250.016 387.62C237.387 383.532 221.86 389.182 215.589 400.067C228.091 397.009 239.319 400.369 250.283 405.197C263.719 411.113 277.547 416.018 291.202 421.367C310.117 428.777 325.289 424.85 339.363 410.301C376.449 371.962 414.202 334.269 451.487 296.121C456.35 291.144 461.267 288.851 468.35 289.011C488.443 289.466 508.559 288.882 528.654 289.295C538.105 289.489 545.551 286.501 552.105 279.807C567.971 263.603 584.097 247.653 600.12 231.603C606.602 225.11 610.414 217.583 609.701 208.106C609.332 203.205 609.864 198.805 613.506 194.546C620.099 186.838 618.841 176.706 611.489 170.457C604.525 164.537 592.382 165.244 586.106 171.935C579.699 178.765 579.673 189.324 586.047 196.519C592.654 203.978 592.713 212.623 585.841 219.578C571.166 234.427 556.292 249.078 541.63 263.94C538.31 267.306 534.688 268.74 529.961 268.694C511.406 268.512 492.808 269.338 474.303 268.344C460.453 267.6 449.546 271.351 440.53 283.269ZM826.599 245.524C827.605 247.31 828.508 249.164 829.634 250.871C836.526 261.316 834.565 278.236 825.579 287.032C789.486 322.358 753.583 357.881 717.285 392.995C707.475 402.485 703.28 413.418 703.49 426.808C703.801 446.649 704.727 466.583 703.278 486.323C701.414 511.71 712.505 530.44 729.802 546.916C731.581 548.611 733.042 551.024 736.235 550.618C737.644 546.78 735.644 543.425 734.379 540.264C726.117 519.618 722.931 498.33 723.983 476.084C724.821 458.34 724.464 440.518 724.043 422.744C723.863 415.138 726.388 409.624 731.764 404.375C766.609 370.349 800.844 335.688 836.147 302.149C847.411 291.447 853.502 280.322 851.251 264.904C850.423 259.232 852.384 254.818 856.346 250.345C864.076 241.618 860.496 229.039 850.13 223.934C838.726 218.318 822.41 228.042 826.599 245.524ZM468.626 424.851C460.636 424.843 452.636 424.612 444.657 424.91C439.763 425.093 436.689 423.342 433.741 419.357C426.863 410.06 417.058 406.562 405.807 408.324C394.57 410.085 385.507 420.386 384.85 431.082C383.956 445.638 390.265 455.757 402.872 459.99C414.798 463.994 427.245 459.651 433.666 448.794C436.106 444.667 438.668 442.264 443.901 442.309C470.965 442.54 498.032 442.48 525.097 442.382C529.475 442.366 531.934 443.704 533.841 448.05C539.232 460.335 549.508 466.644 562.544 466.701C576.938 466.763 589.065 454.966 590.979 440.846C592.907 426.628 584.155 412.409 570.344 407.319C556.842 402.343 543.394 406.794 535.829 419.559C533.273 423.872 530.33 424.917 525.851 424.886C507.293 424.759 488.733 424.845 468.626 424.851ZM1044.86 364.767C1046.83 362.51 1050.38 361.861 1051.32 358.576C1041.18 346.308 1006.18 331.582 997.087 335.84C1001.65 343.238 1006.29 350.57 1010.74 358.017C1021.72 376.392 1026.46 377.476 1044.86 364.767Z" fill="#09434B"/>
<path d="M761.604 227.408C769.371 231.491 771.762 237.778 769.464 245.158C767.568 251.244 762.67 254.732 755.968 254.626C749.043 254.516 744.463 250.98 742.073 244.5C740.034 238.972 741.914 234.082 745.564 230.336C749.712 226.08 755.071 224.301 761.604 227.408Z" fill="#09434B"/>
<path d="M489.896 534.696C482.419 535.722 476.21 534.544 473.16 527.564C470.923 522.448 470.778 516.927 475.102 512.54C479.079 508.504 483.753 506.323 489.66 508.546C495.168 510.619 498.788 514.095 499.275 520.19C499.826 527.091 497.301 532.172 489.896 534.696Z" fill="#09434B"/>
<path d="M466.582 362.945C458.273 360.404 455.297 356.096 456.661 349.517C457.742 344.299 464.174 339.495 469.409 340.57C475.546 341.83 479.538 345.246 479.263 352.271C478.977 359.601 476.181 362.217 466.582 362.945Z" fill="#09434B"/>
<path d="M532.639 112.896C539.81 107.825 546.342 108.912 552.174 113.743C557.328 118.012 557.914 124.131 555.546 129.906C552.831 136.527 547.241 139.353 540.009 138.579C534.279 137.966 530.432 134.35 528.532 129.514C526.248 123.697 527.362 117.898 532.639 112.896Z" fill="#09434B"/>
<path d="M309.549 332.97C310.999 323.235 315.322 319.569 323.859 320.173C330.765 320.661 335.028 325.099 335.302 332.088C335.604 339.786 331.22 345.142 324.012 345.88C316.292 346.671 311.48 342.592 309.549 332.97Z" fill="#09434B"/>
<path d="M407.06 444.988C399.553 440.7 397.477 434.654 401.069 429.202C404.734 423.642 412.587 422.491 417.848 426.742C422.831 430.769 423.274 437.522 419.037 442.322C415.826 445.96 411.713 445.255 407.06 444.988Z" fill="#09434B"/>
<path d="M548.345 436.955C548.454 434.573 548.899 432.898 551.594 432.049C554.555 441.54 563.511 440.401 571.66 442.265C569.233 447.511 565.636 449.848 560.631 449.393C553.529 448.748 549.818 444.213 548.345 436.955Z" fill="#09434B"/>
</svg>
