<svg width="571" height="834" viewBox="0 0 571 834" fill="none" xmlns="http://www.w3.org/2000/svg">
<path d="M289 1.26672C285.133 2.20006 283.133 4.20007 279.933 10.2001C277.533 14.7334 277.133 17.9334 277.133 29.6667C277.133 45.8001 279.267 56.6001 287.8 83.4001C291.133 93.6668 293.667 104.333 293.667 107.667C293.667 110.867 291.533 122.067 288.867 132.6C283 156.6 281.667 175.667 284.867 192.467C286.067 198.733 286.6 205.8 286.2 207.933C285.8 210.2 279.933 218.867 273.267 227.4C266.467 235.933 259.133 245.4 257 248.6C252.333 255.133 243.133 260.733 223.667 269C182.6 286.333 156.333 304.333 125 336.467C108.467 353.4 97.2666 367.267 86.7333 383.8C64.4666 418.467 49.8 453 39.5333 494.333C31.5333 526.733 29.4 544.733 28.7333 585.267C27.8 632.6 29.9333 657.133 37.8 691.933L40.6 704.2L33.9333 711.933C12.4666 736.867 -1.13336 765.667 0.866636 782.067C4.06664 809.267 47.5333 829.4 109 831.933C141.4 833.267 242.5 836.333 242.5 825C242.5 814.733 239.2 806.267 210 798C188.533 792 95.9333 788.2 90.0666 782.6C85.1333 777.933 84.2 771.133 87.8 765.933C90.6 761.933 93.8 762.2 105.133 767.667C125.4 777.533 116.867 777 273 777C407.267 777 413.267 776.867 419.667 774.467C429.267 770.867 433.667 767.4 436.467 761.133C443.667 745.133 434.867 726.2 417.8 721.133C413.8 719.933 406.733 719 402.2 719H393.8L397 707.267C398.733 700.867 403 683.8 406.467 669.267C411.533 648.2 413.133 643.267 414.467 644.6C417.8 648.067 432.333 677.4 438.067 692.333C441.4 700.733 448.067 720.2 453.133 735.4C467 778.067 466.867 777.933 513.267 778.733C539.8 779.133 545.133 779 551 777C564.067 772.6 570.067 764.733 570.067 752.067C569.933 736.467 559.133 725.933 541.933 724.733C530.867 723.8 528.067 721.533 524.467 710.467C521.267 700.867 514.467 670.6 512.2 656.333C510.067 642.333 511.533 595.8 514.867 567.667C519 534.867 528.467 497.667 541 465.933C556.867 425.8 564.867 394.6 566.867 364.733C568.867 333 565.533 306.6 555.933 277.667C550.6 261.933 550.333 260.2 550.467 245.667C550.467 229.4 551.667 223.667 559.667 199C566.067 179.533 567.4 169.533 565.667 155.267C563.8 139.933 561.267 129.4 555.4 111.8C549 92.3334 549 84.4668 555.667 66.3334C568.333 32.0668 570.467 11.6667 562.333 3.53339C555.133 -3.66661 544.333 0.466763 523 18.6001C507.133 32.0668 500.2 37.0001 489.667 42.3334L482.333 46.0668L463.667 43.9334C428.733 39.9334 431.4 39.9334 376.333 43.8L365 44.4667L342.333 27.5334C314.333 6.60005 298.733 -1.13328 289 1.26672Z" fill="#37949A"/>
<path fill-rule="evenodd" clip-rule="evenodd" d="M384.267 97.0416C367.468 104.847 364.81 125.053 378.931 137.618L384.489 142.563L384.462 200.223L384.435 257.879L377.43 265.324C373.581 269.423 347.11 296.997 318.609 326.607L266.794 380.444H257.827C252.764 380.444 248.861 379.853 248.861 379.087C248.861 378.339 246.408 375.881 243.407 373.621C225.263 359.958 201.446 381.413 212.414 401.542C220.395 416.184 239.262 416.184 249.194 401.539L253.309 395.471H263.311H273.311L335.415 330.926C369.571 295.423 398.067 265.457 398.737 264.331C399.44 263.153 399.965 236.676 399.979 201.996L399.999 141.71L404.598 138.062C424.633 122.178 406.946 86.4979 384.267 97.0416ZM397.496 110.061C404.813 115.478 400.904 129.092 392.028 129.092C382.89 129.092 378.739 118.195 385.286 111.387C389.993 106.494 392.334 106.242 397.496 110.061ZM472.058 125.029C457.595 132.97 456.979 155.555 470.992 164.157L474.834 166.518L475.201 204.835C475.403 225.912 475.271 251.93 474.911 262.656L474.252 282.156L409.527 349.425L344.802 416.698V453.253V489.812L340.152 494.054C327.118 505.947 328.642 525.213 343.116 531.581C366.112 541.698 383.432 512.756 365.106 494.834L359.259 489.112V455.551V421.993L394.996 385.169C478.875 298.739 488.08 289.02 489.348 285.555C490.173 283.299 490.681 259.858 490.681 224.034V166.161L494.469 163.357C516.126 147.326 495.549 112.131 472.058 125.029ZM486.784 135.265C496.582 140.528 490.401 155.96 479.622 153.149C471.732 151.089 470.208 139.293 477.317 135.279C481.768 132.768 482.135 132.764 486.784 135.265ZM339.916 175.103C331.529 176.862 327.552 190.095 333.628 196.03C336.892 199.216 336.915 199.401 336.915 223.272V247.311L302.447 283.142L267.978 318.973H240.591C222.767 318.973 212.202 319.511 210.335 320.518C207.472 322.061 193.805 335.671 145.068 385.512L119.407 411.754L119.037 466.231L118.667 520.708L104.335 535.389C93.0066 546.992 89.4504 549.891 87.388 549.21C74.27 544.88 60.2975 567.006 67.1711 581.225C78.9971 605.691 115.562 587.391 105.199 562.194L103.258 557.48L118.563 542.226L133.864 526.968L134.214 472.491L134.564 418.01L174.958 376.758L215.348 335.507L244.235 335.437L273.126 335.364L311.591 295.382L350.057 255.4V228.507C350.057 201.835 350.084 201.569 353.452 196.432C360.608 185.51 352.348 172.498 339.916 175.103ZM430.46 176.467C416.124 183.811 415.415 205.965 429.246 214.456L432.906 216.704L432.792 242.013L432.678 267.321L368.04 333.996L303.402 400.675L302.995 426.76L302.585 452.844L279.996 452.97C267.571 453.04 246.758 453.253 233.748 453.446C202.634 453.904 200.955 453.656 197.839 448.165C189.368 433.247 165.817 437.562 160.827 454.946C154.324 477.61 185.845 492.539 198.344 472.718L200.538 469.238H254.826H309.115L313.159 465.699L317.203 462.164V434.803V407.445L338.002 386.089C349.441 374.345 378.419 344.55 402.398 319.879L445.997 275.025V245.73V216.435L450.664 212.176C469.189 195.271 452.238 165.315 430.46 176.467ZM445.163 187.93C449.443 191.431 449.685 196.726 445.769 201.062C439.972 207.476 430.225 203.821 430.225 195.232C430.225 190.438 435.073 185.101 439.427 185.101C440.675 185.101 443.259 186.374 445.163 187.93ZM500.02 325.666C495.024 330.52 494.395 338.42 498.567 343.935C500.952 347.086 501.194 349.474 501.194 369.719V392.034L471.295 423.137L441.398 454.236L441.499 509.207C441.587 556.326 441.923 565.544 443.861 573.738C445.102 578.998 449.042 597.749 452.612 615.402C456.185 633.059 459.96 651.502 461.003 656.384C462.049 661.27 464.226 672.265 465.841 680.818C468.334 694.023 469.589 697.632 474.131 704.703C482.973 718.464 482.054 706.665 469.098 639.994C466.544 626.845 463.24 609.324 461.76 601.061C460.276 592.797 458.49 583.068 457.786 579.442C457.083 575.801 456.511 547.318 456.511 515.851V458.852L484.254 430.236C519.389 393.992 515.651 401.004 515.651 371.359C515.651 350.195 515.971 346.156 517.791 344.264C529.032 332.58 511.641 314.385 500.02 325.666ZM452.272 381.207C447.686 383.795 445.997 387.155 445.997 393.698C445.997 398.668 444.813 400.154 422.51 423.147C394.427 452.103 397.516 440.346 397.805 517.18C398.051 582.638 397.943 581.781 405.772 580.98C413.073 580.236 413.14 579.61 413.056 513.732L412.979 453.725L435.716 430.061C454.361 410.659 459.119 406.4 462.14 406.4C472.334 406.4 475.904 392.131 467.812 383.721C462.857 378.57 458.264 377.829 452.272 381.207ZM237.617 384.847C243.929 394.212 233.509 405.466 225.088 398.377C221.165 395.08 220.845 386.505 224.536 383.7C228.459 380.717 235.235 381.312 237.617 384.847ZM186.996 455.079C190.347 459.503 190.438 462.549 187.342 466.525C182.373 472.9 172.636 468.742 172.636 460.244C172.636 451.428 181.754 448.148 186.996 455.079ZM272.486 503.209L267.914 507.126L235.151 507.217L202.388 507.304L176.67 534.032L150.949 560.764L150.542 585.177L150.131 609.59L127.082 633.328C91.9468 669.509 83.2666 679.902 83.2666 685.784C83.2666 698.58 89.0567 694.488 130.261 652.565L164.767 617.451L164.76 592.203L164.75 566.954L186.73 544.733L208.71 522.513L239.629 522.562C263.954 522.6 271.248 523.027 273.832 524.562C278.525 527.349 287.401 527.161 289.965 524.216C302.181 510.186 286.435 491.256 272.486 503.209ZM358.66 505.374C362.599 509.472 362.737 512.819 359.161 517.547C355.538 522.338 349.717 522.38 345.498 517.645C337.323 508.476 350.144 496.523 358.66 505.374ZM227.995 549.951C202.994 555.445 207.236 593.545 232.85 593.545C238.485 593.545 247.122 588.013 250.937 581.963L253.107 578.522H297.39H341.673L354.908 592.521L368.144 606.523L368.366 635.367L368.592 664.211L351.11 681.64C326.452 706.225 331.596 704.186 294.204 704.182L262.662 704.179L259.516 699.377C247.838 681.556 218.897 692.439 222.053 713.467C225.007 733.142 244.767 739.758 257.804 725.438L263.463 719.223H298.917H334.375L345.293 708.302C351.295 702.297 357.634 696.108 359.376 694.551C361.116 692.992 367.125 687.068 372.727 681.381L382.914 671.044L382.88 639.466C382.84 596.612 382.103 594.899 352.429 568.793L346.255 563.362L299.59 563.46L252.925 563.555L249.975 559.403C244.42 551.598 236.332 548.118 227.995 549.951ZM93.2421 565.537C96.1625 570.171 94.7999 577.49 90.5775 579.84C81.618 584.824 73.0958 572.346 79.6464 563.834C82.1025 560.641 90.8467 561.736 93.2421 565.537ZM238.929 565.163C245.857 575.441 232.729 587.471 225.3 577.655C223.803 575.672 222.578 572.601 222.578 570.821C222.578 562.946 234.626 558.778 238.929 565.163ZM302.087 613.279C299.92 614.321 296.108 617.378 293.615 620.071L289.086 624.967L246.96 624.974L204.834 624.984L159.121 672.446C133.979 698.549 112.483 721.321 111.353 723.052C106.569 730.4 113.732 737.079 121.063 732.106C123.044 730.76 143.746 709.977 167.068 685.921C190.39 661.864 210.116 641.763 210.91 641.256C211.701 640.745 229.324 640.242 250.072 640.13L287.801 639.931L292.161 645.571C305.155 662.378 328.383 655.43 330.018 634.244C331.213 618.801 315.349 606.897 302.087 613.279ZM315.474 626.568C320.857 631.828 317.27 642.725 310.158 642.725C302.635 642.725 299.136 632.692 304.657 626.953C308.634 622.816 311.527 622.715 315.474 626.568ZM248.861 705.564C252.279 709.117 252.195 713.484 248.632 717.426C243.027 723.629 234.404 719.839 234.404 711.173C234.404 703.577 243.542 700.031 248.861 705.564Z" fill="#09434B"/>
</svg>
